# This file uses centimeters as units for non-parametric coordinates.

mtllib BotonLampara.mtl
g default
v -0.112500 0.000000 0.112500
v 0.112500 0.000000 0.112500
v -0.112500 0.009534 0.112500
v 0.112500 0.009534 0.112500
v -0.112500 0.009534 -0.112500
v 0.112500 0.009534 -0.112500
v -0.112500 0.000000 -0.112500
v 0.112500 0.000000 -0.112500
v 0.087500 0.009534 -0.087500
v -0.087500 0.009534 -0.087500
v -0.087500 0.009534 0.087500
v 0.087500 0.009534 0.087500
v 0.085827 0.015779 -0.085827
v 0.081256 0.020350 -0.081256
v 0.075012 0.020390 -0.075012
v -0.075012 0.020390 -0.075012
v -0.081256 0.020350 -0.081256
v -0.085827 0.015779 -0.085827
v -0.075012 0.020390 0.075012
v -0.081256 0.020350 0.081256
v -0.085827 0.015779 0.085827
v 0.075012 0.020390 0.075012
v 0.081256 0.020350 0.081256
v 0.085827 0.015779 0.085827
vt 0.375000 0.000000
vt 0.625000 0.000000
vt 0.375000 0.250000
vt 0.625000 0.250000
vt 0.375000 0.500000
vt 0.625000 0.500000
vt 0.375000 0.750000
vt 0.625000 0.750000
vt 0.375000 1.000000
vt 0.625000 1.000000
vt 0.875000 0.000000
vt 0.875000 0.250000
vt 0.125000 0.000000
vt 0.125000 0.250000
vt 0.392840 0.267840
vt 0.607160 0.267840
vt 0.607160 0.482160
vt 0.625000 0.250000
vt 0.375000 0.250000
vt 0.625000 0.500000
vt 0.375000 0.500000
vt 0.392840 0.482160
vt 0.393597 0.268597
vt 0.386543 0.261543
vt 0.603094 0.271487
vt 0.600816 0.273434
vt 0.603286 0.478286
vt 0.601144 0.476144
vt 0.396487 0.478094
vt 0.398434 0.475816
vn 0.000000 0.000000 1.000000
vn 0.000000 0.000000 1.000000
vn 0.000000 0.000000 1.000000
vn 0.000000 0.000000 1.000000
vn 0.000000 0.000000 -1.000000
vn 0.000000 0.000000 -1.000000
vn 0.000000 0.000000 -1.000000
vn 0.000000 0.000000 -1.000000
vn 0.000000 -1.000000 0.000000
vn 0.000000 -1.000000 0.000000
vn 0.000000 -1.000000 0.000000
vn 0.000000 -1.000000 0.000000
vn 1.000000 0.000000 0.000000
vn 1.000000 0.000000 0.000000
vn 1.000000 0.000000 0.000000
vn 1.000000 0.000000 0.000000
vn -1.000000 0.000000 0.000000
vn -1.000000 0.000000 0.000000
vn -1.000000 0.000000 0.000000
vn -1.000000 0.000000 0.000000
vn -0.000002 1.000000 0.000002
vn 0.000002 1.000000 0.000002
vn 0.000002 1.000000 0.000002
vn -0.000002 1.000000 0.000002
vn 0.000002 1.000000 -0.000002
vn 0.000002 1.000000 -0.000002
vn -0.000002 1.000000 -0.000002
vn -0.000002 1.000000 -0.000002
vn 0.000369 1.000000 -0.000369
vn 0.463392 0.886153 -0.001360
vn -0.463391 0.886153 -0.001360
vn -0.000369 1.000000 -0.000369
vn 0.000000 0.707106 -0.707107
vn 0.000000 0.421990 -0.906601
vn 0.000000 0.421990 -0.906601
vn 0.000000 0.707106 -0.707107
vn 0.000000 0.258797 -0.965932
vn 0.000000 0.258797 -0.965932
vn -0.000369 1.000000 0.000369
vn 0.000369 1.000000 0.000369
vn -0.965933 0.258794 0.000000
vn -0.965933 0.258794 0.000000
vn -0.965933 0.258794 0.000000
vn -0.965932 0.258794 0.000000
vn -0.463391 0.886153 0.001360
vn -0.707106 0.707108 0.000000
vn -0.707106 0.707108 0.000000
vn 0.000000 0.421992 0.906600
vn 0.000000 0.258805 0.965930
vn 0.000000 0.258805 0.965930
vn 0.000000 0.421992 0.906600
vn 0.463391 0.886153 0.001360
vn 0.000000 0.707102 0.707112
vn 0.000000 0.707102 0.707112
vn 0.965933 0.258794 -0.000000
vn 0.965933 0.258794 -0.000000
vn 0.965932 0.258794 -0.000000
vn 0.965932 0.258794 -0.000000
vn 0.707106 0.707107 -0.000000
vn 0.707106 0.707107 -0.000000
s off
g pasted__pCube14 group111
usemtl lambert20SG
f 1/1/1 2/2/2 4/4/3 3/3/4
f 5/5/5 6/6/6 8/8/7 7/7/8
f 7/7/9 8/8/10 2/10/11 1/9/12
f 2/2/13 8/11/14 6/12/15 4/4/16
f 7/13/17 1/1/18 3/3/19 5/14/20
s 1
f 3/3/21 4/4/22 10/18/23 9/19/24
f 4/4/22 6/6/25 11/20/26 10/18/23
f 6/6/25 5/5/27 12/21/28 11/20/26
f 5/5/27 3/3/21 9/19/24 12/21/28
s 2
usemtl initialShadingGroup
f 15/15/29 14/24/30 17/25/31 16/16/32
s 3
f 14/24/33 13/23/34 18/26/35 17/25/36
f 13/23/34 9/19/37 10/18/38 18/26/35
s 2
f 15/15/29 16/16/32 19/17/39 22/22/40
s off
f 18/26/41 10/18/42 11/20/43 21/28/44
s 2
f 16/16/32 17/25/31 20/27/45 19/17/39
f 17/25/31 18/26/46 21/28/47 20/27/45
s 4
f 21/28/48 11/20/49 12/21/50 24/30/51
s 2
f 19/17/39 20/27/45 23/29/52 22/22/40
s 4
f 20/27/53 21/28/48 24/30/51 23/29/54
s off
f 9/19/55 13/23/56 24/30/57 12/21/58
s 2
f 13/23/59 14/24/30 23/29/52 24/30/60
f 14/24/30 15/15/29 22/22/40 23/29/52
