# This file uses centimeters as units for non-parametric coordinates.

mtllib Cama.mtl
g default
v -0.500000 0.000000 1.050000
v 0.500000 0.000000 1.050000
v -0.500000 0.322140 -1.050000
v 0.500000 0.322140 -1.050000
v -0.500000 0.000000 -1.050000
v 0.500000 0.000000 -1.050000
v -0.500000 0.000000 -0.904604
v 0.500000 0.000000 -0.904604
v -0.500000 0.253607 1.050000
v -0.479927 0.302067 1.029927
v -0.431466 0.327434 0.981467
v 0.431466 0.327434 0.981467
v 0.479927 0.302067 1.029927
v 0.500000 0.253607 1.050000
v -0.500000 0.394831 -0.904604
v -0.500000 0.322140 -0.977295
v -0.500000 0.253607 -0.904604
v -0.479927 0.302067 -0.904604
v -0.431466 0.322140 -0.904604
v 0.500000 0.394831 -0.904604
v 0.431466 0.322140 -0.904604
v 0.479927 0.302067 -0.904604
v 0.500000 0.253607 -0.904604
v 0.500000 0.322140 -0.977295
v -0.500000 0.322140 -0.904604
v 0.500000 0.322140 -0.904604
v 0.427309 0.675026 -0.977302
v 0.478709 0.653735 -0.925894
v 0.500000 0.602335 -0.904604
v -0.427309 0.675026 -0.977302
v -0.478709 0.653735 -0.925894
v -0.500000 0.602335 -0.904604
v 0.478709 0.653735 -1.028709
v 0.500000 0.602335 -1.050000
v -0.478709 0.653735 -1.028709
v -0.500000 0.602335 -1.050000
v 0.500000 0.191987 0.484591
v 0.479927 0.249114 0.470325
v 0.431466 0.245092 0.435882
v -0.431466 0.287153 0.435882
v -0.479927 0.302067 0.470325
v -0.500000 0.253607 0.484591
v -0.500000 0.064365 0.484591
v 0.500000 0.064365 0.484591
v 0.479927 0.249114 -0.277990
v 0.431466 0.275528 -0.293687
v -0.431466 0.275528 -0.293687
v -0.479927 0.302067 -0.277990
v -0.500000 0.253607 -0.271488
v -0.500000 0.064365 -0.271488
v 0.500000 0.064365 -0.271488
v 0.500000 0.191987 -0.271488
v 0.096614 0.318177 -0.647277
v 0.122388 0.307500 -0.647277
v 0.122388 0.318177 -0.632809
v 0.122388 0.343952 -0.626817
v 0.096614 0.343952 -0.632809
v 0.085937 0.343952 -0.647277
v 0.485489 0.318177 -0.647277
v 0.496165 0.343952 -0.647277
v 0.485489 0.343952 -0.632809
v 0.459714 0.343952 -0.626817
v 0.459714 0.318177 -0.632809
v 0.459714 0.307500 -0.647277
v 0.096614 0.442644 -0.647277
v 0.085937 0.416869 -0.647277
v 0.096614 0.416869 -0.632809
v 0.122388 0.416869 -0.626817
v 0.122388 0.442644 -0.632809
v 0.122388 0.453320 -0.647277
v 0.485489 0.442644 -0.647277
v 0.459714 0.453320 -0.647277
v 0.459714 0.442644 -0.632809
v 0.459714 0.416869 -0.626817
v 0.485489 0.416869 -0.632809
v 0.496165 0.416869 -0.647277
v 0.096614 0.416869 -0.893650
v 0.085937 0.416869 -0.879183
v 0.096614 0.442644 -0.879183
v 0.122388 0.453320 -0.879183
v 0.122388 0.442644 -0.893650
v 0.122388 0.416869 -0.899643
v 0.485489 0.416869 -0.893650
v 0.459714 0.416869 -0.899643
v 0.459714 0.442644 -0.893650
v 0.459714 0.453320 -0.879183
v 0.485489 0.442644 -0.879183
v 0.496165 0.416869 -0.879183
v 0.096614 0.318177 -0.879183
v 0.085937 0.343952 -0.879183
v 0.096614 0.343952 -0.893650
v 0.122388 0.343952 -0.899643
v 0.122388 0.318177 -0.893650
v 0.122388 0.307500 -0.879183
v 0.485489 0.318177 -0.879183
v 0.459714 0.307500 -0.879183
v 0.459714 0.318177 -0.893650
v 0.459714 0.343952 -0.899643
v 0.485489 0.343952 -0.893650
v 0.496165 0.343952 -0.879183
v 0.101351 0.322914 -0.635468
v 0.480752 0.322914 -0.635468
v 0.101351 0.437907 -0.635468
v 0.480752 0.437907 -0.635468
v 0.101351 0.437907 -0.890991
v 0.480752 0.437907 -0.890991
v 0.101351 0.322914 -0.890991
v 0.480752 0.322914 -0.890991
vt 0.375000 0.750000
vt 0.625000 0.750000
vt 0.375000 1.000000
vt 0.625000 1.000000
vt 0.375000 0.767309
vt 0.625000 0.767309
vt 0.125000 0.000000
vt 0.142309 0.000000
vt 0.133655 0.250000
vt 0.125000 0.250000
vt 0.875000 0.000000
vt 0.875000 0.250000
vt 0.625000 0.000000
vt 0.375000 0.196814
vt 0.392133 0.258159
vt 0.607867 0.258159
vt 0.857691 0.000000
vt 0.625000 0.196814
vt 0.375000 0.000000
vt 0.142309 0.196814
vt 0.392133 0.482691
vt 0.607867 0.482691
vt 0.857691 0.196814
vt 0.375000 0.482691
vt 0.375000 0.491345
vt 0.857691 0.250000
vt 0.857691 0.250000
vt 0.866345 0.250000
vt 0.375000 0.250000
vt 0.625000 0.250000
vt 0.375000 0.482691
vt 0.142309 0.250000
vt 0.857691 0.250000
vt 0.625000 0.482691
vt 0.377702 0.486496
vt 0.860528 0.251351
vt 0.606827 0.491345
vt 0.375000 0.500000
vt 0.625000 0.500000
vt 0.375000 0.482691
vt 0.375000 0.500000
vt 0.625000 0.482691
vt 0.375000 0.482691
vt 0.625000 0.491345
vt 0.625000 0.500000
vt 0.625000 0.482691
vt 0.393173 0.491345
vt 0.625000 0.482691
vt 0.375000 0.482691
vt 0.625000 0.500000
vt 0.375000 0.500000
vt 0.692311 0.196814
vt 0.625000 0.317311
vt 0.692311 0.250000
vt 0.607867 0.323109
vt 0.392133 0.323109
vt 0.307689 0.250000
vt 0.375000 0.317311
vt 0.307689 0.196814
vt 0.307689 0.000000
vt 0.375000 0.932689
vt 0.625000 0.932689
vt 0.692311 0.000000
vt 0.625000 0.407320
vt 0.782320 0.250000
vt 0.607867 0.409963
vt 0.392133 0.409963
vt 0.217680 0.250000
vt 0.375000 0.407320
vt 0.217680 0.196814
vt 0.217680 0.000000
vt 0.375000 0.842680
vt 0.625000 0.842680
vt 0.782320 0.000000
vt 0.782320 0.196814
vt 0.397214 0.981252
vt 0.375000 0.985600
vt 0.375000 0.764400
vt 0.397214 0.768748
vt 0.360600 -0.000000
vt 0.356252 0.062494
vt 0.143748 0.062494
vt 0.139400 -0.000000
vt 0.397214 0.062494
vt 0.391261 -0.000000
vt 0.608739 -0.000000
vt 0.602786 0.062494
vt 0.391261 1.000000
vt 0.602786 0.981252
vt 0.608739 1.000000
vt 0.375464 0.061675
vt 0.375464 0.188325
vt 0.356252 0.187506
vt 0.397214 0.187506
vt 0.643748 0.062494
vt 0.639400 -0.000000
vt 0.860600 -0.000000
vt 0.856252 0.062494
vt 0.625000 0.985600
vt 0.602786 0.768748
vt 0.625000 0.764400
vt 0.624536 0.061675
vt 0.624536 0.188325
vt 0.602786 0.187506
vt 0.643748 0.187506
vt 0.360600 0.250000
vt 0.139400 0.250000
vt 0.143748 0.187506
vt 0.375000 0.264400
vt 0.397214 0.268748
vt 0.397214 0.481252
vt 0.375000 0.485600
vt 0.395359 0.245531
vt 0.604640 0.245531
vt 0.602786 0.268748
vt 0.625000 0.264400
vt 0.625000 0.485600
vt 0.602786 0.481252
vt 0.639400 0.250000
vt 0.856252 0.187506
vt 0.860600 0.250000
vt 0.125000 0.204104
vt 0.125000 0.045896
vt 0.375000 0.545896
vt 0.397214 0.562494
vt 0.397214 0.687506
vt 0.375000 0.704104
vt 0.395359 0.504469
vt 0.604640 0.504469
vt 0.602786 0.562494
vt 0.625000 0.545896
vt 0.625000 0.704104
vt 0.602786 0.687506
vt 0.875000 0.204104
vt 0.875000 0.045896
vt 0.395359 0.745531
vt 0.604640 0.745531
vt 0.375000 0.000000
vt 0.375000 1.000000
vt 0.625000 1.000000
vt 0.625000 0.000000
vt 0.375000 0.250000
vt 0.625000 0.250000
vt 0.375000 0.500000
vt 0.125000 0.250000
vt 0.875000 0.250000
vt 0.625000 0.500000
vt 0.375000 0.750000
vt 0.125000 0.000000
vt 0.875000 0.000000
vt 0.625000 0.750000
vn 0.000000 0.000000 -1.000000
vn 0.000000 0.000000 -1.000000
vn 0.000000 0.000000 -1.000000
vn 0.000000 0.000000 -1.000000
vn 0.000000 -0.998816 -0.048649
vn 0.000000 -0.998816 -0.048649
vn 0.000000 -0.993583 -0.113107
vn 0.000000 -0.993583 -0.113107
vn -1.000000 0.000000 0.000000
vn -1.000000 0.000000 0.000000
vn -0.998588 0.053092 0.001626
vn -0.999997 0.000000 0.002606
vn -1.000000 0.000000 0.000000
vn 0.000000 -1.000000 0.000000
vn 0.000000 -1.000000 0.000000
vn 0.000000 -0.996600 0.082396
vn 0.000000 -0.996600 0.082396
vn 0.999997 0.000000 0.002606
vn 0.998051 0.061961 0.007431
vn 1.000000 0.000000 0.000000
vn 1.000000 0.000000 0.000000
vn 1.000000 0.000000 0.000000
vn 0.010653 0.999305 -0.035735
vn 0.000000 0.885957 0.463767
vn 0.000000 0.885957 0.463767
vn 0.041394 0.998286 -0.041362
vn 0.000000 0.382682 0.923880
vn 0.000000 0.051967 0.998649
vn 0.000000 0.051967 0.998649
vn 0.000000 0.382682 0.923880
vn 0.000000 0.000000 1.000000
vn 0.000000 0.000000 1.000000
vn 0.036887 0.998555 -0.039069
vn 0.038976 0.998468 -0.039274
vn 1.000000 0.000000 0.000000
vn 1.000000 0.000000 0.000000
vn 0.996043 0.088767 -0.004402
vn 0.997200 0.074390 -0.007576
vn -1.000000 0.000000 0.000000
vn -1.000000 0.000000 0.000000
vn -0.998247 0.059193 0.000000
vn -0.996978 0.077681 0.000000
vn -0.923880 0.382684 0.000000
vn -0.923879 0.382684 0.000000
vn -0.137611 0.989829 -0.036077
vn 0.071977 0.997077 -0.025644
vn 0.306966 0.944668 -0.115645
vn 0.274764 0.959179 -0.066935
vn 0.937884 0.345165 -0.035152
vn 0.941591 0.336517 -0.012754
vn -0.935793 0.351739 0.023920
vn -0.991140 0.000000 0.132819
vn -1.000000 0.000000 0.000000
vn 0.000000 0.000000 1.000000
vn 0.000002 0.000000 1.000000
vn 0.000002 0.000000 1.000000
vn 0.000000 0.000000 1.000000
vn 0.000000 0.000000 1.000000
vn 0.000000 0.000000 1.000000
vn 0.000000 0.000000 1.000000
vn 0.000000 0.000000 1.000000
vn 1.000000 0.000000 0.000000
vn 0.991140 0.000000 0.132819
vn 0.943135 0.328107 0.053318
vn 0.000000 0.050092 -0.998745
vn 0.000000 0.050092 -0.998745
vn -0.998890 0.047107 0.000000
vn -0.998890 0.047107 0.000000
vn 0.000000 0.050884 0.998705
vn 0.000000 0.050884 0.998705
vn 0.998890 0.047107 0.000000
vn 0.998890 0.047107 0.000000
vn 0.382683 0.923880 0.000000
vn 0.382683 0.923880 0.000000
vn 0.382683 0.923880 0.000000
vn 0.923879 0.382684 0.000000
vn 0.923879 0.382684 0.000000
vn 0.000000 0.382682 0.923880
vn 0.000000 0.382682 0.923880
vn 0.000000 0.923898 0.382639
vn 0.000000 1.000000 0.000000
vn 0.000000 1.000000 0.000000
vn 0.000000 0.923898 0.382639
vn 0.000000 0.923898 -0.382639
vn 0.000000 0.923898 -0.382639
vn 0.000000 0.382689 -0.923877
vn 0.000000 0.382689 -0.923877
vn -0.923880 0.382683 0.000000
vn -0.923880 0.382683 0.000000
vn -0.382683 0.923880 0.000000
vn -0.382683 0.923880 0.000000
vn -0.382683 0.923880 0.000000
vn 0.995902 0.090383 0.003342
vn 0.938887 0.343869 0.015678
vn 0.295509 0.954487 0.040362
vn 0.031486 0.998606 0.042364
vn 0.024781 0.998875 0.040434
vn 0.282012 0.959373 0.008601
vn -0.923879 0.382684 0.000000
vn -0.996843 0.079401 0.000000
vn -1.000000 0.000000 0.000000
vn 0.000000 -0.998928 0.046283
vn 0.000000 -0.998928 0.046283
vn 1.000000 0.000000 0.000000
vn 0.421717 0.903807 0.072716
vn 0.024591 0.996784 0.076273
vn 0.003840 0.997247 0.074052
vn 0.072577 0.996656 0.037540
vn -0.028740 -0.998698 0.042153
vn -0.380936 -0.924240 0.025843
vn -0.380936 -0.924240 -0.025843
vn -0.028740 -0.998698 -0.042153
vn -0.924238 -0.380942 0.025843
vn -0.993650 -0.105563 0.038928
vn -0.993650 -0.105563 -0.038928
vn -0.924238 -0.380942 -0.025843
vn -0.015234 -0.059540 0.998110
vn -0.010443 -0.225152 0.974268
vn 0.010443 -0.225152 0.974268
vn 0.015234 -0.059540 0.998110
vn -0.017665 -0.806464 0.591019
vn 0.028740 -0.998698 0.042153
vn 0.017665 -0.806464 0.591019
vn -0.810233 -0.067474 0.582211
vn -0.810233 0.067474 0.582211
vn -0.993650 0.105563 0.038928
vn -0.221231 -0.040634 0.974375
vn -0.015234 0.059540 0.998110
vn -0.221231 0.040634 0.974375
vn 0.993651 -0.105560 0.038927
vn 0.924241 -0.380934 0.025843
vn 0.924241 -0.380934 -0.025843
vn 0.993651 -0.105560 -0.038927
vn 0.380934 -0.924241 0.025843
vn 0.028740 -0.998698 -0.042153
vn 0.380935 -0.924241 -0.025843
vn 0.221230 -0.040634 0.974375
vn 0.221230 0.040634 0.974375
vn 0.015234 0.059540 0.998110
vn 0.810238 -0.067474 0.582204
vn 0.993651 0.105560 0.038927
vn 0.810239 0.067474 0.582204
vn -0.924238 0.380942 0.025843
vn -0.924238 0.380942 -0.025843
vn -0.993650 0.105563 -0.038928
vn -0.380936 0.924240 0.025843
vn -0.028740 0.998698 0.042153
vn -0.028740 0.998698 -0.042153
vn -0.380936 0.924240 -0.025843
vn -0.017665 0.806464 0.591020
vn 0.017665 0.806464 0.591020
vn 0.028740 0.998698 0.042153
vn -0.010443 0.225152 0.974268
vn 0.010443 0.225152 0.974268
vn 0.380934 0.924241 0.025843
vn 0.380934 0.924241 -0.025843
vn 0.028740 0.998698 -0.042153
vn 0.924241 0.380934 0.025843
vn 0.993651 0.105560 -0.038927
vn 0.924241 0.380934 -0.025843
vn -0.810234 0.067474 -0.582210
vn -0.810234 -0.067474 -0.582210
vn -0.221231 0.040634 -0.974375
vn -0.015234 0.059540 -0.998110
vn -0.015234 -0.059540 -0.998110
vn -0.221231 -0.040634 -0.974375
vn -0.010443 0.225152 -0.974268
vn 0.010443 0.225152 -0.974268
vn 0.015234 0.059540 -0.998110
vn -0.017665 0.806464 -0.591020
vn 0.017665 0.806464 -0.591020
vn 0.221230 0.040634 -0.974375
vn 0.221230 -0.040634 -0.974375
vn 0.015234 -0.059540 -0.998110
vn 0.810239 0.067473 -0.582203
vn 0.810239 -0.067474 -0.582203
vn -0.017665 -0.806464 -0.591019
vn 0.017665 -0.806464 -0.591019
vn -0.010443 -0.225152 -0.974268
vn 0.010443 -0.225152 -0.974268
vn -0.800603 -0.293286 0.522511
vn -0.293284 -0.800604 0.522510
vn -0.197445 -0.197445 0.960224
vn 0.293284 -0.800604 0.522512
vn 0.800605 -0.293285 0.522509
vn 0.197446 -0.197445 0.960224
vn -0.293284 0.800606 0.522508
vn -0.800604 0.293285 0.522511
vn -0.197445 0.197444 0.960225
vn 0.800605 0.293284 0.522509
vn 0.293284 0.800605 0.522509
vn 0.197445 0.197445 0.960224
vn -0.197444 0.197444 -0.960225
vn -0.800602 0.293286 -0.522512
vn -0.293285 0.800605 -0.522509
vn 0.800605 0.293284 -0.522510
vn 0.197445 0.197445 -0.960225
vn 0.293284 0.800605 -0.522509
vn -0.293287 -0.800604 -0.522510
vn -0.800601 -0.293287 -0.522513
vn -0.197443 -0.197445 -0.960225
vn 0.800603 -0.293286 -0.522511
vn 0.293286 -0.800603 -0.522511
vn 0.197443 -0.197446 -0.960225
s 1
g pCube3
usemtl lambert15SG
f 3/38/1 4/45/2 6/2/3 5/1/4
s 2
f 43/61/5 44/62/6 2/4/7 1/3/8
s 3
f 5/7/9 7/8/10 17/20/11 16/9/12 3/10/13
s 2
f 5/1/14 6/2/15 8/6/16 7/5/17
s 5
f 24/28/18 23/23/19 8/17/20 6/11/21 4/12/22
s 6
f 11/15/23 10/29/24 13/30/25 12/16/26
s 7
f 10/29/27 9/14/28 14/18/29 13/30/30
f 1/19/31 2/13/32 14/18/29 9/14/28
s 6
f 11/15/23 12/16/26 39/55/33 40/56/34
s 5
f 2/13/35 44/63/36 37/52/37 14/18/38
s 3
f 43/60/39 1/19/40 9/14/41 42/59/42
f 9/14/41 10/29/43 41/57/44 42/59/42
s 6
f 10/29/45 11/15/23 40/56/34 41/58/46
f 12/16/26 13/30/47 38/53/48 39/55/33
s 5
f 13/30/49 14/18/38 37/52/37 38/54/50
s 3
f 17/24/11 18/31/51 25/35/52 16/25/12
f 16/25/12 25/35/52 15/40/53
s 10
f 15/40/54 25/35/55 18/31/56 19/21/57
f 21/26/58 22/33/59 26/36/60 20/27/61
s 5
f 20/27/62 26/36/63 24/28/18
f 24/28/18 26/36/63 22/33/64 23/23/19
s 1
f 4/45/2 3/38/1 36/41/65 34/39/66
s 3
f 3/38/13 16/25/12 15/40/53 32/43/67 36/41/68
s 10
f 15/40/54 19/21/57 21/22/58 20/42/61 29/46/69 32/43/70
s 5
f 20/42/62 24/44/18 4/45/22 34/39/71 29/46/72
s off
f 27/37/73 28/48/74 33/50/75
s 5
f 28/48/76 29/46/72 34/39/71 33/50/77
s 10
f 29/46/69 28/48/78 31/49/79 32/43/70
s 11
f 28/48/80 27/37/81 30/47/82 31/49/83
f 27/37/81 33/50/84 35/51/85 30/47/82
s 1
f 33/50/86 34/39/66 36/41/65 35/51/87
s 3
f 32/43/67 31/49/88 35/51/89 36/41/68
s off
f 31/49/90 30/47/91 35/51/92
s 5
f 38/54/50 37/52/37 52/75/93 45/65/94
s 6
f 39/55/33 38/53/48 45/64/95 46/66/96
f 40/56/34 39/55/33 46/66/96 47/67/97
f 41/58/46 40/56/34 47/67/97 48/69/98
s 3
f 42/59/42 41/57/44 48/68/99 49/70/100
f 50/71/101 43/60/39 42/59/42 49/70/100
s 2
f 50/72/102 51/73/103 44/62/6 43/61/5
s 5
f 37/52/37 44/63/36 51/74/104 52/75/93
s 6
f 46/66/96 45/64/95 22/34/105 21/22/106
f 47/67/97 46/66/96 21/22/106 19/21/107
f 48/69/98 47/67/97 19/21/107 18/31/108
s 3
f 49/70/100 48/68/99 18/32/51 17/20/11
f 7/8/10 50/71/101 49/70/100 17/20/11
s 2
f 7/5/17 8/6/16 51/73/103 50/72/102
s 5
f 52/75/93 51/74/104 8/17/20 23/23/19
f 45/65/94 52/75/93 23/23/19 22/33/64
s 12
f 54/76/109 53/77/110 89/78/111 94/79/112
s 13
f 53/80/113 58/81/114 90/82/115 89/83/116
s 14
f 56/84/117 55/85/118 63/86/119 62/87/120
s 12
f 55/88/121 54/76/109 64/89/122 63/90/123
s 13
f 58/81/114 57/91/124 67/92/125 66/93/126
s 14
f 57/91/127 56/84/117 68/94/128 67/92/129
s 15
f 60/95/130 59/96/131 95/97/132 100/98/133
s 12
f 59/99/134 64/89/122 96/100/135 95/101/136
s 14
f 62/87/120 61/102/137 75/103/138 74/104/139
s 15
f 61/102/140 60/95/130 76/105/141 75/103/142
s 13
f 66/93/126 65/106/143 79/107/144 78/108/145
s 16
f 65/109/146 70/110/147 80/111/148 79/112/149
f 70/110/147 69/113/150 73/114/151 72/115/152
s 14
f 69/113/153 68/94/128 74/104/139 73/114/154
s 16
f 72/115/152 71/116/155 87/117/156 86/118/157
s 15
f 71/119/158 76/105/141 88/120/159 87/121/160
s 13
f 78/108/145 77/122/161 91/123/162 90/82/115
s 17
f 77/124/163 82/125/164 92/126/165 91/127/166
f 82/125/164 81/128/167 85/129/168 84/130/169
s 16
f 81/128/170 80/111/148 86/118/157 85/129/171
s 17
f 84/130/169 83/131/172 99/132/173 98/133/174
s 15
f 83/134/175 88/120/159 100/98/133 99/135/176
s 12
f 94/79/112 93/136/177 97/137/178 96/100/135
s 17
f 93/136/179 92/126/165 98/133/174 97/137/180
s 14
f 56/84/117 62/87/120 74/104/139 68/94/128
s 16
f 70/110/147 72/115/152 86/118/157 80/111/148
s 17
f 82/125/164 84/130/169 98/133/174 92/126/165
s 12
f 94/79/112 96/100/135 64/89/122 54/76/109
s 15
f 60/95/130 100/98/133 88/120/159 76/105/141
s 13
f 90/82/115 58/81/114 66/93/126 78/108/145
f 57/91/124 58/81/114 53/80/113 101/138/181
s 12
f 53/77/110 54/76/109 55/88/121 101/139/182
s 14
f 55/85/118 56/84/117 57/91/127 101/138/183
s 12
f 63/90/123 64/89/122 59/99/134 102/140/184
s 15
f 59/96/131 60/95/130 61/102/140 102/141/185
s 14
f 61/102/137 62/87/120 63/86/119 102/141/186
s 16
f 69/113/150 70/110/147 65/109/146 103/142/187
s 13
f 65/106/143 66/93/126 67/92/125 103/142/188
s 14
f 67/92/129 68/94/128 69/113/153 103/142/189
s 15
f 75/103/142 76/105/141 71/119/158 104/143/190
s 16
f 71/116/155 72/115/152 73/114/151 104/143/191
s 14
f 73/114/154 74/104/139 75/103/138 104/143/192
s 17
f 81/128/167 82/125/164 77/124/163 105/144/193
s 13
f 77/122/161 78/108/145 79/107/144 105/145/194
s 16
f 79/112/149 80/111/148 81/128/170 105/144/195
s 15
f 87/121/160 88/120/159 83/134/175 106/146/196
s 17
f 83/131/172 84/130/169 85/129/168 106/147/197
s 16
f 85/129/171 86/118/157 87/117/156 106/147/198
s 12
f 93/136/177 94/79/112 89/78/111 107/148/199
s 13
f 89/83/116 90/82/115 91/123/162 107/149/200
s 17
f 91/127/166 92/126/165 93/136/179 107/148/201
s 15
f 99/135/176 100/98/133 95/97/132 108/150/202
s 12
f 95/101/136 96/100/135 97/137/178 108/151/203
s 17
f 97/137/180 98/133/174 99/132/173 108/151/204
