# This file uses centimeters as units for non-parametric coordinates.

mtllib Lavadora.mtl
g default
v -0.300000 0.000000 -0.300000
v 0.300000 0.000000 -0.300000
v 0.300000 0.000000 0.300000
v -0.300000 0.000000 0.300000
v -0.300000 1.000000 0.300000
v -0.300000 1.000000 -0.300000
v 0.267547 0.306209 -0.211791
v 0.267547 0.460085 0.000000
v 0.267547 0.248293 -0.153875
v 0.267547 0.379187 -0.248976
v 0.267547 0.211109 -0.080897
v 0.267547 0.460085 -0.261789
v 0.267547 0.198296 0.000000
v 0.267547 0.540982 -0.248976
v 0.267547 0.211109 0.080897
v 0.267547 0.613960 -0.211791
v 0.267547 0.248293 0.153875
v 0.300000 0.248293 -0.153875
v 0.300000 0.306209 -0.211791
v 0.300000 0.379187 -0.248976
v 0.300000 0.211109 -0.080897
v 0.267547 0.306209 0.211791
v 0.267547 0.671876 -0.153875
v 0.300000 0.460085 -0.261789
v 0.300000 0.198296 0.000000
v 0.267547 0.379187 0.248976
v 0.267547 0.709060 -0.080897
v 0.267547 0.460085 0.261789
v 0.267547 0.721873 0.000000
v 0.267547 0.709060 0.080897
v 0.267547 0.540982 0.248976
v 0.300000 0.540982 -0.248976
v 0.300000 0.211109 0.080897
v 0.267547 0.613960 0.211791
v 0.267547 0.671876 0.153875
v 0.300000 0.613960 -0.211791
v 0.300000 0.248293 0.153875
v 0.300000 0.306209 0.211791
v 0.300000 0.671876 -0.153875
v 0.300000 0.379187 0.248976
v 0.300000 0.709060 -0.080897
v 0.120018 1.000000 0.300000
v 0.120018 1.000000 -0.300000
v 0.300000 0.460085 0.261789
v 0.300000 0.721873 0.000000
v 0.300000 0.709060 0.080897
v 0.300000 0.540982 0.248976
v 0.300000 0.613960 0.211791
v 0.300000 0.671876 0.153875
v 0.275887 0.910009 0.300000
v 0.300000 0.820018 0.300000
v 0.300000 0.820018 -0.300000
v 0.275887 0.910009 -0.300000
v 0.210009 0.975887 0.300000
v 0.210009 0.975887 -0.300000
vt 0.375000 0.750000
vt 0.625000 0.750000
vt 0.625000 1.000000
vt 0.375000 1.000000
vt 0.125000 0.000000
vt 0.375000 0.000000
vt 0.375000 0.250000
vt 0.125000 0.250000
vt 0.408159 0.970159
vt 0.500000 0.837500
vt 0.373591 0.935591
vt 0.451716 0.992353
vt 0.351397 0.892034
vt 0.500000 1.000000
vt 0.343750 0.843750
vt 0.548284 0.992353
vt 0.351397 0.795466
vt 0.591841 0.970159
vt 0.373591 0.751909
vt 0.462500 0.648773
vt 0.450000 0.648773
vt 0.450000 0.688440
vt 0.462500 0.688440
vt 0.437500 0.648773
vt 0.437500 0.688440
vt 0.475000 0.648773
vt 0.475000 0.688440
vt 0.408159 0.717341
vt 0.626409 0.935591
vt 0.425000 0.648773
vt 0.425000 0.688440
vt 0.487500 0.648773
vt 0.487500 0.688440
vt 0.451716 0.695147
vt 0.648603 0.892034
vt 0.500000 0.687500
vt 0.656250 0.843750
vt 0.648603 0.795466
vt 0.548284 0.695147
vt 0.412500 0.648773
vt 0.412500 0.688440
vt 0.500000 0.648773
vt 0.500000 0.688440
vt 0.591842 0.717341
vt 0.626409 0.751908
vt 0.400000 0.648773
vt 0.400000 0.688440
vt 0.512500 0.648773
vt 0.512500 0.688440
vt 0.525000 0.648773
vt 0.525000 0.688440
vt 0.387500 0.648773
vt 0.387500 0.688440
vt 0.537500 0.648773
vt 0.537500 0.688440
vt 0.375000 0.648773
vt 0.375000 0.688440
vt 0.550007 0.250000
vt 0.550007 0.500000
vt 0.375000 0.500000
vt 0.550000 0.648773
vt 0.550000 0.688440
vt 0.625000 0.648773
vt 0.612500 0.648773
vt 0.612500 0.688440
vt 0.625000 0.688440
vt 0.600000 0.648773
vt 0.600000 0.688440
vt 0.562500 0.648773
vt 0.562500 0.688440
vt 0.575000 0.648773
vt 0.575000 0.688440
vt 0.587500 0.648773
vt 0.587500 0.688440
vt 0.625000 0.250000
vt 0.625000 0.205004
vt 0.875000 0.205004
vt 0.875000 0.250000
vt 0.591269 0.253532
vt 0.590427 0.498871
vt 0.625000 0.500000
vt 0.625000 0.544995
vt 0.625000 0.000000
vt 0.875000 0.000000
vt 0.859079 0.115021
vt 0.853740 0.094797
vt 0.838246 0.076552
vt 0.814115 0.062073
vt 0.783707 0.052777
vt 0.750000 0.049574
vt 0.716293 0.052777
vt 0.685885 0.062073
vt 0.661754 0.076552
vt 0.646260 0.094797
vt 0.640921 0.115021
vt 0.646260 0.135245
vt 0.661754 0.153490
vt 0.685885 0.167969
vt 0.716293 0.177265
vt 0.750000 0.180468
vt 0.783707 0.177265
vt 0.814115 0.167969
vt 0.838246 0.153490
vt 0.853740 0.135245
vn 0.000000 -1.000000 0.000000
vn 0.000000 -1.000000 0.000000
vn 0.000000 -1.000000 0.000000
vn 0.000000 -1.000000 0.000000
vn -1.000000 0.000000 0.000000
vn -1.000000 0.000000 0.000000
vn -1.000000 0.000000 0.000000
vn -1.000000 0.000000 0.000000
vn 1.000000 0.000000 0.000000
vn 1.000000 -0.000000 0.000000
vn 1.000000 0.000000 0.000000
vn 1.000000 0.000000 0.000000
vn 1.000000 -0.000000 0.000000
vn 1.000000 -0.000000 0.000000
vn 1.000000 0.000000 0.000000
vn 1.000000 -0.000000 0.000000
vn 1.000000 0.000000 0.000000
vn 1.000000 0.000000 0.000000
vn 1.000000 0.000000 0.000000
vn 0.000000 0.809017 0.587785
vn 0.000000 0.587785 0.809017
vn 0.000000 0.587785 0.809017
vn 0.000000 0.809017 0.587785
vn 0.000000 0.309017 0.951057
vn 0.000000 0.309017 0.951057
vn 0.000000 0.951057 0.309017
vn 0.000000 0.951057 0.309017
vn 1.000000 -0.000000 0.000000
vn 1.000000 -0.000000 0.000000
vn 0.000000 0.000000 1.000000
vn 0.000000 0.000000 1.000000
vn 0.000000 1.000000 0.000000
vn 0.000000 1.000000 0.000000
vn 1.000000 0.000000 0.000000
vn 1.000000 0.000000 0.000000
vn 1.000000 -0.000000 0.000000
vn 1.000000 0.000000 0.000000
vn 1.000000 -0.000000 0.000000
vn 1.000000 -0.000000 0.000000
vn 0.000000 -0.309017 0.951057
vn 0.000000 -0.309017 0.951057
vn 0.000000 0.951057 -0.309017
vn 0.000000 0.951057 -0.309017
vn 1.000000 0.000000 0.000000
vn 1.000000 0.000000 0.000000
vn 0.000000 -0.587785 0.809017
vn 0.000000 -0.587785 0.809017
vn 0.000000 0.809017 -0.587785
vn 0.000000 0.809017 -0.587785
vn 0.000000 0.587785 -0.809017
vn 0.000000 0.587785 -0.809017
vn 0.000000 -0.809017 0.587786
vn 0.000000 -0.809017 0.587786
vn 0.000000 0.309017 -0.951057
vn 0.000000 0.309017 -0.951057
vn 0.000000 -0.951057 0.309016
vn 0.000000 -0.951057 0.309016
vn 0.000000 1.000000 0.000000
vn 0.047227 0.998884 0.000000
vn 0.047227 0.998884 0.000000
vn 0.000000 1.000000 0.000000
vn 0.000000 -0.000000 -1.000000
vn 0.000000 -0.000000 -1.000000
vn 0.000000 -1.000000 -0.000001
vn 0.000000 -1.000000 -0.000001
vn 0.000000 -0.951057 -0.309016
vn 0.000000 -0.951057 -0.309016
vn 0.000000 -0.309017 -0.951057
vn 0.000000 -0.309017 -0.951057
vn 0.000000 -0.587785 -0.809017
vn 0.000000 -0.587785 -0.809017
vn 0.000000 -0.809017 -0.587785
vn 0.000000 -0.809017 -0.587785
vn 0.965926 0.258819 0.000000
vn 0.996222 0.086837 0.000000
vn 0.996388 0.084914 0.000000
vn 0.965926 0.258819 0.000000
vn 0.258819 0.965926 0.000000
vn 0.258819 0.965926 0.000000
vn 0.707107 0.707107 0.000000
vn 0.707107 0.707107 0.000000
vn 0.707107 0.707107 0.000000
vn 0.707107 0.707107 0.000000
vn 0.000000 0.000000 -1.000000
vn 0.000000 0.000000 -1.000000
vn 0.000000 0.000000 -1.000000
vn 0.000000 0.000000 -1.000000
vn 0.000000 0.000000 -1.000000
vn 0.000000 0.000000 -1.000000
vn 0.000000 0.000000 -1.000000
vn 0.000000 0.000000 1.000000
vn 0.000000 0.000000 1.000000
vn 0.000000 0.000000 1.000000
vn 0.000000 0.000000 1.000000
vn 0.000000 0.000000 1.000000
vn 0.000000 0.000000 1.000000
vn 0.000000 0.000000 1.000000
vn 1.000000 -0.000000 0.000000
vn 1.000000 -0.000000 0.000000
vn 1.000000 -0.000000 0.000000
vn 1.000000 -0.000000 0.000000
vn 1.000000 -0.000000 0.000000
vn 1.000000 -0.000000 0.000000
vn 1.000000 -0.000000 0.000000
vn 1.000000 -0.000000 0.000000
vn 1.000000 -0.000000 0.000000
vn 1.000000 -0.000000 0.000000
vn 1.000000 -0.000000 0.000000
vn 1.000000 -0.000000 0.000000
vn 1.000000 -0.000000 0.000000
vn 1.000000 -0.000000 0.000000
vn 1.000000 -0.000000 0.000000
vn 1.000000 -0.000000 0.000000
vn 1.000000 -0.000000 0.000000
vn 1.000000 -0.000000 0.000000
vn 1.000000 -0.000000 0.000000
vn 1.000000 -0.000000 0.000000
vn 1.000000 -0.000000 0.000000
vn 1.000000 -0.000000 0.000000
s off
g pCube5
usemtl lambert16SG
f 1/1/1 2/2/2 3/3/3 4/4/4
f 1/5/5 4/6/6 5/7/7 6/8/8
s 1
usemtl lambert17SG
f 7/9/9 8/10/10 9/11/11
f 10/12/12 8/10/10 7/9/9
f 9/11/11 8/10/10 11/13/13
f 12/14/14 8/10/10 10/12/12
f 11/13/13 8/10/10 13/15/15
f 14/16/16 8/10/10 12/14/14
f 13/15/15 8/10/10 15/17/17
f 16/18/18 8/10/10 14/16/16
f 15/17/17 8/10/10 17/19/19
s 2
usemtl lambert16SG
f 18/20/20 19/21/21 7/22/22 9/23/23
f 19/21/21 20/24/24 10/25/25 7/22/22
f 21/26/26 18/20/20 9/23/23 11/27/27
s 1
usemtl lambert17SG
f 17/19/19 8/10/10 22/28/28
f 23/29/29 8/10/10 16/18/18
s 2
usemtl lambert16SG
f 20/24/24 24/30/30 12/31/31 10/25/25
f 25/32/32 21/26/26 11/27/27 13/33/33
s 1
usemtl lambert17SG
f 22/28/28 8/10/10 26/34/34
f 27/35/35 8/10/10 23/29/29
f 26/34/34 8/10/10 28/36/36
f 29/37/37 8/10/10 27/35/35
f 30/38/38 8/10/10 29/37/37
f 28/36/36 8/10/10 31/39/39
s 2
usemtl lambert16SG
f 24/30/30 32/40/40 14/41/41 12/31/31
f 33/42/42 25/32/32 13/33/33 15/43/43
s 1
usemtl lambert17SG
f 31/39/39 8/10/10 34/44/44
f 35/45/45 8/10/10 30/38/38
f 34/44/44 8/10/10 35/45/45
s 2
usemtl lambert16SG
f 32/40/40 36/46/46 16/47/47 14/41/41
f 37/48/48 33/42/42 15/43/43 17/49/49
f 38/50/50 37/48/48 17/49/49 22/51/51
f 36/46/46 39/52/52 23/53/53 16/47/47
f 40/54/54 38/50/50 22/51/51 26/55/55
f 39/52/52 41/56/56 27/57/57 23/53/53
s 3
f 5/7/58 42/58/59 43/59/60 6/60/61
s 2
f 44/61/62 40/54/54 26/55/55 28/62/63
f 41/63/56 45/64/64 29/65/65 27/66/57
f 45/64/64 46/67/66 30/68/67 29/65/65
f 47/69/68 44/61/62 28/62/63 31/70/69
f 48/71/70 47/69/68 31/70/69 34/72/71
f 46/67/66 49/73/72 35/74/73 30/68/67
f 49/73/72 48/71/70 34/72/71 35/74/73
s 4
f 50/75/74 51/76/75 52/77/76 53/78/77
s 3
f 42/58/59 54/79/78 55/80/79 43/59/60
s off
f 54/79/80 50/75/81 53/81/82 55/80/83
f 52/82/84 2/2/85 1/1/86 6/60/87 43/59/88 55/80/89 53/81/90
f 50/75/91 54/79/92 42/58/93 5/7/94 4/6/95 3/83/96 51/76/97
s 4
f 3/83/98 2/84/99 52/77/76 24/85/100 20/86/101 19/87/102 18/88/103 21/89/104 25/90/105 33/91/106 37/92/107 38/93/108 40/94/109 44/95/110
f 3/83/98 44/95/110 47/96/111 48/97/112 49/98/113 46/99/114 45/100/115 41/101/116 39/102/117 36/103/118 32/104/119 24/85/100 52/77/76 51/76/75
