# This file uses centimeters as units for non-parametric coordinates.

mtllib Manta.mtl
g default
v -0.001976 0.010251 0.129849
v -0.001976 0.020000 -0.131678
v -0.001976 0.000000 -0.131678
v -0.001976 0.000000 0.129849
v -0.132840 0.020000 0.002302
v -0.132840 0.000000 0.002302
v -0.001976 0.000000 0.002302
v 0.126889 0.000000 0.002302
v 0.126889 0.006769 0.002302
v -0.001976 0.006650 0.002302
v -0.146631 0.000000 0.120999
v -0.121071 0.000000 0.146062
v -0.134426 0.000000 0.143792
v -0.144099 0.000000 0.134307
v -0.146631 0.020000 0.120999
v -0.144099 0.020000 0.134307
v -0.134426 0.020000 0.143792
v -0.121071 0.020000 0.146062
v 0.145378 0.000000 0.120463
v 0.143284 0.000000 0.133920
v 0.133767 0.000000 0.143662
v 0.120363 0.000000 0.146070
v 0.120363 0.010251 0.146070
v 0.133767 0.020000 0.143662
v 0.143284 0.020000 0.133920
v 0.145378 0.020000 0.120463
v -0.146764 0.006650 -0.121276
v -0.121313 0.006650 -0.146449
v -0.134616 0.006650 -0.144057
v -0.144226 0.006650 -0.134552
v -0.146764 0.000000 -0.121276
v -0.144226 0.000000 -0.134552
v -0.134616 0.000000 -0.144057
v -0.121313 0.000000 -0.146449
v 0.145563 0.020000 -0.120763
v 0.143449 0.020000 -0.134183
v 0.133990 0.020000 -0.143936
v 0.120641 0.020000 -0.146460
v 0.120641 0.000000 -0.146460
v 0.133990 0.000000 -0.143936
v 0.143449 0.000000 -0.134183
v 0.145563 0.000000 -0.120763
v -0.135280 0.017661 -0.019353
v -0.001976 0.008990 -0.021176
v 0.130161 0.009087 -0.019263
v 0.130161 0.000000 -0.019263
v -0.001976 0.000000 -0.021176
v -0.135280 0.000000 -0.019353
v -0.135257 0.000000 0.023103
v -0.001976 0.000000 0.024654
v 0.130129 0.000000 0.023009
v 0.130129 0.009087 0.023009
v -0.001976 0.007281 0.024654
v -0.135257 0.020000 0.023103
vt 0.251919 0.000000
vt 0.350832 0.250000
vt 0.399108 0.000000
vt 0.498353 0.250000
vt 0.498353 0.000000
vt 0.649614 -0.000000
vt 0.748081 0.250000
vt 0.148937 -0.000000
vt 0.251919 0.250000
vt 0.498353 0.750000
vt 0.748081 0.000000
vt 0.850636 0.250000
vt 0.350832 0.000000
vt 0.399108 0.250000
vt 0.600303 0.000000
vt 0.649614 0.250000
vt 0.148937 0.250000
vt 0.398906 0.750000
vt 0.600534 0.500000
vt 0.850636 0.000000
vt 0.375000 0.975832
vt 0.498353 1.000000
vt 0.399108 1.000000
vt 0.498353 0.373081
vt 0.375000 0.373081
vt 0.375000 0.274168
vt 0.498353 0.876919
vt 0.625000 0.876919
vt 0.625000 0.975386
vt 0.600303 1.000000
vt 0.600303 0.250000
vt 0.625000 0.274614
vt 0.375000 0.476063
vt 0.498353 0.500000
vt 0.398906 0.500000
vt 0.375000 0.876919
vt 0.375000 0.773937
vt 0.625000 0.373081
vt 0.625000 0.475636
vt 0.600534 0.750000
vt 0.625000 0.774364
vt 0.391072 0.991944
vt 0.383016 0.000000
vt 0.383036 0.983888
vt 0.366924 0.000000
vt 0.375000 0.250000
vt 0.387047 0.249555
vt 0.616768 0.983591
vt 0.633177 -0.000000
vt 0.608535 0.991795
vt 0.616740 -0.000000
vt 0.625000 0.250000
vt 0.625000 0.250000
vt 0.625000 0.250000
vt 0.386953 0.500442
vt 0.375000 0.500000
vt 0.125000 0.250000
vt 0.375000 0.750000
vt 0.125000 0.000000
vt 0.386953 0.749558
vt 0.625000 0.500000
vt 0.875000 0.250000
vt 0.612767 0.500447
vt 0.612767 0.749553
vt 0.875000 0.000000
vt 0.625000 0.750000
vt 0.233872 0.250000
vt 0.375000 0.391128
vt 0.498353 0.395322
vt 0.625000 0.391053
vt 0.766053 0.250000
vt 0.625000 0.858947
vt 0.766053 0.000000
vt 0.498353 0.854678
vt 0.233872 -0.000000
vt 0.375000 0.858872
vt 0.269252 0.000000
vt 0.375000 0.894252
vt 0.498353 0.898487
vt 0.625000 0.894174
vt 0.730826 -0.000000
vt 0.625000 0.355826
vt 0.730826 0.250000
vt 0.498353 0.351513
vt 0.269252 0.250000
vt 0.375000 0.355748
vn 0.094328 0.000000 0.995541
vn 0.096160 0.000000 0.995366
vn 0.025828 0.000000 0.999666
vn 0.029076 0.000000 0.999577
vn 0.107162 0.000000 -0.994242
vn 0.108145 0.000000 -0.994135
vn -0.028657 0.000000 -0.999589
vn -0.024441 0.000000 -0.999701
vn 0.994682 0.000000 -0.102996
vn 0.994359 0.000000 -0.106065
vn 0.987978 0.000000 -0.154597
vn 0.987978 0.000000 -0.154597
vn -0.993318 -0.000000 -0.115405
vn -0.993318 -0.000000 -0.115405
vn -0.996854 0.000000 -0.079264
vn -0.996854 0.000000 -0.079264
vn -0.089793 0.000000 -0.995961
vn -0.089793 0.000000 -0.995961
vn -0.088778 0.000000 0.996051
vn -0.074892 0.000000 0.997192
vn -0.995642 0.000000 0.093261
vn -0.995753 0.000000 0.092069
vn -0.993713 0.000000 0.111961
vn -0.993713 0.000000 0.111961
vn 0.988682 0.000000 0.150029
vn 0.988682 0.000000 0.150030
vn 0.994619 0.000000 0.103597
vn 0.994911 0.000000 0.100763
vn -0.982387 0.000000 0.186858
vn -0.982387 0.000000 0.186858
vn -0.700130 0.000000 0.714016
vn -0.700130 0.000000 0.714016
vn -0.700130 0.000000 0.714016
vn -0.700130 0.000000 0.714016
vn -0.167532 0.000000 0.985867
vn -0.167532 0.000000 0.985867
vn 0.176882 0.000000 0.984232
vn 0.176882 0.000000 0.984232
vn 0.715330 0.000000 0.698786
vn 0.715330 0.000000 0.698786
vn 0.715330 0.000000 0.698786
vn 0.715330 0.000000 0.698786
vn 0.988101 0.000000 0.153808
vn 0.988101 0.000000 0.153808
vn -0.982225 0.000000 -0.187709
vn -0.982225 0.000000 -0.187709
vn -0.703222 0.000000 -0.710971
vn -0.703222 0.000000 -0.710971
vn -0.703222 0.000000 -0.710971
vn -0.703222 0.000000 -0.710971
vn -0.176934 0.000000 -0.984223
vn -0.176934 0.000000 -0.984223
vn 0.185829 0.000000 -0.982582
vn 0.185829 0.000000 -0.982582
vn 0.717848 0.000000 -0.696200
vn 0.717848 0.000000 -0.696200
vn 0.717848 0.000000 -0.696200
vn 0.717848 0.000000 -0.696200
vn 0.987810 0.000000 -0.155662
vn 0.987810 0.000000 -0.155662
vn 0.000000 -1.000000 0.000000
vn 0.000000 -1.000000 0.000000
vn 0.000000 -1.000000 0.000000
vn 0.000000 -1.000000 0.000000
vn 0.000000 -1.000000 0.000000
vn 0.000000 -1.000000 0.000000
vn 0.000000 -1.000000 0.000000
vn 0.014223 0.999693 -0.020273
vn 0.018760 0.999561 -0.022936
vn 0.081604 0.996543 -0.015583
vn 0.079002 0.996736 -0.016603
vn 0.079002 0.996736 -0.016603
vn 0.079002 0.996736 -0.016603
vn 0.079002 0.996736 -0.016603
vn -0.000000 -1.000000 0.000000
vn -0.000000 -1.000000 0.000000
vn -0.000000 -1.000000 0.000000
vn -0.000000 -1.000000 0.000000
vn -0.000000 -1.000000 0.000000
vn -0.045010 0.998554 -0.029409
vn -0.050393 0.998445 -0.023846
vn -0.050393 0.998445 -0.023846
vn -0.050393 0.998445 -0.023846
vn -0.050393 0.998445 -0.023846
vn -0.024961 0.999644 -0.009377
vn -0.010095 0.999911 -0.008711
vn -0.006352 0.999085 0.042286
vn -0.014644 0.999046 0.041154
vn -0.024961 0.999645 -0.009377
vn -0.024961 0.999644 -0.009377
vn -0.024961 0.999644 -0.009377
vn 0.000000 -1.000000 -0.000000
vn 0.000000 -1.000000 -0.000000
vn 0.000000 -1.000000 -0.000000
vn 0.000000 -1.000000 -0.000000
vn 0.000000 -1.000000 -0.000000
vn 0.000000 -1.000000 -0.000000
vn 0.000000 -1.000000 -0.000000
vn -0.004096 0.995727 0.092251
vn -0.004467 0.995868 0.090705
vn -0.004467 0.995868 0.090705
vn -0.004467 0.995868 0.090705
vn -0.004467 0.995868 0.090705
vn -0.000000 -1.000000 -0.000000
vn -0.000000 -1.000000 -0.000000
vn -0.000000 -1.000000 -0.000000
vn -0.000000 -1.000000 -0.000000
vn -0.000000 -1.000000 -0.000000
vn 0.090521 0.995872 -0.006730
vn 0.043322 0.999041 0.006365
vn -0.004626 0.999799 0.019511
vn 1.000000 0.000000 0.000571
vn 1.000000 0.000000 0.000768
vn 0.000000 -1.000000 0.000000
vn -0.000000 -1.000000 0.000000
vn -0.000000 -1.000000 0.000000
vn -0.999996 -0.000001 -0.002899
vn -0.999976 -0.000001 -0.006929
s 1
g pCube13
usemtl lambert20SG
f 18/14/1 12/3/2 4/5/3 1/4/4
s 2
f 34/18/5 28/35/6 2/34/7 3/10/8
s 3
f 26/16/9 19/6/10 51/81/11 52/83/12
s 4
f 54/85/13 49/77/14 11/13/15 15/2/16
s 2
f 3/10/8 2/34/7 38/19/17 39/40/18
s 1
f 1/4/4 4/5/3 22/15/19 23/31/20
s 4
f 27/17/21 31/8/22 48/75/23 43/67/24
s 3
f 45/71/25 46/73/26 42/20/27 35/12/28
s 4
f 11/13/15 14/45/29 16/46/30 15/2/16
s off
f 14/45/31 13/43/32 17/47/33 16/46/34
s 1
f 13/43/35 12/3/2 18/14/1 17/47/36
f 22/15/19 21/51/37 24/52/38 23/31/20
s off
f 21/51/39 20/49/40 25/53/41 24/52/42
s 3
f 20/49/43 19/6/10 26/16/9 25/53/44
s 4
f 27/17/21 30/57/45 32/59/46 31/8/22
s off
f 30/56/47 29/55/48 33/60/49 32/58/50
s 2
f 29/55/51 28/35/6 34/18/5 33/60/52
f 38/19/17 37/63/53 40/64/54 39/40/18
s off
f 37/63/55 36/61/56 41/66/57 40/64/58
s 3
f 36/62/59 35/12/28 42/20/27 41/65/60
s 7
usemtl lambert26SG
f 11/21/61 49/78/62 50/79/63 4/22/64 12/23/65 13/42/66 14/44/67
s 8
f 1/4/68 53/84/69 54/86/70 15/26/71 16/46/72 17/47/73 18/14/74
s 7
f 4/22/64 50/79/63 51/80/75 19/29/76 20/48/77 21/50/78 22/30/79
s 8
f 52/82/80 53/84/69 1/4/68 23/31/81 24/52/82 25/54/83 26/32/84
f 27/33/85 43/68/86 44/69/87 2/34/88 28/35/89 29/55/90 30/56/91
s 7
f 3/10/92 47/74/93 48/76/94 31/37/95 32/58/96 33/60/97 34/18/98
s 8
f 2/34/88 44/69/87 45/70/99 35/39/100 36/61/101 37/63/102 38/19/103
s 7
f 46/72/104 47/74/93 3/10/92 39/40/105 40/64/106 41/66/107 42/41/108
s 8
usemtl lambert20SG
f 43/68/86 5/25/109 10/24/110 44/69/87
f 45/70/99 44/69/87 10/24/110 9/38/111
s 3
f 9/7/112 8/11/113 46/73/26 45/71/25
s 7
usemtl lambert26SG
f 8/28/114 7/27/115 47/74/93 46/72/104
f 48/76/94 47/74/93 7/27/115 6/36/116
s 4
usemtl lambert20SG
f 43/67/24 48/75/23 6/1/117 5/9/118
s 7
usemtl lambert26SG
f 49/78/62 6/36/116 7/27/115 50/79/63
f 51/80/75 50/79/63 7/27/115 8/28/114
s 3
usemtl lambert20SG
f 52/83/12 51/81/11 8/11/113 9/7/112
s 8
f 9/38/111 10/24/110 53/84/69 52/82/80
f 54/86/70 53/84/69 10/24/110 5/25/109
s 4
f 6/1/117 49/77/14 54/85/13 5/9/118
