# This file uses centimeters as units for non-parametric coordinates.

mtllib Ropero2.mtl
g default
v -0.829938 2.000000 -0.244372
v 0.829938 2.000000 -0.244372
v -0.829938 0.000000 -0.244372
v 0.829938 0.000000 -0.244372
v -0.829938 0.000000 0.152906
v -0.786842 0.000000 0.197043
v -0.829938 2.000000 0.152906
v -0.786842 2.000000 0.197043
v 0.829938 0.000000 0.152906
v 0.786842 0.000000 0.197043
v 0.829938 2.000000 0.152906
v 0.786842 2.000000 0.197043
v -0.786842 0.132493 0.197043
v 0.786842 0.132493 0.197043
v 0.829938 0.132493 0.152906
v 0.829938 0.132493 -0.244372
v -0.829938 0.132493 -0.244372
v -0.829938 0.132493 0.152906
v -0.786842 0.132493 0.224811
v -0.786842 0.000000 0.224811
v 0.786842 0.000000 0.224811
v 0.786842 0.132493 0.224811
v 0.284325 0.189313 0.237754
v 0.284325 0.207136 0.257329
v 0.265213 0.207136 0.237754
v 0.814518 0.207136 0.237754
v 0.795405 0.207136 0.257329
v 0.795405 0.189313 0.237754
v 0.265213 1.961061 0.237754
v 0.284325 1.961061 0.257329
v 0.284325 1.978884 0.237754
v 0.795405 1.978884 0.237754
v 0.795405 1.961061 0.257329
v 0.814518 1.961061 0.237754
v 0.265213 1.961061 0.081136
v 0.284325 1.978884 0.081136
v 0.284325 1.961061 0.061561
v 0.795405 1.961061 0.061561
v 0.795405 1.978884 0.081136
v 0.814518 1.961061 0.081136
v 0.265213 0.207136 0.081136
v 0.284325 0.207136 0.061561
v 0.284325 0.189313 0.081136
v 0.795405 0.189313 0.081136
v 0.795405 0.207136 0.061561
v 0.814518 0.207136 0.081136
v -0.253513 0.189313 0.237754
v -0.253513 0.207136 0.257329
v -0.272626 0.207136 0.237754
v 0.276679 0.207136 0.237754
v 0.257566 0.207136 0.257329
v 0.257566 0.189313 0.237754
v -0.272626 1.961061 0.237754
v -0.253513 1.961061 0.257329
v -0.253513 1.978884 0.237754
v 0.257566 1.978884 0.237754
v 0.257566 1.961061 0.257329
v 0.276679 1.961061 0.237754
v -0.272626 1.961061 0.081136
v -0.253513 1.978884 0.081136
v -0.253513 1.961061 0.061561
v 0.257566 1.961061 0.061561
v 0.257566 1.978884 0.081136
v 0.276679 1.961061 0.081136
v -0.272626 0.207136 0.081136
v -0.253513 0.207136 0.061561
v -0.253513 0.189313 0.081136
v 0.257566 0.189313 0.081136
v 0.257566 0.207136 0.061561
v 0.276679 0.207136 0.081136
v -0.795328 0.189313 0.237754
v -0.795328 0.207136 0.257329
v -0.814441 0.207136 0.237754
v -0.265136 0.207136 0.237754
v -0.284249 0.207136 0.257329
v -0.284249 0.189313 0.237754
v -0.814441 1.961061 0.237754
v -0.795328 1.961061 0.257329
v -0.795328 1.978884 0.237754
v -0.284249 1.978884 0.237754
v -0.284249 1.961061 0.257329
v -0.265136 1.961061 0.237754
v -0.814441 1.961061 0.081136
v -0.795328 1.978884 0.081136
v -0.795328 1.961061 0.061561
v -0.284249 1.961061 0.061561
v -0.284249 1.978884 0.081136
v -0.265136 1.961061 0.081136
v -0.814441 0.207136 0.081136
v -0.795328 0.207136 0.061561
v -0.795328 0.189313 0.081136
v -0.284249 0.189313 0.081136
v -0.284249 0.207136 0.061561
v -0.265136 0.207136 0.081136
vt 0.625000 0.500000
vt 0.375000 0.750000
vt 0.625000 0.750000
vt 0.625000 0.975002
vt 0.618509 1.000000
vt 0.381491 1.000000
vt 0.375000 0.975002
vt 0.375000 0.274997
vt 0.625000 0.274997
vt 0.375000 0.500000
vt 0.125000 0.000000
vt 0.350003 0.000000
vt 0.125000 0.250000
vt 0.381491 0.250000
vt 0.618509 0.000000
vt 0.649997 0.250000
vt 0.875000 0.000000
vt 0.875000 0.250000
vt 0.381491 0.000000
vt 0.350002 0.250000
vt 0.649997 0.000000
vt 0.618509 0.250000
vt 0.381491 0.016562
vt 0.618509 0.016562
vt 0.649997 0.016562
vt 0.625000 0.733438
vt 0.875000 0.016562
vt 0.125000 0.016562
vt 0.375000 0.733438
vt 0.350003 0.016562
vt 0.381491 0.016562
vt 0.381491 0.000000
vt 0.618509 0.000000
vt 0.618509 0.016562
vt 0.383699 0.975003
vt 0.375000 0.975003
vt 0.375000 0.774997
vt 0.383699 0.774997
vt 0.383699 0.002490
vt 0.383699 0.000000
vt 0.616301 0.000000
vt 0.616301 0.002490
vt 0.350002 0.002490
vt 0.383699 0.247510
vt 0.350002 0.247510
vt 0.625000 0.975003
vt 0.616301 0.975003
vt 0.616301 0.774997
vt 0.625000 0.774997
vt 0.649997 0.002490
vt 0.649997 0.247510
vt 0.616301 0.247510
vt 0.375000 0.274998
vt 0.383699 0.274998
vt 0.383699 0.475002
vt 0.375000 0.475002
vt 0.616301 0.274998
vt 0.625000 0.274998
vt 0.625000 0.475002
vt 0.616301 0.475002
vt 0.375000 0.502490
vt 0.383699 0.502490
vt 0.383699 0.747510
vt 0.375000 0.747510
vt 0.616301 0.502490
vt 0.625000 0.502490
vt 0.625000 0.747510
vt 0.616301 0.747510
vt 0.850002 0.002490
vt 0.850002 0.247510
vt 0.149997 0.002490
vt 0.149998 0.247510
vt 0.383699 0.975003
vt 0.375000 0.975003
vt 0.375000 0.774997
vt 0.383699 0.774997
vt 0.383699 0.002490
vt 0.383699 0.000000
vt 0.616301 0.000000
vt 0.616301 0.002490
vt 0.350002 0.002490
vt 0.383699 0.247510
vt 0.350002 0.247510
vt 0.625000 0.975003
vt 0.616301 0.975003
vt 0.616301 0.774997
vt 0.625000 0.774997
vt 0.649997 0.002490
vt 0.649997 0.247510
vt 0.616301 0.247510
vt 0.375000 0.274998
vt 0.383699 0.274998
vt 0.383699 0.475002
vt 0.375000 0.475002
vt 0.616301 0.274998
vt 0.625000 0.274998
vt 0.625000 0.475002
vt 0.616301 0.475002
vt 0.375000 0.502490
vt 0.383699 0.502490
vt 0.383699 0.747510
vt 0.375000 0.747510
vt 0.616301 0.502490
vt 0.625000 0.502490
vt 0.625000 0.747510
vt 0.616301 0.747510
vt 0.850002 0.002490
vt 0.850002 0.247510
vt 0.149997 0.002490
vt 0.149998 0.247510
vt 0.383699 0.975003
vt 0.375000 0.975003
vt 0.375000 0.774997
vt 0.383699 0.774997
vt 0.383699 0.002490
vt 0.383699 0.000000
vt 0.616301 0.000000
vt 0.616301 0.002490
vt 0.350002 0.002490
vt 0.383699 0.247510
vt 0.350002 0.247510
vt 0.625000 0.975003
vt 0.616301 0.975003
vt 0.616301 0.774997
vt 0.625000 0.774997
vt 0.649997 0.002490
vt 0.649997 0.247510
vt 0.616301 0.247510
vt 0.375000 0.274998
vt 0.383699 0.274998
vt 0.383699 0.475002
vt 0.375000 0.475002
vt 0.616301 0.274998
vt 0.625000 0.274998
vt 0.625000 0.475002
vt 0.616301 0.475002
vt 0.375000 0.502490
vt 0.383699 0.502490
vt 0.383699 0.747510
vt 0.375000 0.747510
vt 0.616301 0.502490
vt 0.625000 0.502490
vt 0.625000 0.747510
vt 0.616301 0.747510
vt 0.850002 0.002490
vt 0.850002 0.247510
vt 0.149997 0.002490
vt 0.149998 0.247510
vn 0.000000 0.000000 1.000000
vn 0.000000 0.000000 1.000000
vn 0.000000 0.000000 1.000000
vn 0.000000 0.000000 1.000000
vn 0.000000 0.000000 -1.000000
vn 0.000000 0.000000 -1.000000
vn 0.000000 0.000000 -1.000000
vn 0.000000 0.000000 -1.000000
vn 0.000000 -1.000000 0.000000
vn 0.000000 -1.000000 0.000000
vn 0.000000 -1.000000 0.000000
vn 0.000000 -1.000000 0.000000
vn 0.000000 -1.000000 0.000000
vn 0.000000 -1.000000 0.000000
vn 1.000000 0.000000 0.000000
vn 1.000000 0.000000 0.000000
vn 1.000000 0.000000 0.000000
vn 1.000000 0.000000 0.000000
vn -1.000000 0.000000 0.000000
vn -1.000000 0.000000 0.000000
vn -1.000000 0.000000 0.000000
vn -1.000000 0.000000 0.000000
vn 0.000000 1.000000 0.000000
vn 0.000000 1.000000 0.000000
vn 0.000000 1.000000 0.000000
vn 0.000000 1.000000 0.000000
vn 0.000000 1.000000 0.000000
vn 0.000000 1.000000 0.000000
vn -0.715500 0.000000 0.698612
vn -0.715500 0.000000 0.698612
vn -0.715500 0.000000 0.698612
vn -0.715500 0.000000 0.698612
vn 0.715500 0.000000 0.698612
vn 0.715500 0.000000 0.698612
vn 0.715500 0.000000 0.698612
vn 0.715500 0.000000 0.698612
vn 0.000000 0.000000 1.000000
vn 0.000000 0.000000 1.000000
vn 0.000000 0.000000 1.000000
vn 0.000000 0.000000 1.000000
vn 0.715500 0.000000 0.698612
vn 0.715500 0.000000 0.698612
vn 1.000000 0.000000 0.000000
vn 1.000000 0.000000 0.000000
vn 0.000000 0.000000 -1.000000
vn 0.000000 0.000000 -1.000000
vn -1.000000 0.000000 0.000000
vn -1.000000 0.000000 0.000000
vn -0.715500 0.000000 0.698612
vn -0.715500 0.000000 0.698612
vn -1.000000 0.000000 0.000000
vn -1.000000 0.000000 0.000000
vn -1.000000 0.000000 0.000000
vn -1.000000 0.000000 0.000000
vn 0.000000 -1.000000 0.000000
vn 0.000000 -1.000000 0.000000
vn 1.000000 0.000000 0.000000
vn 1.000000 0.000000 0.000000
vn 1.000000 0.000000 0.000000
vn 1.000000 0.000000 0.000000
vn 0.000000 1.000000 0.000000
vn 0.000000 1.000000 0.000000
vn 0.000000 1.000000 0.000000
vn 0.000000 1.000000 0.000000
vn -0.681993 -0.731359 0.000000
vn -0.681993 -0.731359 0.000000
vn -0.681993 -0.731359 0.000000
vn -0.681993 -0.731359 0.000000
vn 0.000000 -0.739422 0.673243
vn 0.000000 -0.739422 0.673243
vn 0.000000 -0.739422 0.673243
vn 0.000000 -0.739422 0.673243
vn -0.715497 0.000000 0.698616
vn -0.715497 0.000000 0.698616
vn -0.715497 0.000000 0.698616
vn -0.715497 0.000000 0.698616
vn 0.681995 -0.731357 0.000000
vn 0.681995 -0.731357 0.000000
vn 0.681995 -0.731357 0.000000
vn 0.681995 -0.731357 0.000000
vn 0.715500 0.000000 0.698613
vn 0.715500 0.000000 0.698613
vn 0.715500 0.000000 0.698613
vn 0.715500 0.000000 0.698613
vn -0.681989 0.731362 0.000000
vn -0.681989 0.731362 0.000000
vn -0.681989 0.731362 0.000000
vn -0.681989 0.731362 0.000000
vn 0.000000 0.739425 0.673239
vn 0.000000 0.739425 0.673239
vn 0.000000 0.739425 0.673239
vn 0.000000 0.739425 0.673239
vn 0.681991 0.731360 0.000000
vn 0.681991 0.731360 0.000000
vn 0.681991 0.731360 0.000000
vn 0.681991 0.731360 0.000000
vn -0.715498 0.000000 -0.698615
vn -0.715498 0.000000 -0.698615
vn -0.715498 0.000000 -0.698615
vn -0.715498 0.000000 -0.698615
vn 0.000000 0.739426 -0.673238
vn 0.000000 0.739426 -0.673238
vn 0.000000 0.739426 -0.673238
vn 0.000000 0.739426 -0.673238
vn 0.715501 0.000000 -0.698612
vn 0.715501 0.000000 -0.698612
vn 0.715501 0.000000 -0.698612
vn 0.715501 0.000000 -0.698612
vn 0.000000 -0.739423 -0.673242
vn 0.000000 -0.739423 -0.673242
vn 0.000000 -0.739423 -0.673242
vn 0.000000 -0.739423 -0.673242
vn 0.000000 0.000000 1.000000
vn 0.000000 0.000000 1.000000
vn 0.000000 0.000000 1.000000
vn 0.000000 0.000000 1.000000
vn 0.000000 1.000000 0.000000
vn 0.000000 1.000000 0.000000
vn 0.000000 1.000000 0.000000
vn 0.000000 1.000000 0.000000
vn 0.000000 0.000000 -1.000000
vn 0.000000 0.000000 -1.000000
vn 0.000000 0.000000 -1.000000
vn 0.000000 0.000000 -1.000000
vn 0.000000 -1.000000 0.000000
vn 0.000000 -1.000000 0.000000
vn 0.000000 -1.000000 0.000000
vn 0.000000 -1.000000 0.000000
vn 1.000000 0.000000 0.000000
vn 1.000000 0.000000 0.000000
vn 1.000000 0.000000 0.000000
vn 1.000000 0.000000 0.000000
vn -1.000000 0.000000 0.000000
vn -1.000000 0.000000 0.000000
vn -1.000000 0.000000 0.000000
vn -1.000000 0.000000 0.000000
vn -0.567653 -0.608742 0.554260
vn -0.567653 -0.608742 0.554260
vn -0.567653 -0.608741 0.554260
vn 0.567654 -0.608744 0.554257
vn 0.567654 -0.608744 0.554257
vn 0.567654 -0.608744 0.554257
vn -0.567652 0.608746 0.554256
vn -0.567652 0.608746 0.554256
vn -0.567652 0.608746 0.554256
vn 0.567651 0.608747 0.554255
vn 0.567651 0.608747 0.554255
vn 0.567651 0.608747 0.554255
vn -0.567653 0.608747 -0.554255
vn -0.567653 0.608747 -0.554255
vn -0.567653 0.608747 -0.554255
vn 0.567654 0.608745 -0.554256
vn 0.567654 0.608745 -0.554256
vn 0.567654 0.608745 -0.554256
vn -0.567654 -0.608742 -0.554259
vn -0.567654 -0.608742 -0.554259
vn -0.567654 -0.608742 -0.554259
vn 0.567656 -0.608741 -0.554257
vn 0.567656 -0.608741 -0.554257
vn 0.567656 -0.608741 -0.554257
vn -0.681993 -0.731359 0.000000
vn -0.681993 -0.731359 0.000000
vn -0.681993 -0.731359 0.000000
vn -0.681993 -0.731359 0.000000
vn 0.000000 -0.739422 0.673243
vn 0.000000 -0.739422 0.673243
vn 0.000000 -0.739422 0.673243
vn 0.000000 -0.739422 0.673243
vn -0.715497 0.000000 0.698616
vn -0.715497 0.000000 0.698616
vn -0.715497 0.000000 0.698616
vn -0.715497 0.000000 0.698616
vn 0.681995 -0.731357 0.000000
vn 0.681995 -0.731357 0.000000
vn 0.681995 -0.731357 0.000000
vn 0.681995 -0.731357 0.000000
vn 0.715499 0.000000 0.698614
vn 0.715499 0.000000 0.698614
vn 0.715499 0.000000 0.698614
vn 0.715499 0.000000 0.698614
vn -0.681989 0.731362 0.000000
vn -0.681989 0.731362 0.000000
vn -0.681989 0.731362 0.000000
vn -0.681989 0.731362 0.000000
vn 0.000000 0.739425 0.673239
vn 0.000000 0.739425 0.673239
vn 0.000000 0.739425 0.673239
vn 0.000000 0.739425 0.673239
vn 0.681991 0.731360 0.000000
vn 0.681991 0.731360 0.000000
vn 0.681991 0.731360 0.000000
vn 0.681991 0.731360 0.000000
vn -0.715498 0.000000 -0.698615
vn -0.715498 0.000000 -0.698615
vn -0.715498 0.000000 -0.698615
vn -0.715498 0.000000 -0.698615
vn 0.000000 0.739426 -0.673238
vn 0.000000 0.739426 -0.673238
vn 0.000000 0.739426 -0.673238
vn 0.000000 0.739426 -0.673238
vn 0.715500 0.000000 -0.698613
vn 0.715500 0.000000 -0.698613
vn 0.715500 0.000000 -0.698613
vn 0.715500 0.000000 -0.698613
vn 0.000000 -0.739423 -0.673242
vn 0.000000 -0.739423 -0.673242
vn 0.000000 -0.739423 -0.673242
vn 0.000000 -0.739423 -0.673242
vn 0.000000 0.000000 1.000000
vn 0.000000 0.000000 1.000000
vn 0.000000 0.000000 1.000000
vn 0.000000 0.000000 1.000000
vn 0.000000 1.000000 0.000000
vn 0.000000 1.000000 0.000000
vn 0.000000 1.000000 0.000000
vn 0.000000 1.000000 0.000000
vn 0.000000 0.000000 -1.000000
vn 0.000000 0.000000 -1.000000
vn 0.000000 0.000000 -1.000000
vn 0.000000 0.000000 -1.000000
vn 0.000000 -1.000000 0.000000
vn 0.000000 -1.000000 0.000000
vn 0.000000 -1.000000 0.000000
vn 0.000000 -1.000000 0.000000
vn 1.000000 0.000000 0.000000
vn 1.000000 0.000000 0.000000
vn 1.000000 0.000000 0.000000
vn 1.000000 0.000000 0.000000
vn -1.000000 0.000000 0.000000
vn -1.000000 0.000000 0.000000
vn -1.000000 0.000000 0.000000
vn -1.000000 0.000000 0.000000
vn -0.567653 -0.608742 0.554260
vn -0.567653 -0.608742 0.554260
vn -0.567653 -0.608741 0.554260
vn 0.567655 -0.608741 0.554259
vn 0.567655 -0.608741 0.554259
vn 0.567655 -0.608741 0.554259
vn -0.567652 0.608746 0.554256
vn -0.567652 0.608746 0.554256
vn -0.567652 0.608746 0.554256
vn 0.567656 0.608749 0.554248
vn 0.567656 0.608749 0.554248
vn 0.567656 0.608749 0.554248
vn -0.567652 0.608748 -0.554254
vn -0.567652 0.608748 -0.554254
vn -0.567652 0.608748 -0.554254
vn 0.567657 0.608749 -0.554247
vn 0.567657 0.608749 -0.554247
vn 0.567657 0.608749 -0.554247
vn -0.567653 -0.608743 -0.554258
vn -0.567653 -0.608743 -0.554258
vn -0.567653 -0.608743 -0.554258
vn 0.567656 -0.608741 -0.554258
vn 0.567656 -0.608741 -0.554258
vn 0.567656 -0.608741 -0.554258
vn -0.681991 -0.731360 0.000000
vn -0.681991 -0.731360 0.000000
vn -0.681991 -0.731360 0.000000
vn -0.681991 -0.731360 0.000000
vn 0.000000 -0.739422 0.673243
vn 0.000000 -0.739422 0.673243
vn 0.000000 -0.739422 0.673243
vn 0.000000 -0.739422 0.673243
vn -0.715496 0.000000 0.698617
vn -0.715496 0.000000 0.698617
vn -0.715496 0.000000 0.698617
vn -0.715496 0.000000 0.698617
vn 0.681994 -0.731357 0.000000
vn 0.681994 -0.731357 0.000000
vn 0.681994 -0.731357 0.000000
vn 0.681994 -0.731357 0.000000
vn 0.715499 0.000000 0.698614
vn 0.715499 0.000000 0.698614
vn 0.715499 0.000000 0.698614
vn 0.715499 0.000000 0.698614
vn -0.681988 0.731364 0.000000
vn -0.681988 0.731364 0.000000
vn -0.681988 0.731364 0.000000
vn -0.681988 0.731364 0.000000
vn 0.000000 0.739425 0.673239
vn 0.000000 0.739425 0.673239
vn 0.000000 0.739425 0.673239
vn 0.000000 0.739425 0.673239
vn 0.681991 0.731361 0.000000
vn 0.681991 0.731361 0.000000
vn 0.681991 0.731361 0.000000
vn 0.681991 0.731361 0.000000
vn -0.715497 0.000000 -0.698615
vn -0.715497 0.000000 -0.698615
vn -0.715497 0.000000 -0.698615
vn -0.715497 0.000000 -0.698615
vn 0.000000 0.739426 -0.673238
vn 0.000000 0.739426 -0.673238
vn 0.000000 0.739426 -0.673238
vn 0.000000 0.739426 -0.673238
vn 0.715500 0.000000 -0.698613
vn 0.715500 0.000000 -0.698613
vn 0.715500 0.000000 -0.698613
vn 0.715500 0.000000 -0.698613
vn 0.000000 -0.739423 -0.673242
vn 0.000000 -0.739423 -0.673242
vn 0.000000 -0.739423 -0.673242
vn 0.000000 -0.739423 -0.673242
vn 0.000000 0.000000 1.000000
vn 0.000000 0.000000 1.000000
vn 0.000000 0.000000 1.000000
vn 0.000000 0.000000 1.000000
vn 0.000000 1.000000 0.000000
vn 0.000000 1.000000 0.000000
vn 0.000000 1.000000 0.000000
vn 0.000000 1.000000 0.000000
vn 0.000000 0.000000 -1.000000
vn 0.000000 0.000000 -1.000000
vn 0.000000 0.000000 -1.000000
vn 0.000000 0.000000 -1.000000
vn 0.000000 -1.000000 0.000000
vn 0.000000 -1.000000 0.000000
vn 0.000000 -1.000000 0.000000
vn 0.000000 -1.000000 0.000000
vn 1.000000 0.000000 0.000000
vn 1.000000 0.000000 0.000000
vn 1.000000 0.000000 0.000000
vn 1.000000 0.000000 0.000000
vn -1.000000 0.000000 0.000000
vn -1.000000 0.000000 0.000000
vn -1.000000 0.000000 0.000000
vn -1.000000 0.000000 0.000000
vn -0.567653 -0.608740 0.554261
vn -0.567653 -0.608740 0.554261
vn -0.567653 -0.608740 0.554261
vn 0.567655 -0.608742 0.554258
vn 0.567655 -0.608742 0.554258
vn 0.567654 -0.608742 0.554258
vn -0.567652 0.608746 0.554256
vn -0.567652 0.608746 0.554256
vn -0.567652 0.608746 0.554256
vn 0.567656 0.608750 0.554248
vn 0.567656 0.608750 0.554248
vn 0.567656 0.608750 0.554248
vn -0.567652 0.608748 -0.554254
vn -0.567652 0.608748 -0.554254
vn -0.567651 0.608749 -0.554254
vn 0.567657 0.608750 -0.554247
vn 0.567657 0.608750 -0.554247
vn 0.567657 0.608750 -0.554247
vn -0.567652 -0.608744 -0.554258
vn -0.567652 -0.608744 -0.554258
vn -0.567652 -0.608744 -0.554258
vn 0.567655 -0.608742 -0.554257
vn 0.567655 -0.608742 -0.554257
vn 0.567655 -0.608742 -0.554257
s off
g pasted__group94_pasted__pCube1 group95
usemtl lambert14SG
f 8/14/1 13/23/2 14/24/3 12/22/4
s 1
f 1/10/5 2/1/6 16/26/7 17/29/8
s 2
f 3/2/9 4/3/10 9/4/11 10/5/12 6/6/13 5/7/14
s 3
f 11/16/15 15/25/16 16/27/17 2/18/18
s 4
f 17/28/19 18/30/20 7/20/21 1/13/22
s off
f 7/8/23 8/14/24 12/22/25 11/9/26 2/1/27 1/10/28
s 5
f 18/30/29 13/23/30 8/14/31 7/20/32
s 6
f 14/24/33 15/25/34 11/16/35 12/22/36
s off
f 19/31/37 20/32/38 21/33/39 22/34/40
s 6
f 10/15/41 9/21/42 15/25/34 14/24/33
s 3
f 16/27/17 15/25/16 9/21/43 4/17/44
s 1
f 17/29/8 16/26/7 4/3/45 3/2/46
s 4
f 3/11/47 5/12/48 18/30/20 17/28/19
s 5
f 5/12/49 6/19/50 13/23/30 18/30/29
s off
f 13/23/51 6/19/52 20/32/53 19/31/54
s 2
f 6/19/13 10/15/12 21/33/55 20/32/56
s off
f 10/15/57 14/24/58 22/34/59 21/33/60
f 14/24/61 13/23/62 19/31/63 22/34/64
f 23/35/65 25/36/66 41/37/67 43/38/68
f 24/39/69 23/40/70 28/41/71 27/42/72
f 25/43/73 24/39/74 30/44/75 29/45/76
f 26/46/77 28/47/78 44/48/79 46/49/80
f 27/42/81 26/50/82 34/51/83 33/52/84
f 29/53/85 31/54/86 36/55/87 35/56/88
f 31/54/89 30/44/90 33/52/91 32/57/92
f 32/57/93 34/58/94 40/59/95 39/60/96
f 35/61/97 37/62/98 42/63/99 41/64/100
f 37/62/101 36/55/102 39/60/103 38/65/104
f 38/65/105 40/66/106 46/67/107 45/68/108
f 43/38/109 42/63/110 45/68/111 44/48/112
f 24/39/113 27/42/114 33/52/115 30/44/116
f 31/54/117 32/57/118 39/60/119 36/55/120
f 37/62/121 38/65/122 45/68/123 42/63/124
f 43/38/125 44/48/126 28/47/127 23/35/128
f 26/50/129 46/69/130 40/70/131 34/51/132
f 41/71/133 25/43/134 29/45/135 35/72/136
f 23/40/137 24/39/138 25/43/139
f 26/50/140 27/42/141 28/41/142
f 29/45/143 30/44/144 31/54/145
f 32/57/146 33/52/147 34/51/148
f 35/56/149 36/55/150 37/62/151
f 38/65/152 39/60/153 40/59/154
f 41/64/155 42/63/156 43/38/157
f 44/48/158 45/68/159 46/67/160
f 47/73/161 49/74/162 65/75/163 67/76/164
f 48/77/165 47/78/166 52/79/167 51/80/168
f 49/81/169 48/77/170 54/82/171 53/83/172
f 50/84/173 52/85/174 68/86/175 70/87/176
f 51/80/177 50/88/178 58/89/179 57/90/180
f 53/91/181 55/92/182 60/93/183 59/94/184
f 55/92/185 54/82/186 57/90/187 56/95/188
f 56/95/189 58/96/190 64/97/191 63/98/192
f 59/99/193 61/100/194 66/101/195 65/102/196
f 61/100/197 60/93/198 63/98/199 62/103/200
f 62/103/201 64/104/202 70/105/203 69/106/204
f 67/76/205 66/101/206 69/106/207 68/86/208
f 48/77/209 51/80/210 57/90/211 54/82/212
f 55/92/213 56/95/214 63/98/215 60/93/216
f 61/100/217 62/103/218 69/106/219 66/101/220
f 67/76/221 68/86/222 52/85/223 47/73/224
f 50/88/225 70/107/226 64/108/227 58/89/228
f 65/109/229 49/81/230 53/83/231 59/110/232
f 47/78/233 48/77/234 49/81/235
f 50/88/236 51/80/237 52/79/238
f 53/83/239 54/82/240 55/92/241
f 56/95/242 57/90/243 58/89/244
f 59/94/245 60/93/246 61/100/247
f 62/103/248 63/98/249 64/97/250
f 65/102/251 66/101/252 67/76/253
f 68/86/254 69/106/255 70/105/256
f 71/111/257 73/112/258 89/113/259 91/114/260
f 72/115/261 71/116/262 76/117/263 75/118/264
f 73/119/265 72/115/266 78/120/267 77/121/268
f 74/122/269 76/123/270 92/124/271 94/125/272
f 75/118/273 74/126/274 82/127/275 81/128/276
f 77/129/277 79/130/278 84/131/279 83/132/280
f 79/130/281 78/120/282 81/128/283 80/133/284
f 80/133/285 82/134/286 88/135/287 87/136/288
f 83/137/289 85/138/290 90/139/291 89/140/292
f 85/138/293 84/131/294 87/136/295 86/141/296
f 86/141/297 88/142/298 94/143/299 93/144/300
f 91/114/301 90/139/302 93/144/303 92/124/304
f 72/115/305 75/118/306 81/128/307 78/120/308
f 79/130/309 80/133/310 87/136/311 84/131/312
f 85/138/313 86/141/314 93/144/315 90/139/316
f 91/114/317 92/124/318 76/123/319 71/111/320
f 74/126/321 94/145/322 88/146/323 82/127/324
f 89/147/325 73/119/326 77/121/327 83/148/328
f 71/116/329 72/115/330 73/119/331
f 74/126/332 75/118/333 76/117/334
f 77/121/335 78/120/336 79/130/337
f 80/133/338 81/128/339 82/127/340
f 83/132/341 84/131/342 85/138/343
f 86/141/344 87/136/345 88/135/346
f 89/140/347 90/139/348 91/114/349
f 92/124/350 93/144/351 94/143/352
