# This file uses centimeters as units for non-parametric coordinates.

mtllib Sillon.mtl
g default
v -0.417494 0.358139 0.426319
v -0.417494 0.358139 -0.423682
v -0.417494 0.909770 0.426319
v -0.405711 0.938217 0.414536
v -0.377264 0.950000 0.386089
v -0.268341 0.938217 0.386089
v -0.296788 0.950000 0.386089
v -0.296788 0.938217 0.414536
v -0.296788 0.909770 0.426319
v -0.268341 0.909770 0.414536
v -0.256558 0.909770 0.386089
v -0.377264 0.950000 -0.383452
v -0.405711 0.938217 -0.411898
v -0.417494 0.909770 -0.423682
v -0.268341 0.909770 -0.411898
v -0.296788 0.909770 -0.423682
v -0.296788 0.938217 -0.411898
v -0.296788 0.950000 -0.383452
v -0.268341 0.938217 -0.383452
v -0.256558 0.909770 -0.383452
v -0.256558 0.358139 0.386089
v -0.268341 0.358139 0.414536
v -0.296788 0.358139 0.426319
v -0.256558 0.358139 -0.383452
v -0.296788 0.358139 -0.423682
v -0.268341 0.358139 -0.411898
v -0.273570 0.932989 0.409307
v -0.273570 0.932989 -0.406670
v -0.424941 0.064409 0.426319
v 0.375634 0.064409 0.426319
v -0.424941 0.476761 0.426319
v -0.424941 0.476761 -0.423682
v -0.424941 0.064409 -0.423682
v 0.375634 0.064409 -0.423682
v 0.363558 0.464684 0.426319
v 0.334403 0.476761 0.426319
v 0.375635 0.435530 0.426319
v 0.375635 0.435530 -0.423682
v 0.334403 0.476761 -0.423682
v 0.363558 0.464684 -0.423682
v -0.425000 0.000000 0.423411
v -0.425000 0.000000 0.286626
v -0.425000 0.706738 0.389218
v -0.425000 0.660323 0.423411
v -0.425000 0.683530 0.418830
v -0.425000 0.700519 0.406315
v 0.418782 0.683530 0.389218
v 0.401793 0.700519 0.389218
v 0.378585 0.706738 0.389218
v 0.378585 0.700519 0.406315
v 0.378585 0.683530 0.418830
v 0.378585 0.660323 0.423411
v 0.401793 0.660323 0.418830
v 0.418782 0.660323 0.406315
v 0.425000 0.660323 0.389218
v -0.425000 0.660323 0.286626
v -0.425000 0.706738 0.320819
v -0.425000 0.700519 0.303723
v -0.425000 0.683530 0.291207
v 0.418782 0.660323 0.303723
v 0.401793 0.660323 0.291207
v 0.378585 0.660323 0.286626
v 0.378585 0.683530 0.291207
v 0.378585 0.700519 0.303723
v 0.378585 0.706738 0.320819
v 0.401793 0.700519 0.320819
v 0.418782 0.683530 0.320819
v 0.425000 0.660323 0.320819
v 0.425000 0.000000 0.389218
v 0.418782 0.000000 0.406315
v 0.401793 0.000000 0.418830
v 0.378585 0.000000 0.423411
v 0.425000 0.000000 0.320819
v 0.378585 0.000000 0.286626
v 0.401793 0.000000 0.291207
v 0.418782 0.000000 0.303723
v 0.415291 0.680378 0.403992
v 0.398640 0.697029 0.403992
v 0.398640 0.680378 0.416259
v 0.415291 0.680378 0.306045
v 0.398640 0.680378 0.293778
v 0.398640 0.697029 0.306045
v -0.425000 0.000000 -0.289534
v -0.425000 0.000000 -0.426319
v -0.425000 0.706738 -0.323727
v -0.425000 0.660323 -0.289534
v -0.425000 0.683530 -0.294115
v -0.425000 0.700519 -0.306630
v 0.418782 0.683530 -0.323727
v 0.401793 0.700519 -0.323727
v 0.378585 0.706738 -0.323727
v 0.378585 0.700519 -0.306630
v 0.378585 0.683530 -0.294115
v 0.378585 0.660323 -0.289534
v 0.401793 0.660323 -0.294115
v 0.418782 0.660323 -0.306630
v 0.425000 0.660323 -0.323727
v -0.425000 0.660323 -0.426319
v -0.425000 0.706738 -0.392126
v -0.425000 0.700519 -0.409222
v -0.425000 0.683530 -0.421738
v 0.418782 0.660323 -0.409222
v 0.401793 0.660323 -0.421738
v 0.378585 0.660323 -0.426319
v 0.378585 0.683530 -0.421738
v 0.378585 0.700519 -0.409222
v 0.378585 0.706738 -0.392126
v 0.401793 0.700519 -0.392126
v 0.418782 0.683530 -0.392126
v 0.425000 0.660323 -0.392126
v 0.425000 0.000000 -0.323727
v 0.418782 0.000000 -0.306630
v 0.401793 0.000000 -0.294115
v 0.378585 0.000000 -0.289534
v 0.425000 0.000000 -0.392126
v 0.378585 0.000000 -0.426319
v 0.401793 0.000000 -0.421738
v 0.418782 0.000000 -0.409222
v 0.415291 0.680378 -0.308952
v 0.398640 0.697029 -0.308952
v 0.398640 0.680378 -0.296686
v 0.415291 0.680378 -0.406900
v 0.398640 0.680378 -0.419166
v 0.398640 0.697029 -0.406900
vt 0.636832 0.000000
vt 0.562506 0.239413
vt 0.562506 0.000000
vt 0.375000 0.510587
vt 0.437494 0.488168
vt 0.562506 0.488168
vt 0.562506 0.750000
vt 0.863168 0.239413
vt 0.863168 0.000000
vt 0.375000 0.239413
vt 0.437494 0.261832
vt 0.562506 0.261832
vt 0.562506 0.510587
vt 0.375000 0.750000
vt 0.636832 0.239413
vt 0.125000 0.000000
vt 0.375000 0.000000
vt 0.125000 0.239413
vt 0.625000 0.761832
vt 0.625000 0.988168
vt 0.562506 1.000000
vt 0.375000 1.000000
vt 0.375000 0.250000
vt 0.625000 0.260798
vt 0.635798 0.250000
vt 0.564182 0.250193
vt 0.620441 0.240569
vt 0.125000 0.250000
vt 0.375000 0.500000
vt 0.625000 0.510292
vt 0.875000 0.239708
vt 0.564182 0.499807
vt 0.864202 0.250000
vt 0.625000 0.489202
vt 0.625000 0.000000
vt 0.625000 1.000000
vt 0.875000 0.000000
vt 0.625000 0.750000
vt 0.625000 0.250000
vt 0.625000 0.500000
vt 0.875000 0.250000
vt 0.375000 0.250000
vt 0.612125 0.250000
vt 0.612125 0.500000
vt 0.375000 0.500000
vt 0.375000 0.750000
vt 0.625000 0.750000
vt 0.625000 1.000000
vt 0.375000 1.000000
vt 0.625000 0.000000
vt 0.875000 0.000000
vt 0.875000 0.225003
vt 0.625000 0.225002
vt 0.125000 0.000000
vt 0.375000 0.000000
vt 0.125000 0.250000
vt 0.625000 0.250000
vt 0.625000 0.500000
vt 0.875000 0.250000
vt 0.625000 0.524997
vt 0.375000 0.312494
vt 0.375000 0.250000
vt 0.611245 0.265588
vt 0.611349 0.312494
vt 0.375000 0.234794
vt 0.611034 0.238754
vt 0.375000 0.228032
vt 0.611349 0.228032
vt 0.618329 0.299781
vt 0.618326 0.450216
vt 0.611349 0.437506
vt 0.625000 0.287741
vt 0.625000 0.462259
vt 0.662741 0.250000
vt 0.687494 0.228032
vt 0.812506 0.228032
vt 0.837259 0.250000
vt 0.634189 0.234030
vt 0.651116 0.000000
vt 0.687494 0.000000
vt 0.617769 0.228582
vt 0.623903 0.000000
vt 0.611349 0.000000
vt 0.375000 0.521968
vt 0.375000 0.508493
vt 0.610732 0.511115
vt 0.611349 0.521968
vt 0.375000 0.478189
vt 0.611121 0.484210
vt 0.375000 0.437506
vt 0.614993 0.520365
vt 0.615659 0.750000
vt 0.611349 0.750000
vt 0.625000 0.512814
vt 0.625000 0.750000
vt 0.875000 0.237186
vt 0.812506 0.000000
vt 0.875000 0.000000
vt 0.375000 0.000000
vt 0.375000 0.750000
vt 0.125000 0.228032
vt 0.125000 0.000000
vt 0.312506 0.250000
vt 0.187494 0.250000
vt -0.000000 -0.000000
vt -0.000000 -0.000000
vt 0.625000 0.812494
vt 0.625000 0.937506
vt -0.000000 -0.000000
vt -0.000000 -0.000000
vt 0.611349 1.000000
vt 0.375000 1.000000
vt 0.625000 0.250000
vt 0.617802 0.261650
vt 0.615762 0.237877
vt 0.875000 0.250000
vt 0.625000 0.500000
vt 0.614410 0.512276
vt 0.617516 0.488067
vt 0.375000 0.312494
vt 0.375000 0.250000
vt 0.611245 0.265588
vt 0.611349 0.312494
vt 0.375000 0.234794
vt 0.611034 0.238754
vt 0.375000 0.228032
vt 0.611349 0.228032
vt 0.618329 0.299781
vt 0.618326 0.450216
vt 0.611349 0.437506
vt 0.625000 0.287741
vt 0.625000 0.462259
vt 0.662741 0.250000
vt 0.687494 0.228032
vt 0.812506 0.228032
vt 0.837259 0.250000
vt 0.634189 0.234030
vt 0.651116 0.000000
vt 0.687494 0.000000
vt 0.617769 0.228582
vt 0.623903 0.000000
vt 0.611349 0.000000
vt 0.375000 0.521968
vt 0.375000 0.508493
vt 0.610732 0.511115
vt 0.611349 0.521968
vt 0.375000 0.478189
vt 0.611121 0.484210
vt 0.375000 0.437506
vt 0.614993 0.520365
vt 0.615659 0.750000
vt 0.611349 0.750000
vt 0.625000 0.512814
vt 0.625000 0.750000
vt 0.875000 0.237186
vt 0.812506 0.000000
vt 0.875000 0.000000
vt 0.375000 0.000000
vt 0.375000 0.750000
vt 0.125000 0.228032
vt 0.125000 0.000000
vt 0.312506 0.250000
vt 0.187494 0.250000
vt -0.000000 -0.000000
vt -0.000000 -0.000000
vt 0.625000 0.812494
vt 0.625000 0.937506
vt -0.000000 -0.000000
vt -0.000000 -0.000000
vt 0.611349 1.000000
vt 0.375000 1.000000
vt 0.625000 0.250000
vt 0.617802 0.261650
vt 0.615762 0.237877
vt 0.875000 0.250000
vt 0.625000 0.500000
vt 0.614410 0.512276
vt 0.617516 0.488067
vn -0.138178 0.990272 0.016398
vn 0.000000 0.923881 0.382680
vn 0.062688 0.924934 0.374922
vn 0.105993 0.994250 0.015239
vn 0.000000 0.382683 0.923880
vn 0.000000 0.015023 0.999887
vn 0.077753 0.018193 0.996807
vn 0.053443 0.376166 0.925010
vn 0.381637 0.924267 0.009202
vn 0.381637 0.924267 -0.009202
vn 0.105993 0.994250 -0.015239
vn 0.924265 0.381640 0.009202
vn 0.999693 0.020066 0.014518
vn 0.999693 0.020066 -0.014518
vn 0.924265 0.381640 -0.009202
vn 0.924391 0.012702 0.381235
vn 0.923880 0.000000 0.382683
vn 0.999891 0.000000 0.014764
vn 0.381236 0.012702 0.924390
vn 0.078755 0.000000 0.996894
vn 0.382684 0.000000 0.923879
vn 0.000000 0.015023 -0.999887
vn 0.000000 0.382684 -0.923879
vn 0.053442 0.376166 -0.925010
vn 0.077753 0.018193 -0.996807
vn 0.000000 0.923880 -0.382682
vn -0.138178 0.990272 -0.016398
vn 0.062689 0.924934 -0.374924
vn 0.381236 0.012702 -0.924391
vn 0.382684 0.000000 -0.923879
vn 0.078755 0.000000 -0.996894
vn 0.924390 0.012702 -0.381236
vn 0.999891 0.000000 -0.014764
vn 0.923879 0.000000 -0.382685
vn 0.000000 0.000000 1.000000
vn 0.000000 0.000000 -1.000000
vn -1.000000 0.000000 0.000000
vn -1.000000 0.000000 0.000000
vn -0.999879 0.015554 0.000000
vn -0.999879 0.015554 0.000000
vn 0.000000 -1.000000 -0.000000
vn 0.000000 -1.000000 -0.000000
vn 0.000000 -1.000000 -0.000000
vn 0.000000 -1.000000 -0.000000
vn 0.000000 -1.000000 -0.000000
vn 0.000000 -1.000000 -0.000000
vn 0.000000 -1.000000 -0.000000
vn 0.000000 -1.000000 -0.000000
vn -0.923881 0.382681 0.000000
vn -0.923881 0.382681 0.000000
vn -0.382679 0.923881 0.000000
vn -0.382679 0.923881 0.000000
vn 0.887918 0.325270 0.325271
vn 0.325270 0.887919 0.325268
vn 0.325272 0.325270 0.887917
vn 0.887917 0.325270 -0.325272
vn 0.325270 0.325268 -0.887919
vn 0.325269 0.887919 -0.325268
vn 0.000000 1.000000 0.000000
vn 0.015314 0.999883 0.000000
vn 0.015314 0.999883 0.000000
vn 0.000000 1.000000 0.000000
vn 0.000000 -1.000000 0.000000
vn 0.000000 -1.000000 0.000000
vn 0.000000 -1.000000 0.000000
vn 0.000000 -1.000000 0.000000
vn 1.000000 -0.000000 0.000000
vn 1.000000 -0.000000 0.000000
vn 0.999545 0.030156 0.000000
vn 0.999545 0.030156 0.000000
vn -1.000000 0.000000 0.000000
vn -1.000000 0.000000 0.000000
vn -1.000000 0.000000 0.000000
vn -1.000000 0.000000 0.000000
vn 0.382682 0.923880 0.000000
vn 0.382682 0.923880 0.000000
vn 0.923879 0.382685 0.000000
vn 0.923879 0.382685 0.000000
vn 0.000000 0.000000 1.000000
vn 0.000000 0.000000 1.000000
vn 0.000000 0.000000 1.000000
vn 0.000000 0.000000 1.000000
vn 0.000000 0.000000 1.000000
vn 0.000000 0.000000 1.000000
vn 0.000000 0.000000 -1.000000
vn 0.000000 0.000000 -1.000000
vn 0.000000 0.000000 -1.000000
vn 0.000000 0.000000 -1.000000
vn 0.000000 0.000000 -1.000000
vn 0.000000 0.000000 -1.000000
vn 0.000000 0.997365 0.072542
vn 0.000000 0.787080 0.616850
vn 0.005140 0.787306 0.616541
vn 0.007114 0.997374 0.072081
vn 0.000000 0.593111 0.805121
vn 0.004882 0.593104 0.805111
vn 0.000000 0.193656 0.981070
vn 0.000000 0.006702 0.999978
vn 0.005496 0.006658 0.999963
vn 0.003923 0.193250 0.981142
vn 0.499060 0.864771 0.055773
vn 0.499060 0.864771 -0.055773
vn 0.007114 0.997373 -0.072081
vn 0.706018 0.706019 0.055471
vn 0.706017 0.706019 -0.055471
vn 0.965629 0.254626 0.052206
vn 0.997369 0.008607 0.071984
vn 0.997369 0.008607 -0.071984
vn 0.965629 0.254626 -0.052206
vn 0.787350 0.006224 0.616475
vn 0.787080 0.000000 0.616851
vn 0.997365 0.000000 0.072542
vn 0.593099 0.005910 0.805107
vn 0.593110 0.000000 0.805122
vn 0.193163 0.004751 0.981155
vn 0.005541 0.000000 0.999985
vn 0.193655 0.000000 0.981070
vn 0.000000 0.006702 -0.999978
vn 0.000000 0.193656 -0.981070
vn 0.003923 0.193250 -0.981142
vn 0.005496 0.006658 -0.999963
vn 0.000000 0.593111 -0.805121
vn 0.000000 0.787078 -0.616854
vn 0.005140 0.787304 -0.616544
vn 0.004882 0.593104 -0.805111
vn 0.000000 0.997365 -0.072542
vn 0.193164 0.004751 -0.981155
vn 0.193656 0.000000 -0.981070
vn 0.005541 0.000000 -0.999985
vn 0.593099 0.005910 -0.805108
vn 0.787347 0.006224 -0.616478
vn 0.787077 0.000000 -0.616855
vn 0.593110 0.000000 -0.805122
vn 0.997365 0.000000 -0.072542
vn 0.000000 0.000000 1.000000
vn 0.000000 0.000000 -1.000000
vn -1.000000 -0.000000 0.000000
vn -1.000000 -0.000000 0.000000
vn -1.000000 -0.000000 0.000000
vn -1.000000 -0.000000 0.000000
vn -1.000000 -0.000000 0.000000
vn -1.000000 -0.000000 0.000000
vn -1.000000 -0.000000 0.000000
vn -1.000000 -0.000000 0.000000
vn -1.000000 -0.000000 0.000000
vn -1.000000 -0.000000 0.000000
vn 0.000000 -1.000000 0.000000
vn 0.000000 -1.000000 0.000000
vn 0.000000 -1.000000 0.000000
vn 0.000000 -1.000000 0.000000
vn 0.000000 -1.000000 0.000000
vn 0.000000 -1.000000 0.000000
vn 0.000000 -1.000000 0.000000
vn 0.000000 -1.000000 0.000000
vn 0.000000 -1.000000 0.000000
vn 0.000000 -1.000000 0.000000
vn 0.925867 0.224109 0.304214
vn 0.644459 0.449300 0.618710
vn 0.449299 0.644459 0.618710
vn 0.224107 0.925867 0.304214
vn 0.421506 0.421507 0.802910
vn 0.172896 0.172898 0.969646
vn 0.925866 0.224108 -0.304218
vn 0.644457 0.449298 -0.618713
vn 0.421506 0.421507 -0.802910
vn 0.172898 0.172898 -0.969646
vn 0.449297 0.644458 -0.618713
vn 0.224107 0.925865 -0.304219
vn 0.000000 0.997365 0.072542
vn 0.000000 0.787080 0.616850
vn 0.005140 0.787306 0.616541
vn 0.007114 0.997373 0.072081
vn 0.000000 0.593118 0.805116
vn 0.004882 0.593111 0.805106
vn 0.000000 0.193656 0.981070
vn 0.000000 0.006702 0.999978
vn 0.005496 0.006658 0.999963
vn 0.003923 0.193250 0.981142
vn 0.499060 0.864771 0.055773
vn 0.499060 0.864771 -0.055773
vn 0.007114 0.997373 -0.072081
vn 0.706018 0.706019 0.055471
vn 0.706018 0.706019 -0.055471
vn 0.965629 0.254626 0.052206
vn 0.997369 0.008607 0.071984
vn 0.997369 0.008607 -0.071984
vn 0.965629 0.254626 -0.052206
vn 0.787350 0.006224 0.616475
vn 0.787079 0.000000 0.616852
vn 0.997365 0.000000 0.072542
vn 0.593106 0.005910 0.805103
vn 0.593117 0.000000 0.805117
vn 0.193164 0.004751 0.981155
vn 0.005541 0.000000 0.999985
vn 0.193656 0.000000 0.981070
vn 0.000000 0.006702 -0.999978
vn 0.000000 0.193656 -0.981070
vn 0.003923 0.193250 -0.981142
vn 0.005497 0.006658 -0.999963
vn 0.000000 0.593114 -0.805118
vn 0.000000 0.787080 -0.616850
vn 0.005140 0.787306 -0.616541
vn 0.004883 0.593107 -0.805109
vn 0.000000 0.997365 -0.072542
vn 0.193165 0.004751 -0.981155
vn 0.193656 0.000000 -0.981070
vn 0.005541 0.000000 -0.999985
vn 0.593102 0.005910 -0.805106
vn 0.787350 0.006224 -0.616475
vn 0.787079 0.000000 -0.616852
vn 0.593113 0.000000 -0.805120
vn 0.997365 0.000000 -0.072542
vn 0.000000 0.000000 1.000000
vn 0.000000 0.000000 -1.000000
vn -1.000000 -0.000000 0.000000
vn -1.000000 -0.000000 0.000000
vn -1.000000 -0.000000 0.000000
vn -1.000000 -0.000000 0.000000
vn -1.000000 -0.000000 0.000000
vn -1.000000 -0.000000 0.000000
vn -1.000000 -0.000000 0.000000
vn -1.000000 -0.000000 0.000000
vn -1.000000 -0.000000 0.000000
vn -1.000000 -0.000000 0.000000
vn 0.000000 -1.000000 0.000000
vn 0.000000 -1.000000 0.000000
vn 0.000000 -1.000000 0.000000
vn 0.000000 -1.000000 0.000000
vn 0.000000 -1.000000 0.000000
vn 0.000000 -1.000000 0.000000
vn 0.000000 -1.000000 0.000000
vn 0.000000 -1.000000 0.000000
vn 0.000000 -1.000000 0.000000
vn 0.000000 -1.000000 0.000000
vn 0.925866 0.224108 0.304217
vn 0.644459 0.449298 0.618712
vn 0.449299 0.644459 0.618711
vn 0.224106 0.925867 0.304217
vn 0.421507 0.421508 0.802909
vn 0.172903 0.172903 0.969644
vn 0.925866 0.224109 -0.304216
vn 0.644458 0.449300 -0.618712
vn 0.421507 0.421508 -0.802909
vn 0.172902 0.172903 -0.969644
vn 0.449300 0.644458 -0.618712
vn 0.224107 0.925866 -0.304217
s 1
g pasted__group86_pasted__pasted__pCube1
usemtl pasted__pasted__pasted__pasted__lambert4SG2
f 5/11/1 4/23/2 8/26/3 7/12/4
s 2
f 4/23/5 3/10/6 9/2/7 8/26/8
s 1
f 7/12/4 6/24/9 19/34/10 18/6/11
s 3
f 6/25/12 11/15/13 20/8/14 19/33/15
f 11/15/13 10/27/16 22/35/17 21/1/18
s 2
f 10/27/19 9/2/7 23/3/20 22/35/21
s 4
f 14/4/22 13/29/23 17/32/24 16/13/25
s 1
f 13/29/26 12/5/27 18/6/11 17/32/28
s 4
f 16/13/25 15/30/29 26/38/30 25/7/31
s 3
f 15/31/32 20/8/14 24/9/33 26/37/34
s 2
f 1/17/35 23/3/20 9/2/7 3/10/6
s 1
f 5/11/1 7/12/4 18/6/11 12/5/27
s 4
f 14/4/22 16/13/25 25/7/31 2/14/36
s 3
f 11/15/13 21/1/18 24/9/33 20/8/14
s 5
f 2/16/37 1/17/38 3/10/39 14/18/40
s off
f 24/19/41 21/20/42 22/36/43 23/21/44 1/22/45 2/14/46 25/7/47 26/38/48
s 5
f 3/10/39 4/23/49 13/28/50 14/18/40
s 1
f 4/23/51 5/11/1 12/5/27 13/29/52
s 3
f 10/27/16 11/15/13 6/25/12 27/39/53
s 1
f 6/24/9 7/12/4 8/26/3 27/39/54
s 2
f 8/26/8 9/2/7 10/27/19 27/39/55
s 3
f 19/33/15 20/8/14 15/31/32 28/41/56
s 4
f 15/30/29 16/13/25 17/32/24 28/40/57
s 1
f 17/32/28 18/6/11 19/34/10 28/40/58
s 6
f 31/42/59 36/43/60 39/44/61 32/45/62
s off
f 33/46/63 34/47/64 30/48/65 29/49/66
s 7
f 30/50/67 34/51/68 38/52/69 37/53/70
s off
f 33/54/71 29/55/72 31/42/73 32/56/74
s 6
f 36/43/60 35/57/75 40/58/76 39/44/61
s 7
f 35/57/77 37/53/70 38/52/69 40/59/78
s off
f 35/57/79 36/43/80 31/42/81 29/55/82 30/50/83 37/53/84
f 38/60/85 34/47/86 33/46/87 32/45/88 39/44/89 40/58/90
s 8
f 43/61/91 46/62/92 50/63/93 49/64/94
f 46/62/92 45/65/95 51/66/96 50/63/93
s 9
f 45/65/97 44/67/98 52/68/99 51/66/100
s 8
f 49/64/94 48/69/101 66/70/102 65/71/103
f 48/69/101 47/72/104 67/73/105 66/70/102
f 47/74/106 55/75/107 68/76/108 67/77/109
f 55/75/107 54/78/110 70/79/111 69/80/112
f 54/78/110 53/81/113 71/82/114 70/79/111
s 9
f 53/81/115 52/68/99 72/83/116 71/82/117
s 11
f 56/84/118 59/85/119 63/86/120 62/87/121
s 8
f 59/85/122 58/88/123 64/89/124 63/86/125
f 58/88/123 57/90/126 65/71/103 64/89/124
s 11
f 62/87/121 61/91/127 75/92/128 74/93/129
s 8
f 61/91/130 60/94/131 76/95/132 75/92/133
f 60/96/131 68/76/108 73/97/134 76/98/132
s 9
f 41/99/135 72/83/116 52/68/99 44/67/98
s 8
f 43/61/91 49/64/94 65/71/103 57/90/126
s 11
f 56/84/118 62/87/121 74/93/129 42/100/136
s 8
f 55/75/107 69/80/112 73/97/134 68/76/108
s off
f 56/101/137 42/102/138 41/99/139 44/67/140 45/65/141 46/62/142 43/103/143 57/104/144 58/105/145 59/106/146
f 73/107/147 69/108/148 70/109/149 71/110/150 72/111/151 41/112/152 42/100/153 74/93/154 75/92/155 76/95/156
s 8
f 54/78/110 55/75/107 47/74/106 77/113/157
f 77/113/158 47/72/104 48/69/101 78/114/159
f 48/69/101 49/64/94 50/63/93 78/114/160
f 78/114/159 50/63/93 51/66/96 79/115/161
s 9
f 51/66/100 52/68/99 53/81/115 79/115/162
s 8
f 79/115/161 53/81/113 54/78/110 77/113/158
f 77/113/158 78/114/159 79/115/161
f 67/77/109 68/76/108 60/96/131 80/116/163
f 80/117/164 60/94/131 61/91/130 81/118/165
s 11
f 61/91/127 62/87/121 63/86/120 81/118/166
s 8
f 81/118/165 63/86/125 64/89/124 82/119/167
f 64/89/124 65/71/103 66/70/102 82/119/168
f 82/119/167 66/70/102 67/73/105 80/117/164
f 80/117/164 81/118/165 82/119/167
s 14
f 85/120/169 88/121/170 92/122/171 91/123/172
f 88/121/170 87/124/173 93/125/174 92/122/171
s 15
f 87/124/175 86/126/176 94/127/177 93/125/178
s 14
f 91/123/172 90/128/179 108/129/180 107/130/181
f 90/128/179 89/131/182 109/132/183 108/129/180
f 89/133/184 97/134/185 110/135/186 109/136/187
f 97/134/185 96/137/188 112/138/189 111/139/190
f 96/137/188 95/140/191 113/141/192 112/138/189
s 15
f 95/140/193 94/127/177 114/142/194 113/141/195
s 17
f 98/143/196 101/144/197 105/145/198 104/146/199
s 14
f 101/144/200 100/147/201 106/148/202 105/145/203
f 100/147/201 99/149/204 107/130/181 106/148/202
s 17
f 104/146/199 103/150/205 117/151/206 116/152/207
s 14
f 103/150/208 102/153/209 118/154/210 117/151/211
f 102/155/209 110/135/186 115/156/212 118/157/210
s 15
f 83/158/213 114/142/194 94/127/177 86/126/176
s 14
f 85/120/169 91/123/172 107/130/181 99/149/204
s 17
f 98/143/196 104/146/199 116/152/207 84/159/214
s 14
f 97/134/185 111/139/190 115/156/212 110/135/186
s off
f 98/160/215 84/161/216 83/158/217 86/126/218 87/124/219 88/121/220 85/162/221 99/163/222 100/164/223 101/165/224
f 115/166/225 111/167/226 112/168/227 113/169/228 114/170/229 83/171/230 84/159/231 116/152/232 117/151/233 118/154/234
s 14
f 96/137/188 97/134/185 89/133/184 119/172/235
f 119/172/236 89/131/182 90/128/179 120/173/237
f 90/128/179 91/123/172 92/122/171 120/173/238
f 120/173/237 92/122/171 93/125/174 121/174/239
s 15
f 93/125/178 94/127/177 95/140/193 121/174/240
s 14
f 121/174/239 95/140/191 96/137/188 119/172/236
f 119/172/236 120/173/237 121/174/239
f 109/136/187 110/135/186 102/155/209 122/175/241
f 122/176/242 102/153/209 103/150/208 123/177/243
s 17
f 103/150/205 104/146/199 105/145/198 123/177/244
s 14
f 123/177/243 105/145/203 106/148/202 124/178/245
f 106/148/202 107/130/181 108/129/180 124/178/246
f 124/178/245 108/129/180 109/132/183 122/176/242
f 122/176/242 123/177/243 124/178/245
