# This file uses centimeters as units for non-parametric coordinates.

mtllib Sofa.mtl
g default
v -0.424941 0.064409 0.869074
v 0.375634 0.064409 0.869074
v -0.424941 0.476761 0.869074
v -0.424941 0.476761 -0.869074
v -0.424941 0.064409 -0.869074
v 0.375634 0.064409 -0.869074
v 0.363558 0.464684 0.869074
v 0.334403 0.476761 0.869074
v 0.375635 0.435530 0.869074
v 0.375635 0.435530 -0.869074
v 0.334403 0.476761 -0.869074
v 0.363558 0.464684 -0.869074
v -0.425000 0.000000 -0.867828
v -0.425000 0.000000 -1.004612
v -0.425000 0.706738 -0.902020
v -0.425000 0.660323 -0.867828
v -0.425000 0.683530 -0.872409
v -0.425000 0.700519 -0.884924
v 0.418782 0.683530 -0.902020
v 0.401793 0.700519 -0.902020
v 0.378585 0.706738 -0.902020
v 0.378585 0.700519 -0.884924
v 0.378585 0.683530 -0.872409
v 0.378585 0.660323 -0.867828
v 0.401793 0.660323 -0.872409
v 0.418782 0.660323 -0.884924
v 0.425000 0.660323 -0.902020
v -0.425000 0.660323 -1.004612
v -0.425000 0.706738 -0.970420
v -0.425000 0.700519 -0.987516
v -0.425000 0.683530 -1.000031
v 0.418782 0.660323 -0.987516
v 0.401793 0.660323 -1.000031
v 0.378585 0.660323 -1.004612
v 0.378585 0.683530 -1.000031
v 0.378585 0.700519 -0.987516
v 0.378585 0.706738 -0.970420
v 0.401793 0.700519 -0.970420
v 0.418782 0.683530 -0.970420
v 0.425000 0.660323 -0.970420
v 0.425000 0.000000 -0.902020
v 0.418782 0.000000 -0.884924
v 0.401793 0.000000 -0.872409
v 0.378585 0.000000 -0.867828
v 0.425000 0.000000 -0.970420
v 0.378585 0.000000 -1.004612
v 0.401793 0.000000 -1.000031
v 0.418782 0.000000 -0.987516
v 0.415291 0.680378 -0.887246
v 0.398640 0.697029 -0.887246
v 0.398640 0.680378 -0.874980
v 0.415291 0.680378 -0.985194
v 0.398640 0.680378 -0.997460
v 0.398640 0.697029 -0.985194
v -0.425000 0.000000 1.019017
v -0.425000 0.000000 0.882233
v -0.425000 0.706738 0.984825
v -0.425000 0.660323 1.019017
v -0.425000 0.683530 1.014436
v -0.425000 0.700519 1.001921
v 0.418782 0.683530 0.984825
v 0.401793 0.700519 0.984825
v 0.378585 0.706738 0.984825
v 0.378585 0.700519 1.001921
v 0.378585 0.683530 1.014436
v 0.378585 0.660323 1.019017
v 0.401793 0.660323 1.014436
v 0.418782 0.660323 1.001921
v 0.425000 0.660323 0.984825
v -0.425000 0.660323 0.882233
v -0.425000 0.706738 0.916425
v -0.425000 0.700519 0.899329
v -0.425000 0.683530 0.886814
v 0.418782 0.660323 0.899329
v 0.401793 0.660323 0.886814
v 0.378585 0.660323 0.882233
v 0.378585 0.683530 0.886814
v 0.378585 0.700519 0.899329
v 0.378585 0.706738 0.916425
v 0.401793 0.700519 0.916425
v 0.418782 0.683530 0.916425
v 0.425000 0.660323 0.916425
v 0.425000 0.000000 0.984825
v 0.418782 0.000000 1.001921
v 0.401793 0.000000 1.014436
v 0.378585 0.000000 1.019017
v 0.425000 0.000000 0.916425
v 0.378585 0.000000 0.882233
v 0.401793 0.000000 0.886814
v 0.418782 0.000000 0.899329
v 0.415291 0.680378 0.999599
v 0.398640 0.697029 0.999599
v 0.398640 0.680378 1.011865
v 0.415291 0.680378 0.901651
v 0.398640 0.680378 0.889385
v 0.398640 0.697029 0.901651
v -0.417494 0.358139 0.897399
v -0.417494 0.358139 -0.897399
v -0.417494 0.909770 0.897399
v -0.405711 0.938217 0.872518
v -0.377264 0.950000 0.812452
v -0.268341 0.938217 0.812452
v -0.296788 0.950000 0.812452
v -0.296788 0.938217 0.872518
v -0.296788 0.909770 0.897399
v -0.268341 0.909770 0.872518
v -0.256558 0.909770 0.812452
v -0.377264 0.950000 -0.812452
v -0.405711 0.938217 -0.872518
v -0.417494 0.909770 -0.897399
v -0.268341 0.909770 -0.872518
v -0.296788 0.909770 -0.897399
v -0.296788 0.938217 -0.872518
v -0.296788 0.950000 -0.812452
v -0.268341 0.938217 -0.812452
v -0.256558 0.909770 -0.812452
v -0.256558 0.358139 0.812452
v -0.268341 0.358139 0.872518
v -0.296788 0.358139 0.897399
v -0.256558 0.358139 -0.812452
v -0.296788 0.358139 -0.897399
v -0.268341 0.358139 -0.872518
v -0.273570 0.932989 0.861479
v -0.273570 0.932989 -0.861479
vt 0.375000 0.250000
vt 0.625000 0.750000
vt 0.375000 1.000000
vt 0.625000 1.000000
vt 0.125000 0.000000
vt 0.125000 0.250000
vt 0.375000 0.500000
vt 0.625000 0.000000
vt 0.875000 0.000000
vt 0.612125 0.250000
vt 0.875000 0.225003
vt 0.375000 0.000000
vt 0.625000 0.225002
vt 0.625000 0.524997
vt 0.375000 0.750000
vt 0.612125 0.500000
vt 0.625000 0.250000
vt 0.875000 0.250000
vt 0.625000 0.500000
vt 0.375000 0.312494
vt 0.375000 0.250000
vt 0.611245 0.265588
vt 0.611349 0.312494
vt 0.375000 0.234794
vt 0.611034 0.238754
vt 0.375000 0.228032
vt 0.611349 0.228032
vt 0.618329 0.299781
vt 0.618326 0.450216
vt 0.611349 0.437506
vt 0.625000 0.287741
vt 0.625000 0.462259
vt 0.662741 0.250000
vt 0.687494 0.228032
vt 0.812506 0.228032
vt 0.837259 0.250000
vt 0.634189 0.234030
vt 0.651116 0.000000
vt 0.687494 0.000000
vt 0.617769 0.228582
vt 0.623903 0.000000
vt 0.611349 0.000000
vt 0.375000 0.521968
vt 0.375000 0.508493
vt 0.610732 0.511115
vt 0.611349 0.521968
vt 0.375000 0.478189
vt 0.611121 0.484210
vt 0.375000 0.437506
vt 0.614993 0.520365
vt 0.615659 0.750000
vt 0.611349 0.750000
vt 0.625000 0.512814
vt 0.625000 0.750000
vt 0.875000 0.237186
vt 0.812506 0.000000
vt 0.875000 0.000000
vt 0.375000 0.000000
vt 0.375000 0.750000
vt 0.125000 0.228032
vt 0.125000 0.000000
vt 0.312506 0.250000
vt 0.187494 0.250000
vt -0.000000 -0.000000
vt -0.000000 -0.000000
vt 0.625000 0.812494
vt 0.625000 0.937506
vt -0.000000 -0.000000
vt -0.000000 -0.000000
vt 0.611349 1.000000
vt 0.375000 1.000000
vt 0.625000 0.250000
vt 0.617802 0.261650
vt 0.615762 0.237877
vt 0.875000 0.250000
vt 0.625000 0.500000
vt 0.614410 0.512276
vt 0.617516 0.488067
vt 0.375000 0.312494
vt 0.375000 0.250000
vt 0.611245 0.265588
vt 0.611349 0.312494
vt 0.375000 0.234794
vt 0.611034 0.238754
vt 0.375000 0.228032
vt 0.611349 0.228032
vt 0.618329 0.299781
vt 0.618326 0.450216
vt 0.611349 0.437506
vt 0.625000 0.287741
vt 0.625000 0.462259
vt 0.662741 0.250000
vt 0.687494 0.228032
vt 0.812506 0.228032
vt 0.837259 0.250000
vt 0.634189 0.234030
vt 0.651116 0.000000
vt 0.687494 0.000000
vt 0.617769 0.228582
vt 0.623903 0.000000
vt 0.611349 0.000000
vt 0.375000 0.521968
vt 0.375000 0.508493
vt 0.610732 0.511115
vt 0.611349 0.521968
vt 0.375000 0.478189
vt 0.611121 0.484210
vt 0.375000 0.437506
vt 0.614993 0.520365
vt 0.615659 0.750000
vt 0.611349 0.750000
vt 0.625000 0.512814
vt 0.625000 0.750000
vt 0.875000 0.237186
vt 0.812506 0.000000
vt 0.875000 0.000000
vt 0.375000 0.000000
vt 0.375000 0.750000
vt 0.125000 0.228032
vt 0.125000 0.000000
vt 0.312506 0.250000
vt 0.187494 0.250000
vt -0.000000 -0.000000
vt -0.000000 -0.000000
vt 0.625000 0.812494
vt 0.625000 0.937506
vt -0.000000 -0.000000
vt -0.000000 -0.000000
vt 0.611349 1.000000
vt 0.375000 1.000000
vt 0.625000 0.250000
vt 0.617802 0.261650
vt 0.615762 0.237877
vt 0.875000 0.250000
vt 0.625000 0.500000
vt 0.614410 0.512276
vt 0.617516 0.488067
vt 0.437494 0.261832
vt 0.375000 0.250000
vt 0.564182 0.250193
vt 0.562506 0.261832
vt 0.375000 0.239413
vt 0.562506 0.239413
vt 0.625000 0.260798
vt 0.625000 0.489202
vt 0.562506 0.488168
vt 0.635798 0.250000
vt 0.636832 0.239413
vt 0.863168 0.239413
vt 0.864202 0.250000
vt 0.620441 0.240569
vt 0.625000 0.000000
vt 0.636832 0.000000
vt 0.562506 0.000000
vt 0.375000 0.510587
vt 0.375000 0.500000
vt 0.564182 0.499807
vt 0.562506 0.510587
vt 0.437494 0.488168
vt 0.625000 0.510292
vt 0.625000 0.750000
vt 0.562506 0.750000
vt 0.875000 0.239708
vt 0.863168 0.000000
vt 0.875000 0.000000
vt 0.375000 0.000000
vt 0.375000 0.750000
vt 0.125000 0.000000
vt 0.125000 0.239413
vt 0.625000 0.761832
vt 0.625000 0.988168
vt 0.625000 1.000000
vt 0.562506 1.000000
vt 0.375000 1.000000
vt 0.125000 0.250000
vt 0.625000 0.250000
vt 0.875000 0.250000
vt 0.625000 0.500000
vn 0.000000 1.000000 0.000000
vn 0.015314 0.999883 0.000000
vn 0.015314 0.999883 0.000000
vn 0.000000 1.000000 0.000000
vn 0.000000 -1.000000 0.000000
vn 0.000000 -1.000000 0.000000
vn 0.000000 -1.000000 0.000000
vn 0.000000 -1.000000 0.000000
vn 1.000000 -0.000000 0.000000
vn 1.000000 -0.000000 0.000000
vn 0.999545 0.030156 0.000000
vn 0.999545 0.030156 0.000000
vn -1.000000 0.000000 0.000000
vn -1.000000 0.000000 0.000000
vn -1.000000 0.000000 0.000000
vn -1.000000 0.000000 0.000000
vn 0.382682 0.923880 0.000000
vn 0.382682 0.923880 0.000000
vn 0.923879 0.382685 0.000000
vn 0.923879 0.382685 0.000000
vn -0.000000 -0.000000 1.000000
vn -0.000000 -0.000000 1.000000
vn -0.000000 -0.000000 1.000000
vn -0.000000 -0.000000 1.000000
vn -0.000000 -0.000000 1.000000
vn -0.000000 -0.000000 1.000000
vn 0.000000 0.000000 -1.000000
vn 0.000000 0.000000 -1.000000
vn 0.000000 0.000000 -1.000000
vn 0.000000 0.000000 -1.000000
vn 0.000000 0.000000 -1.000000
vn 0.000000 0.000000 -1.000000
vn 0.000000 0.997365 0.072542
vn 0.000000 0.787080 0.616851
vn 0.005140 0.787305 0.616542
vn 0.007114 0.997373 0.072081
vn 0.000000 0.593114 0.805118
vn 0.004883 0.593107 0.805109
vn 0.000000 0.193656 0.981070
vn 0.000000 0.006702 0.999978
vn 0.005496 0.006658 0.999963
vn 0.003923 0.193250 0.981142
vn 0.499060 0.864771 0.055773
vn 0.499060 0.864771 -0.055773
vn 0.007114 0.997373 -0.072081
vn 0.706018 0.706018 0.055471
vn 0.706017 0.706019 -0.055471
vn 0.965629 0.254627 0.052206
vn 0.997369 0.008607 0.071984
vn 0.997369 0.008607 -0.071984
vn 0.965629 0.254626 -0.052206
vn 0.787350 0.006224 0.616475
vn 0.787079 0.000000 0.616852
vn 0.997365 0.000000 0.072542
vn 0.593104 0.005910 0.805105
vn 0.593114 0.000000 0.805119
vn 0.193161 0.004751 0.981156
vn 0.005540 0.000000 0.999985
vn 0.193653 0.000000 0.981070
vn 0.000000 0.006702 -0.999978
vn 0.000000 0.193656 -0.981070
vn 0.003923 0.193250 -0.981142
vn 0.005497 0.006658 -0.999963
vn 0.000000 0.593114 -0.805118
vn 0.000000 0.787080 -0.616850
vn 0.005140 0.787306 -0.616541
vn 0.004883 0.593107 -0.805109
vn 0.000000 0.997365 -0.072542
vn 0.193165 0.004751 -0.981155
vn 0.193656 0.000000 -0.981070
vn 0.005541 0.000000 -0.999985
vn 0.593101 0.005910 -0.805107
vn 0.787350 0.006224 -0.616475
vn 0.787079 0.000000 -0.616852
vn 0.593111 0.000000 -0.805121
vn 0.997365 0.000000 -0.072542
vn 0.000000 0.000000 1.000000
vn 0.000000 0.000000 -1.000000
vn -1.000000 -0.000000 0.000000
vn -1.000000 -0.000000 0.000000
vn -1.000000 -0.000000 0.000000
vn -1.000000 -0.000000 0.000000
vn -1.000000 -0.000000 0.000000
vn -1.000000 -0.000000 0.000000
vn -1.000000 -0.000000 0.000000
vn -1.000000 -0.000000 0.000000
vn -1.000000 -0.000000 0.000000
vn -1.000000 -0.000000 0.000000
vn 0.000000 -1.000000 0.000000
vn 0.000000 -1.000000 0.000000
vn 0.000000 -1.000000 0.000000
vn 0.000000 -1.000000 0.000000
vn 0.000000 -1.000000 0.000000
vn 0.000000 -1.000000 0.000000
vn 0.000000 -1.000000 0.000000
vn 0.000000 -1.000000 0.000000
vn 0.000000 -1.000000 0.000000
vn 0.000000 -1.000000 0.000000
vn 0.925865 0.224109 0.304218
vn 0.644458 0.449299 0.618712
vn 0.449299 0.644458 0.618712
vn 0.224107 0.925866 0.304217
vn 0.421509 0.421508 0.802908
vn 0.172900 0.172902 0.969644
vn 0.925866 0.224108 -0.304215
vn 0.644457 0.449301 -0.618712
vn 0.421507 0.421509 -0.802908
vn 0.172904 0.172902 -0.969644
vn 0.449299 0.644459 -0.618711
vn 0.224107 0.925866 -0.304218
vn 0.000000 0.997365 0.072542
vn 0.000000 0.787080 0.616850
vn 0.005140 0.787306 0.616541
vn 0.007114 0.997373 0.072081
vn 0.000000 0.593118 0.805116
vn 0.004883 0.593111 0.805106
vn 0.000000 0.193656 0.981070
vn 0.000000 0.006702 0.999978
vn 0.005497 0.006658 0.999963
vn 0.003923 0.193250 0.981142
vn 0.499060 0.864771 0.055773
vn 0.499060 0.864771 -0.055773
vn 0.007114 0.997373 -0.072081
vn 0.706018 0.706018 0.055471
vn 0.706018 0.706019 -0.055471
vn 0.965629 0.254626 0.052206
vn 0.997369 0.008607 0.071984
vn 0.997369 0.008607 -0.071984
vn 0.965629 0.254627 -0.052206
vn 0.787350 0.006224 0.616475
vn 0.787079 0.000000 0.616852
vn 0.997365 0.000000 0.072542
vn 0.593106 0.005910 0.805103
vn 0.593117 0.000000 0.805117
vn 0.193165 0.004751 0.981155
vn 0.005541 0.000000 0.999985
vn 0.193656 0.000000 0.981070
vn 0.000000 0.006702 -0.999978
vn 0.000000 0.193656 -0.981070
vn 0.003923 0.193250 -0.981142
vn 0.005497 0.006658 -0.999963
vn 0.000000 0.593112 -0.805120
vn 0.000000 0.787080 -0.616851
vn 0.005140 0.787305 -0.616542
vn 0.004883 0.593105 -0.805110
vn 0.000000 0.997365 -0.072542
vn 0.193165 0.004751 -0.981155
vn 0.193656 0.000000 -0.981070
vn 0.005541 0.000000 -0.999985
vn 0.593101 0.005910 -0.805107
vn 0.787349 0.006224 -0.616477
vn 0.787078 0.000000 -0.616853
vn 0.593111 0.000000 -0.805121
vn 0.997365 0.000000 -0.072542
vn 0.000000 0.000000 1.000000
vn 0.000000 0.000000 -1.000000
vn -1.000000 -0.000000 0.000000
vn -1.000000 -0.000000 0.000000
vn -1.000000 -0.000000 0.000000
vn -1.000000 -0.000000 0.000000
vn -1.000000 -0.000000 0.000000
vn -1.000000 -0.000000 0.000000
vn -1.000000 -0.000000 0.000000
vn -1.000000 -0.000000 0.000000
vn -1.000000 -0.000000 0.000000
vn -1.000000 -0.000000 0.000000
vn 0.000000 -1.000000 0.000000
vn 0.000000 -1.000000 0.000000
vn 0.000000 -1.000000 0.000000
vn 0.000000 -1.000000 0.000000
vn 0.000000 -1.000000 0.000000
vn 0.000000 -1.000000 0.000000
vn 0.000000 -1.000000 0.000000
vn 0.000000 -1.000000 0.000000
vn 0.000000 -1.000000 0.000000
vn 0.000000 -1.000000 0.000000
vn 0.925866 0.224107 0.304217
vn 0.644459 0.449298 0.618711
vn 0.449300 0.644458 0.618711
vn 0.224106 0.925866 0.304218
vn 0.421508 0.421509 0.802908
vn 0.172905 0.172903 0.969644
vn 0.925866 0.224109 -0.304216
vn 0.644458 0.449299 -0.618712
vn 0.421507 0.421508 -0.802909
vn 0.172904 0.172901 -0.969644
vn 0.449299 0.644458 -0.618712
vn 0.224109 0.925865 -0.304218
vn -0.151881 0.988378 0.006418
vn 0.000000 0.981298 0.192497
vn 0.056136 0.980401 0.188846
vn 0.106093 0.994330 0.007276
vn 0.000000 0.658344 0.752717
vn 0.000000 0.033309 0.999445
vn 0.161542 0.036937 0.986174
vn 0.104817 0.646920 0.755320
vn 0.381608 0.924313 0.004531
vn 0.381608 0.924313 -0.004531
vn 0.106093 0.994330 -0.007276
vn 0.924312 0.381611 0.004531
vn 0.999774 0.020090 0.006887
vn 0.999774 0.020090 -0.006887
vn 0.924312 0.381611 -0.004531
vn 0.981366 0.011081 0.191827
vn 0.981297 0.000000 0.192499
vn 0.999976 0.000000 0.006993
vn 0.656251 0.025388 0.754115
vn 0.164538 0.000000 0.986371
vn 0.658346 0.000000 0.752716
vn 0.000000 0.033309 -0.999445
vn 0.000000 0.658345 -0.752716
vn 0.104816 0.646921 -0.755319
vn 0.161542 0.036937 -0.986174
vn 0.000000 0.981298 -0.192497
vn -0.151881 0.988378 -0.006418
vn 0.056136 0.980401 -0.188846
vn 0.656251 0.025388 -0.754115
vn 0.658346 0.000000 -0.752716
vn 0.164538 0.000000 -0.986371
vn 0.981366 0.011081 -0.191827
vn 0.999976 0.000000 -0.006993
vn 0.981297 0.000000 -0.192499
vn 0.000000 0.000000 1.000000
vn 0.000000 0.000000 -1.000000
vn -1.000000 0.000000 0.000000
vn -1.000000 0.000000 0.000000
vn -0.999933 0.011615 0.000000
vn -0.999933 0.011615 0.000000
vn 0.000000 -1.000000 -0.000000
vn 0.000000 -1.000000 -0.000000
vn 0.000000 -1.000000 -0.000000
vn 0.000000 -1.000000 -0.000000
vn 0.000000 -1.000000 -0.000000
vn 0.000000 -1.000000 -0.000000
vn 0.000000 -1.000000 -0.000000
vn 0.000000 -1.000000 -0.000000
vn -0.923881 0.382681 0.000000
vn -0.923881 0.382681 0.000000
vn -0.382679 0.923882 0.000000
vn -0.382679 0.923882 0.000000
vn 0.926762 0.339501 0.160785
vn 0.339499 0.926763 0.160783
vn 0.521904 0.521899 0.674713
vn 0.926762 0.339501 -0.160785
vn 0.521903 0.521899 -0.674713
vn 0.339499 0.926763 -0.160783
s 1
g group87_pasted__pCube1
usemtl pasted__pasted__pasted__pasted__lambert4SG2
f 3/1/1 8/10/2 11/16/3 4/7/4
s off
f 5/15/5 6/2/6 2/4/7 1/3/8
s 2
f 2/8/9 6/9/10 10/11/11 9/13/12
s off
f 5/5/13 1/12/14 3/1/15 4/6/16
s 1
f 8/10/2 7/17/17 12/19/18 11/16/3
s 2
f 7/17/19 9/13/12 10/11/11 12/18/20
s off
f 7/17/21 8/10/22 3/1/23 1/12/24 2/8/25 9/13/26
f 10/14/27 6/2/28 5/15/29 4/7/30 11/16/31 12/19/32
s 3
f 15/20/33 18/21/34 22/22/35 21/23/36
f 18/21/34 17/24/37 23/25/38 22/22/35
s 4
f 17/24/39 16/26/40 24/27/41 23/25/42
s 3
f 21/23/36 20/28/43 38/29/44 37/30/45
f 20/28/43 19/31/46 39/32/47 38/29/44
f 19/33/48 27/34/49 40/35/50 39/36/51
f 27/34/49 26/37/52 42/38/53 41/39/54
f 26/37/52 25/40/55 43/41/56 42/38/53
s 4
f 25/40/57 24/27/41 44/42/58 43/41/59
s 6
f 28/43/60 31/44/61 35/45/62 34/46/63
s 3
f 31/44/64 30/47/65 36/48/66 35/45/67
f 30/47/65 29/49/68 37/30/45 36/48/66
s 6
f 34/46/63 33/50/69 47/51/70 46/52/71
s 3
f 33/50/72 32/53/73 48/54/74 47/51/75
f 32/55/73 40/35/50 45/56/76 48/57/74
s 4
f 13/58/77 44/42/58 24/27/41 16/26/40
s 3
f 15/20/33 21/23/36 37/30/45 29/49/68
s 6
f 28/43/60 34/46/63 46/52/71 14/59/78
s 3
f 27/34/49 41/39/54 45/56/76 40/35/50
s off
f 28/60/79 14/61/80 13/58/81 16/26/82 17/24/83 18/21/84 15/62/85 29/63/86 30/64/87 31/65/88
f 45/66/89 41/67/90 42/68/91 43/69/92 44/70/93 13/71/94 14/59/95 46/52/96 47/51/97 48/54/98
s 3
f 26/37/52 27/34/49 19/33/48 49/72/99
f 49/72/100 19/31/46 20/28/43 50/73/101
f 20/28/43 21/23/36 22/22/35 50/73/102
f 50/73/101 22/22/35 23/25/38 51/74/103
s 4
f 23/25/42 24/27/41 25/40/57 51/74/104
s 3
f 51/74/103 25/40/55 26/37/52 49/72/100
f 49/72/100 50/73/101 51/74/103
f 39/36/51 40/35/50 32/55/73 52/75/105
f 52/76/106 32/53/73 33/50/72 53/77/107
s 6
f 33/50/69 34/46/63 35/45/62 53/77/108
s 3
f 53/77/107 35/45/67 36/48/66 54/78/109
f 36/48/66 37/30/45 38/29/44 54/78/110
f 54/78/109 38/29/44 39/32/47 52/76/106
f 52/76/106 53/77/107 54/78/109
s 9
f 57/79/111 60/80/112 64/81/113 63/82/114
f 60/80/112 59/83/115 65/84/116 64/81/113
s 10
f 59/83/117 58/85/118 66/86/119 65/84/120
s 9
f 63/82/114 62/87/121 80/88/122 79/89/123
f 62/87/121 61/90/124 81/91/125 80/88/122
f 61/92/126 69/93/127 82/94/128 81/95/129
f 69/93/127 68/96/130 84/97/131 83/98/132
f 68/96/130 67/99/133 85/100/134 84/97/131
s 10
f 67/99/135 66/86/119 86/101/136 85/100/137
s 12
f 70/102/138 73/103/139 77/104/140 76/105/141
s 9
f 73/103/142 72/106/143 78/107/144 77/104/145
f 72/106/143 71/108/146 79/89/123 78/107/144
s 12
f 76/105/141 75/109/147 89/110/148 88/111/149
s 9
f 75/109/150 74/112/151 90/113/152 89/110/153
f 74/114/151 82/94/128 87/115/154 90/116/152
s 10
f 55/117/155 86/101/136 66/86/119 58/85/118
s 9
f 57/79/111 63/82/114 79/89/123 71/108/146
s 12
f 70/102/138 76/105/141 88/111/149 56/118/156
s 9
f 69/93/127 83/98/132 87/115/154 82/94/128
s off
f 70/119/157 56/120/158 55/117/159 58/85/160 59/83/161 60/80/162 57/121/163 71/122/164 72/123/165 73/124/166
f 87/125/167 83/126/168 84/127/169 85/128/170 86/129/171 55/130/172 56/118/173 88/111/174 89/110/175 90/113/176
s 9
f 68/96/130 69/93/127 61/92/126 91/131/177
f 91/131/178 61/90/124 62/87/121 92/132/179
f 62/87/121 63/82/114 64/81/113 92/132/180
f 92/132/179 64/81/113 65/84/116 93/133/181
s 10
f 65/84/120 66/86/119 67/99/135 93/133/182
s 9
f 93/133/181 67/99/133 68/96/130 91/131/178
f 91/131/178 92/132/179 93/133/181
f 81/95/129 82/94/128 74/114/151 94/134/183
f 94/135/184 74/112/151 75/109/150 95/136/185
s 12
f 75/109/147 76/105/141 77/104/140 95/136/186
s 9
f 95/136/185 77/104/145 78/107/144 96/137/187
f 78/107/144 79/89/123 80/88/122 96/137/188
f 96/137/187 80/88/122 81/91/125 94/135/184
f 94/135/184 95/136/185 96/137/187
s 15
f 101/138/189 100/139/190 104/140/191 103/141/192
s 16
f 100/139/193 99/142/194 105/143/195 104/140/196
s 15
f 103/141/192 102/144/197 115/145/198 114/146/199
s 17
f 102/147/200 107/148/201 116/149/202 115/150/203
f 107/148/201 106/151/204 118/152/205 117/153/206
s 16
f 106/151/207 105/143/195 119/154/208 118/152/209
s 18
f 110/155/210 109/156/211 113/157/212 112/158/213
s 15
f 109/156/214 108/159/215 114/146/199 113/157/216
s 18
f 112/158/213 111/160/217 122/161/218 121/162/219
s 17
f 111/163/220 116/149/202 120/164/221 122/165/222
s 16
f 97/166/223 119/154/208 105/143/195 99/142/194
s 15
f 101/138/189 103/141/192 114/146/199 108/159/215
s 18
f 110/155/210 112/158/213 121/162/219 98/167/224
s 17
f 107/148/201 117/153/206 120/164/221 116/149/202
s 19
f 98/168/225 97/166/226 99/142/227 110/169/228
s off
f 120/170/229 117/171/230 118/172/231 119/173/232 97/174/233 98/167/234 121/162/235 122/161/236
s 19
f 99/142/227 100/139/237 109/175/238 110/169/228
s 15
f 100/139/239 101/138/189 108/159/215 109/156/240
s 17
f 106/151/204 107/148/201 102/147/200 123/176/241
s 15
f 102/144/197 103/141/192 104/140/191 123/176/242
s 16
f 104/140/196 105/143/195 106/151/207 123/176/243
s 17
f 115/150/203 116/149/202 111/163/220 124/177/244
s 18
f 111/160/217 112/158/213 113/157/212 124/178/245
s 15
f 113/157/216 114/146/199 115/145/198 124/178/246
