# This file uses centimeters as units for non-parametric coordinates.

mtllib Tocador.mtl
g default
v -0.719917 0.000000 0.208112
v -0.669740 0.000000 0.208112
v -0.719917 0.800000 0.208112
v -0.669740 0.800000 0.208112
v -0.719917 0.800000 0.156467
v -0.669740 0.800000 0.156467
v -0.719917 0.000000 0.156467
v -0.669740 0.000000 0.156467
v -0.788790 0.752988 0.238790
v -0.788790 0.764197 0.250000
v -0.800000 0.764197 0.238790
v 0.800000 0.764197 0.238790
v 0.788790 0.764197 0.250000
v 0.788790 0.752988 0.238790
v -0.800000 0.786621 0.238790
v -0.788790 0.786621 0.250000
v -0.788790 0.797831 0.238790
v 0.788790 0.797831 0.238790
v 0.788790 0.786621 0.250000
v 0.800000 0.786621 0.238790
v -0.800000 0.786621 -0.238790
v -0.788790 0.797831 -0.238790
v -0.788790 0.786621 -0.250000
v 0.788790 0.786621 -0.250000
v 0.788790 0.797831 -0.238790
v 0.800000 0.786621 -0.238790
v -0.800000 0.764197 -0.238790
v -0.788790 0.764197 -0.250000
v -0.788790 0.752988 -0.238790
v 0.788790 0.752988 -0.238790
v 0.788790 0.764197 -0.250000
v 0.800000 0.764197 -0.238790
v -0.788790 0.299733 0.238790
v -0.788790 0.310943 0.250000
v -0.800000 0.310943 0.238790
v 0.800000 0.310943 0.238790
v 0.788790 0.310943 0.250000
v 0.788790 0.299733 0.238790
v -0.800000 0.333366 0.238790
v -0.788790 0.333366 0.250000
v -0.788790 0.344576 0.238790
v 0.788790 0.344576 0.238790
v 0.788790 0.333366 0.250000
v 0.800000 0.333366 0.238790
v -0.800000 0.333366 -0.238790
v -0.788790 0.344576 -0.238790
v -0.788790 0.333366 -0.250000
v 0.788790 0.333366 -0.250000
v 0.788790 0.344576 -0.238790
v 0.800000 0.333366 -0.238790
v -0.800000 0.310943 -0.238790
v -0.788790 0.310943 -0.250000
v -0.788790 0.299733 -0.238790
v 0.788790 0.299733 -0.238790
v 0.788790 0.310943 -0.250000
v 0.800000 0.310943 -0.238790
v -0.788790 0.531503 0.238790
v -0.788790 0.542713 0.250000
v -0.800000 0.542713 0.238790
v 0.800000 0.542713 0.238790
v 0.788790 0.542713 0.250000
v 0.788790 0.531503 0.238790
v -0.800000 0.565136 0.238790
v -0.788790 0.565136 0.250000
v -0.788790 0.576346 0.238790
v 0.788790 0.576346 0.238790
v 0.788790 0.565136 0.250000
v 0.800000 0.565136 0.238790
v -0.800000 0.565136 -0.238790
v -0.788790 0.576346 -0.238790
v -0.788790 0.565136 -0.250000
v 0.788790 0.565136 -0.250000
v 0.788790 0.576346 -0.238790
v 0.800000 0.565136 -0.238790
v -0.800000 0.542713 -0.238790
v -0.788790 0.542713 -0.250000
v -0.788790 0.531503 -0.238790
v 0.788790 0.531503 -0.238790
v 0.788790 0.542713 -0.250000
v 0.800000 0.542713 -0.238790
v 0.690594 0.000000 -0.145011
v 0.740770 0.000000 -0.145011
v 0.690594 0.800000 -0.145011
v 0.740770 0.800000 -0.145011
v 0.690594 0.800000 -0.196656
v 0.740770 0.800000 -0.196656
v 0.690594 0.000000 -0.196656
v 0.740770 0.000000 -0.196656
v -0.719917 0.000000 -0.145011
v -0.669740 0.000000 -0.145011
v -0.719917 0.800000 -0.145011
v -0.669740 0.800000 -0.145011
v -0.719917 0.800000 -0.196656
v -0.669740 0.800000 -0.196656
v -0.719917 0.000000 -0.196656
v -0.669740 0.000000 -0.196656
v 0.690594 0.000000 0.208112
v 0.740770 0.000000 0.208112
v 0.690594 0.800000 0.208112
v 0.740770 0.800000 0.208112
v 0.690594 0.800000 0.156467
v 0.740770 0.800000 0.156467
v 0.690594 0.000000 0.156467
v 0.740770 0.000000 0.156467
vt 0.375000 0.000000
vt 0.625000 0.000000
vt 0.375000 0.250000
vt 0.625000 0.250000
vt 0.375000 0.500000
vt 0.625000 0.500000
vt 0.375000 0.750000
vt 0.625000 0.750000
vt 0.375000 1.000000
vt 0.625000 1.000000
vt 0.875000 0.000000
vt 0.875000 0.250000
vt 0.125000 0.000000
vt 0.125000 0.250000
vt 0.376751 0.994395
vt 0.375000 0.994395
vt 0.375000 0.755605
vt 0.376751 0.755605
vt 0.376751 0.062494
vt 0.376751 0.000000
vt 0.623248 0.000000
vt 0.623249 0.062494
vt 0.369395 0.062494
vt 0.376751 0.187506
vt 0.369395 0.187506
vt 0.625000 0.994395
vt 0.623248 0.994395
vt 0.623249 0.755605
vt 0.625000 0.755605
vt 0.630605 0.062494
vt 0.630605 0.187506
vt 0.623249 0.187506
vt 0.375000 0.255605
vt 0.376751 0.255605
vt 0.376751 0.494395
vt 0.375000 0.494395
vt 0.623249 0.255605
vt 0.625000 0.255605
vt 0.625000 0.494395
vt 0.623248 0.494395
vt 0.375000 0.562494
vt 0.376751 0.562494
vt 0.376751 0.687506
vt 0.375000 0.687506
vt 0.623249 0.562494
vt 0.625000 0.562494
vt 0.625000 0.687506
vt 0.623249 0.687506
vt 0.869395 0.062494
vt 0.869395 0.187506
vt 0.130605 0.062494
vt 0.130605 0.187506
vt 0.376751 0.994395
vt 0.375000 0.994395
vt 0.375000 0.755605
vt 0.376751 0.755605
vt 0.376751 0.062494
vt 0.376751 0.000000
vt 0.623249 0.000000
vt 0.623249 0.062494
vt 0.369395 0.062494
vt 0.376751 0.187506
vt 0.369395 0.187506
vt 0.625000 0.994395
vt 0.623248 0.994395
vt 0.623249 0.755605
vt 0.625000 0.755605
vt 0.630605 0.062494
vt 0.630605 0.187506
vt 0.623249 0.187506
vt 0.375000 0.255605
vt 0.376751 0.255605
vt 0.376751 0.494395
vt 0.375000 0.494395
vt 0.623249 0.255605
vt 0.625000 0.255605
vt 0.625000 0.494395
vt 0.623248 0.494395
vt 0.375000 0.562494
vt 0.376751 0.562494
vt 0.376751 0.687506
vt 0.375000 0.687506
vt 0.623249 0.562494
vt 0.625000 0.562494
vt 0.625000 0.687506
vt 0.623249 0.687506
vt 0.869395 0.062494
vt 0.869395 0.187506
vt 0.130605 0.062494
vt 0.130605 0.187506
vt 0.376751 0.994395
vt 0.375000 0.994395
vt 0.375000 0.755605
vt 0.376751 0.755605
vt 0.376751 0.062494
vt 0.376751 0.000000
vt 0.623249 0.000000
vt 0.623249 0.062494
vt 0.369395 0.062494
vt 0.376751 0.187506
vt 0.369395 0.187506
vt 0.625000 0.994395
vt 0.623248 0.994395
vt 0.623249 0.755605
vt 0.625000 0.755605
vt 0.630605 0.062494
vt 0.630605 0.187506
vt 0.623249 0.187506
vt 0.375000 0.255605
vt 0.376751 0.255605
vt 0.376751 0.494395
vt 0.375000 0.494395
vt 0.623249 0.255605
vt 0.625000 0.255605
vt 0.625000 0.494395
vt 0.623248 0.494395
vt 0.375000 0.562494
vt 0.376751 0.562494
vt 0.376751 0.687506
vt 0.375000 0.687506
vt 0.623249 0.562494
vt 0.625000 0.562494
vt 0.625000 0.687506
vt 0.623249 0.687506
vt 0.869395 0.062494
vt 0.869395 0.187506
vt 0.130605 0.062494
vt 0.130605 0.187506
vt 0.375000 0.000000
vt 0.625000 0.000000
vt 0.625000 0.250000
vt 0.375000 0.250000
vt 0.625000 0.500000
vt 0.375000 0.500000
vt 0.625000 0.750000
vt 0.375000 0.750000
vt 0.625000 1.000000
vt 0.375000 1.000000
vt 0.875000 0.000000
vt 0.875000 0.250000
vt 0.125000 0.000000
vt 0.125000 0.250000
vt 0.375000 0.000000
vt 0.625000 0.000000
vt 0.625000 0.250000
vt 0.375000 0.250000
vt 0.625000 0.500000
vt 0.375000 0.500000
vt 0.625000 0.750000
vt 0.375000 0.750000
vt 0.625000 1.000000
vt 0.375000 1.000000
vt 0.875000 0.000000
vt 0.875000 0.250000
vt 0.125000 0.000000
vt 0.125000 0.250000
vt 0.375000 0.000000
vt 0.625000 0.000000
vt 0.625000 0.250000
vt 0.375000 0.250000
vt 0.625000 0.500000
vt 0.375000 0.500000
vt 0.625000 0.750000
vt 0.375000 0.750000
vt 0.625000 1.000000
vt 0.375000 1.000000
vt 0.875000 0.000000
vt 0.875000 0.250000
vt 0.125000 0.000000
vt 0.125000 0.250000
vn 0.000000 0.000000 1.000000
vn 0.000000 0.000000 1.000000
vn 0.000000 0.000000 1.000000
vn 0.000000 0.000000 1.000000
vn 0.000000 1.000000 0.000000
vn 0.000000 1.000000 0.000000
vn 0.000000 1.000000 0.000000
vn 0.000000 1.000000 0.000000
vn 0.000000 0.000000 -1.000000
vn 0.000000 0.000000 -1.000000
vn 0.000000 0.000000 -1.000000
vn 0.000000 0.000000 -1.000000
vn 0.000000 -1.000000 0.000000
vn 0.000000 -1.000000 0.000000
vn 0.000000 -1.000000 0.000000
vn 0.000000 -1.000000 0.000000
vn 1.000000 0.000000 0.000000
vn 1.000000 0.000000 0.000000
vn 1.000000 0.000000 0.000000
vn 1.000000 0.000000 0.000000
vn -1.000000 0.000000 0.000000
vn -1.000000 0.000000 0.000000
vn -1.000000 0.000000 0.000000
vn -1.000000 0.000000 0.000000
vn -0.707107 -0.707106 0.000000
vn -0.707107 -0.707106 0.000000
vn -0.707107 -0.707106 0.000000
vn -0.707107 -0.707106 0.000000
vn 0.000000 -0.707104 0.707110
vn 0.000000 -0.707104 0.707110
vn 0.000000 -0.707104 0.707110
vn 0.000000 -0.707104 0.707110
vn -0.707107 0.000000 0.707107
vn -0.707107 0.000000 0.707107
vn -0.707107 0.000000 0.707107
vn -0.707107 0.000000 0.707107
vn 0.707107 -0.707106 0.000000
vn 0.707107 -0.707106 0.000000
vn 0.707107 -0.707106 0.000000
vn 0.707107 -0.707106 0.000000
vn 0.707107 0.000000 0.707107
vn 0.707107 0.000000 0.707107
vn 0.707107 0.000000 0.707107
vn 0.707107 0.000000 0.707107
vn -0.707106 0.707108 0.000000
vn -0.707106 0.707108 0.000000
vn -0.707106 0.707108 0.000000
vn -0.707106 0.707108 0.000000
vn 0.000000 0.707106 0.707108
vn 0.000000 0.707106 0.707108
vn 0.000000 0.707106 0.707108
vn 0.000000 0.707106 0.707108
vn 0.707106 0.707108 0.000000
vn 0.707106 0.707108 0.000000
vn 0.707106 0.707108 0.000000
vn 0.707106 0.707108 0.000000
vn -0.707107 0.000000 -0.707107
vn -0.707107 0.000000 -0.707107
vn -0.707107 0.000000 -0.707107
vn -0.707107 0.000000 -0.707107
vn 0.000000 0.707106 -0.707108
vn 0.000000 0.707106 -0.707108
vn 0.000000 0.707106 -0.707108
vn 0.000000 0.707106 -0.707108
vn 0.707107 0.000000 -0.707107
vn 0.707107 0.000000 -0.707107
vn 0.707107 0.000000 -0.707107
vn 0.707107 0.000000 -0.707107
vn 0.000000 -0.707104 -0.707110
vn 0.000000 -0.707104 -0.707110
vn 0.000000 -0.707104 -0.707110
vn 0.000000 -0.707104 -0.707110
vn 0.000000 0.000000 1.000000
vn 0.000000 0.000000 1.000000
vn 0.000000 0.000000 1.000000
vn 0.000000 0.000000 1.000000
vn 0.000000 1.000000 0.000000
vn 0.000000 1.000000 0.000000
vn 0.000000 1.000000 0.000000
vn 0.000000 1.000000 0.000000
vn 0.000000 0.000000 -1.000000
vn 0.000000 0.000000 -1.000000
vn 0.000000 0.000000 -1.000000
vn 0.000000 0.000000 -1.000000
vn 0.000000 -1.000000 0.000000
vn 0.000000 -1.000000 0.000000
vn 0.000000 -1.000000 0.000000
vn 0.000000 -1.000000 0.000000
vn 1.000000 0.000000 0.000000
vn 1.000000 0.000000 0.000000
vn 1.000000 0.000000 0.000000
vn 1.000000 0.000000 0.000000
vn -1.000000 0.000000 0.000000
vn -1.000000 0.000000 0.000000
vn -1.000000 0.000000 0.000000
vn -1.000000 0.000000 0.000000
vn -0.577353 -0.577353 0.577345
vn -0.577353 -0.577353 0.577345
vn -0.577353 -0.577353 0.577345
vn 0.577353 -0.577353 0.577345
vn 0.577353 -0.577353 0.577345
vn 0.577353 -0.577353 0.577345
vn -0.577347 0.577352 0.577352
vn -0.577347 0.577352 0.577352
vn -0.577347 0.577352 0.577352
vn 0.577347 0.577352 0.577352
vn 0.577347 0.577352 0.577352
vn 0.577347 0.577352 0.577352
vn -0.577347 0.577352 -0.577352
vn -0.577347 0.577352 -0.577352
vn -0.577347 0.577352 -0.577352
vn 0.577347 0.577352 -0.577352
vn 0.577347 0.577352 -0.577352
vn 0.577347 0.577352 -0.577352
vn -0.577353 -0.577353 -0.577345
vn -0.577353 -0.577353 -0.577345
vn -0.577353 -0.577353 -0.577345
vn 0.577353 -0.577353 -0.577345
vn 0.577353 -0.577353 -0.577345
vn 0.577353 -0.577353 -0.577345
vn -0.707106 -0.707108 0.000000
vn -0.707106 -0.707108 0.000000
vn -0.707106 -0.707108 0.000000
vn -0.707106 -0.707108 0.000000
vn 0.000000 -0.707107 0.707107
vn 0.000000 -0.707107 0.707107
vn 0.000000 -0.707107 0.707107
vn 0.000000 -0.707107 0.707107
vn -0.707107 0.000000 0.707106
vn -0.707107 0.000000 0.707106
vn -0.707107 0.000000 0.707106
vn -0.707107 0.000000 0.707106
vn 0.707106 -0.707108 0.000000
vn 0.707106 -0.707108 0.000000
vn 0.707106 -0.707108 0.000000
vn 0.707106 -0.707108 0.000000
vn 0.707107 0.000000 0.707106
vn 0.707107 0.000000 0.707106
vn 0.707107 0.000000 0.707106
vn 0.707107 0.000000 0.707106
vn -0.707106 0.707108 0.000000
vn -0.707106 0.707108 0.000000
vn -0.707106 0.707108 0.000000
vn -0.707106 0.707108 0.000000
vn 0.000000 0.707107 0.707106
vn 0.000000 0.707107 0.707106
vn 0.000000 0.707107 0.707106
vn 0.000000 0.707107 0.707106
vn 0.707106 0.707108 0.000000
vn 0.707106 0.707108 0.000000
vn 0.707106 0.707108 0.000000
vn 0.707106 0.707108 0.000000
vn -0.707107 0.000000 -0.707106
vn -0.707107 0.000000 -0.707106
vn -0.707107 0.000000 -0.707106
vn -0.707107 0.000000 -0.707106
vn 0.000000 0.707107 -0.707106
vn 0.000000 0.707107 -0.707106
vn 0.000000 0.707107 -0.707106
vn 0.000000 0.707107 -0.707106
vn 0.707107 0.000000 -0.707106
vn 0.707107 0.000000 -0.707106
vn 0.707107 0.000000 -0.707106
vn 0.707107 0.000000 -0.707106
vn 0.000000 -0.707107 -0.707107
vn 0.000000 -0.707107 -0.707107
vn 0.000000 -0.707107 -0.707107
vn 0.000000 -0.707107 -0.707107
vn 0.000000 0.000000 1.000000
vn 0.000000 0.000000 1.000000
vn 0.000000 0.000000 1.000000
vn 0.000000 0.000000 1.000000
vn 0.000000 1.000000 0.000000
vn 0.000000 1.000000 0.000000
vn 0.000000 1.000000 0.000000
vn 0.000000 1.000000 0.000000
vn 0.000000 0.000000 -1.000000
vn 0.000000 0.000000 -1.000000
vn 0.000000 0.000000 -1.000000
vn 0.000000 0.000000 -1.000000
vn 0.000000 -1.000000 0.000000
vn 0.000000 -1.000000 0.000000
vn 0.000000 -1.000000 0.000000
vn 0.000000 -1.000000 0.000000
vn 1.000000 0.000000 0.000000
vn 1.000000 0.000000 0.000000
vn 1.000000 0.000000 0.000000
vn 1.000000 0.000000 0.000000
vn -1.000000 0.000000 0.000000
vn -1.000000 0.000000 0.000000
vn -1.000000 0.000000 0.000000
vn -1.000000 0.000000 0.000000
vn -0.577349 -0.577353 0.577349
vn -0.577349 -0.577353 0.577349
vn -0.577349 -0.577353 0.577349
vn 0.577349 -0.577353 0.577349
vn 0.577349 -0.577353 0.577349
vn 0.577349 -0.577353 0.577349
vn -0.577348 0.577352 0.577350
vn -0.577348 0.577352 0.577350
vn -0.577348 0.577352 0.577350
vn 0.577348 0.577352 0.577350
vn 0.577348 0.577352 0.577350
vn 0.577348 0.577352 0.577350
vn -0.577348 0.577352 -0.577350
vn -0.577348 0.577352 -0.577350
vn -0.577348 0.577352 -0.577350
vn 0.577348 0.577352 -0.577350
vn 0.577348 0.577352 -0.577350
vn 0.577348 0.577352 -0.577350
vn -0.577349 -0.577353 -0.577349
vn -0.577349 -0.577353 -0.577349
vn -0.577349 -0.577353 -0.577349
vn 0.577349 -0.577353 -0.577349
vn 0.577349 -0.577353 -0.577349
vn 0.577349 -0.577353 -0.577349
vn -0.707106 -0.707108 0.000000
vn -0.707106 -0.707108 0.000000
vn -0.707106 -0.707108 0.000000
vn -0.707106 -0.707108 0.000000
vn 0.000000 -0.707106 0.707108
vn 0.000000 -0.707106 0.707108
vn 0.000000 -0.707106 0.707108
vn 0.000000 -0.707106 0.707108
vn -0.707107 0.000000 0.707106
vn -0.707107 0.000000 0.707106
vn -0.707107 0.000000 0.707106
vn -0.707107 0.000000 0.707106
vn 0.707106 -0.707108 0.000000
vn 0.707106 -0.707108 0.000000
vn 0.707106 -0.707108 0.000000
vn 0.707106 -0.707108 0.000000
vn 0.707107 0.000000 0.707106
vn 0.707107 0.000000 0.707106
vn 0.707107 0.000000 0.707106
vn 0.707107 0.000000 0.707106
vn -0.707106 0.707108 0.000000
vn -0.707106 0.707108 0.000000
vn -0.707106 0.707108 0.000000
vn -0.707106 0.707108 0.000000
vn 0.000000 0.707107 0.707106
vn 0.000000 0.707107 0.707106
vn 0.000000 0.707107 0.707106
vn 0.000000 0.707107 0.707106
vn 0.707106 0.707108 0.000000
vn 0.707106 0.707108 0.000000
vn 0.707106 0.707108 0.000000
vn 0.707106 0.707108 0.000000
vn -0.707107 0.000000 -0.707106
vn -0.707107 0.000000 -0.707106
vn -0.707107 0.000000 -0.707106
vn -0.707107 0.000000 -0.707106
vn 0.000000 0.707107 -0.707106
vn 0.000000 0.707107 -0.707106
vn 0.000000 0.707107 -0.707106
vn 0.000000 0.707107 -0.707106
vn 0.707107 0.000000 -0.707106
vn 0.707107 0.000000 -0.707106
vn 0.707107 0.000000 -0.707106
vn 0.707107 0.000000 -0.707106
vn 0.000000 -0.707106 -0.707108
vn 0.000000 -0.707106 -0.707108
vn 0.000000 -0.707106 -0.707108
vn 0.000000 -0.707106 -0.707108
vn 0.000000 0.000000 1.000000
vn 0.000000 0.000000 1.000000
vn 0.000000 0.000000 1.000000
vn 0.000000 0.000000 1.000000
vn 0.000000 1.000000 0.000000
vn 0.000000 1.000000 0.000000
vn 0.000000 1.000000 0.000000
vn 0.000000 1.000000 0.000000
vn 0.000000 0.000000 -1.000000
vn 0.000000 0.000000 -1.000000
vn 0.000000 0.000000 -1.000000
vn 0.000000 0.000000 -1.000000
vn 0.000000 -1.000000 0.000000
vn 0.000000 -1.000000 0.000000
vn 0.000000 -1.000000 0.000000
vn 0.000000 -1.000000 0.000000
vn 1.000000 0.000000 0.000000
vn 1.000000 0.000000 0.000000
vn 1.000000 0.000000 0.000000
vn 1.000000 0.000000 0.000000
vn -1.000000 0.000000 0.000000
vn -1.000000 0.000000 0.000000
vn -1.000000 0.000000 0.000000
vn -1.000000 0.000000 0.000000
vn -0.577347 -0.577352 0.577352
vn -0.577347 -0.577352 0.577352
vn -0.577347 -0.577352 0.577352
vn 0.577347 -0.577352 0.577352
vn 0.577347 -0.577352 0.577352
vn 0.577347 -0.577352 0.577352
vn -0.577347 0.577352 0.577352
vn -0.577347 0.577352 0.577352
vn -0.577347 0.577352 0.577352
vn 0.577347 0.577352 0.577352
vn 0.577347 0.577352 0.577352
vn 0.577347 0.577352 0.577352
vn -0.577347 0.577352 -0.577352
vn -0.577347 0.577352 -0.577352
vn -0.577347 0.577352 -0.577352
vn 0.577347 0.577352 -0.577352
vn 0.577347 0.577352 -0.577352
vn 0.577347 0.577352 -0.577352
vn -0.577347 -0.577352 -0.577352
vn -0.577347 -0.577352 -0.577352
vn -0.577347 -0.577352 -0.577352
vn 0.577347 -0.577352 -0.577352
vn 0.577347 -0.577352 -0.577352
vn 0.577347 -0.577352 -0.577352
vn 0.000000 0.000000 1.000000
vn 0.000000 0.000000 1.000000
vn 0.000000 0.000000 1.000000
vn 0.000000 0.000000 1.000000
vn 0.000000 1.000000 0.000000
vn 0.000000 1.000000 0.000000
vn 0.000000 1.000000 0.000000
vn 0.000000 1.000000 0.000000
vn 0.000000 0.000000 -1.000000
vn 0.000000 0.000000 -1.000000
vn 0.000000 0.000000 -1.000000
vn 0.000000 0.000000 -1.000000
vn 0.000000 -1.000000 0.000000
vn 0.000000 -1.000000 0.000000
vn 0.000000 -1.000000 0.000000
vn 0.000000 -1.000000 0.000000
vn 1.000000 0.000000 0.000000
vn 1.000000 0.000000 0.000000
vn 1.000000 0.000000 0.000000
vn 1.000000 0.000000 0.000000
vn -1.000000 0.000000 0.000000
vn -1.000000 0.000000 0.000000
vn -1.000000 0.000000 0.000000
vn -1.000000 0.000000 0.000000
vn 0.000000 0.000000 1.000000
vn 0.000000 0.000000 1.000000
vn 0.000000 0.000000 1.000000
vn 0.000000 0.000000 1.000000
vn 0.000000 1.000000 0.000000
vn 0.000000 1.000000 0.000000
vn 0.000000 1.000000 0.000000
vn 0.000000 1.000000 0.000000
vn 0.000000 0.000000 -1.000000
vn 0.000000 0.000000 -1.000000
vn 0.000000 0.000000 -1.000000
vn 0.000000 0.000000 -1.000000
vn 0.000000 -1.000000 0.000000
vn 0.000000 -1.000000 0.000000
vn 0.000000 -1.000000 0.000000
vn 0.000000 -1.000000 0.000000
vn 1.000000 0.000000 0.000000
vn 1.000000 0.000000 0.000000
vn 1.000000 0.000000 0.000000
vn 1.000000 0.000000 0.000000
vn -1.000000 0.000000 0.000000
vn -1.000000 0.000000 0.000000
vn -1.000000 0.000000 0.000000
vn -1.000000 0.000000 0.000000
vn 0.000000 0.000000 1.000000
vn 0.000000 0.000000 1.000000
vn 0.000000 0.000000 1.000000
vn 0.000000 0.000000 1.000000
vn 0.000000 1.000000 0.000000
vn 0.000000 1.000000 0.000000
vn 0.000000 1.000000 0.000000
vn 0.000000 1.000000 0.000000
vn 0.000000 0.000000 -1.000000
vn 0.000000 0.000000 -1.000000
vn 0.000000 0.000000 -1.000000
vn 0.000000 0.000000 -1.000000
vn 0.000000 -1.000000 0.000000
vn 0.000000 -1.000000 0.000000
vn 0.000000 -1.000000 0.000000
vn 0.000000 -1.000000 0.000000
vn 1.000000 0.000000 0.000000
vn 1.000000 0.000000 0.000000
vn 1.000000 0.000000 0.000000
vn 1.000000 0.000000 0.000000
vn -1.000000 0.000000 0.000000
vn -1.000000 0.000000 0.000000
vn -1.000000 0.000000 0.000000
vn -1.000000 0.000000 0.000000
s off
g group97_pasted__pCube8
usemtl lambert7SG
f 1/1/1 2/2/2 4/4/3 3/3/4
f 3/3/5 4/4/6 6/6/7 5/5/8
f 5/5/9 6/6/10 8/8/11 7/7/12
f 7/7/13 8/8/14 2/10/15 1/9/16
f 2/2/17 8/11/18 6/12/19 4/4/20
f 7/13/21 1/1/22 3/3/23 5/14/24
f 9/15/25 11/16/26 27/17/27 29/18/28
f 10/19/29 9/20/30 14/21/31 13/22/32
f 11/23/33 10/19/34 16/24/35 15/25/36
f 12/26/37 14/27/38 30/28/39 32/29/40
f 13/22/41 12/30/42 20/31/43 19/32/44
f 15/33/45 17/34/46 22/35/47 21/36/48
f 17/34/49 16/24/50 19/32/51 18/37/52
f 18/37/53 20/38/54 26/39/55 25/40/56
f 21/41/57 23/42/58 28/43/59 27/44/60
f 23/42/61 22/35/62 25/40/63 24/45/64
f 24/45/65 26/46/66 32/47/67 31/48/68
f 29/18/69 28/43/70 31/48/71 30/28/72
f 10/19/73 13/22/74 19/32/75 16/24/76
f 17/34/77 18/37/78 25/40/79 22/35/80
f 23/42/81 24/45/82 31/48/83 28/43/84
f 29/18/85 30/28/86 14/27/87 9/15/88
f 12/30/89 32/49/90 26/50/91 20/31/92
f 27/51/93 11/23/94 15/25/95 21/52/96
f 9/20/97 10/19/98 11/23/99
f 12/30/100 13/22/101 14/21/102
f 15/25/103 16/24/104 17/34/105
f 18/37/106 19/32/107 20/31/108
f 21/36/109 22/35/110 23/42/111
f 24/45/112 25/40/113 26/39/114
f 27/44/115 28/43/116 29/18/117
f 30/28/118 31/48/119 32/47/120
f 33/53/121 35/54/122 51/55/123 53/56/124
f 34/57/125 33/58/126 38/59/127 37/60/128
f 35/61/129 34/57/130 40/62/131 39/63/132
f 36/64/133 38/65/134 54/66/135 56/67/136
f 37/60/137 36/68/138 44/69/139 43/70/140
f 39/71/141 41/72/142 46/73/143 45/74/144
f 41/72/145 40/62/146 43/70/147 42/75/148
f 42/75/149 44/76/150 50/77/151 49/78/152
f 45/79/153 47/80/154 52/81/155 51/82/156
f 47/80/157 46/73/158 49/78/159 48/83/160
f 48/83/161 50/84/162 56/85/163 55/86/164
f 53/56/165 52/81/166 55/86/167 54/66/168
f 34/57/169 37/60/170 43/70/171 40/62/172
f 41/72/173 42/75/174 49/78/175 46/73/176
f 47/80/177 48/83/178 55/86/179 52/81/180
f 53/56/181 54/66/182 38/65/183 33/53/184
f 36/68/185 56/87/186 50/88/187 44/69/188
f 51/89/189 35/61/190 39/63/191 45/90/192
f 33/58/193 34/57/194 35/61/195
f 36/68/196 37/60/197 38/59/198
f 39/63/199 40/62/200 41/72/201
f 42/75/202 43/70/203 44/69/204
f 45/74/205 46/73/206 47/80/207
f 48/83/208 49/78/209 50/77/210
f 51/82/211 52/81/212 53/56/213
f 54/66/214 55/86/215 56/85/216
f 57/91/217 59/92/218 75/93/219 77/94/220
f 58/95/221 57/96/222 62/97/223 61/98/224
f 59/99/225 58/95/226 64/100/227 63/101/228
f 60/102/229 62/103/230 78/104/231 80/105/232
f 61/98/233 60/106/234 68/107/235 67/108/236
f 63/109/237 65/110/238 70/111/239 69/112/240
f 65/110/241 64/100/242 67/108/243 66/113/244
f 66/113/245 68/114/246 74/115/247 73/116/248
f 69/117/249 71/118/250 76/119/251 75/120/252
f 71/118/253 70/111/254 73/116/255 72/121/256
f 72/121/257 74/122/258 80/123/259 79/124/260
f 77/94/261 76/119/262 79/124/263 78/104/264
f 58/95/265 61/98/266 67/108/267 64/100/268
f 65/110/269 66/113/270 73/116/271 70/111/272
f 71/118/273 72/121/274 79/124/275 76/119/276
f 77/94/277 78/104/278 62/103/279 57/91/280
f 60/106/281 80/125/282 74/126/283 68/107/284
f 75/127/285 59/99/286 63/101/287 69/128/288
f 57/96/289 58/95/290 59/99/291
f 60/106/292 61/98/293 62/97/294
f 63/101/295 64/100/296 65/110/297
f 66/113/298 67/108/299 68/107/300
f 69/112/301 70/111/302 71/118/303
f 72/121/304 73/116/305 74/115/306
f 75/120/307 76/119/308 77/94/309
f 78/104/310 79/124/311 80/123/312
f 81/129/313 82/130/314 84/131/315 83/132/316
f 83/132/317 84/131/318 86/133/319 85/134/320
f 85/134/321 86/133/322 88/135/323 87/136/324
f 87/136/325 88/135/326 82/137/327 81/138/328
f 82/130/329 88/139/330 86/140/331 84/131/332
f 87/141/333 81/129/334 83/132/335 85/142/336
f 89/143/337 90/144/338 92/145/339 91/146/340
f 91/146/341 92/145/342 94/147/343 93/148/344
f 93/148/345 94/147/346 96/149/347 95/150/348
f 95/150/349 96/149/350 90/151/351 89/152/352
f 90/144/353 96/153/354 94/154/355 92/145/356
f 95/155/357 89/143/358 91/146/359 93/156/360
f 97/157/361 98/158/362 100/159/363 99/160/364
f 99/160/365 100/159/366 102/161/367 101/162/368
f 101/162/369 102/161/370 104/163/371 103/164/372
f 103/164/373 104/163/374 98/165/375 97/166/376
f 98/158/377 104/167/378 102/168/379 100/159/380
f 103/169/381 97/157/382 99/160/383 101/170/384
