# This file uses centimeters as units for non-parametric coordinates.

mtllib Bañera.mtl
g default
v -0.000143 0.000000 -0.354237
v -0.000143 0.000000 0.354237
v -0.328169 0.000000 -0.354237
v -0.328169 0.000000 0.354237
v 0.316556 0.000000 -0.354237
v 0.316556 0.000000 0.354237
v -0.739512 0.437662 0.390321
v -0.715378 0.443023 0.368049
v -0.403743 0.380219 0.368132
v -0.405205 0.370992 0.390666
v -0.408736 0.348716 0.400000
v -0.715378 0.443023 -0.368049
v -0.739512 0.437662 -0.390321
v -0.403743 0.380219 -0.368132
v -0.405205 0.370992 -0.390666
v -0.408736 0.348716 -0.400000
v 0.740463 0.437948 0.390286
v 0.718426 0.443889 0.367840
v 0.718426 0.443889 -0.367840
v 0.740463 0.437948 -0.390286
v -0.000110 0.301312 0.400000
v -0.000157 0.324002 0.390666
v -0.000176 0.333401 0.368132
v 0.389455 0.380219 0.368132
v 0.390900 0.370992 0.390666
v 0.394390 0.348715 0.400000
v -0.000176 0.333401 -0.368132
v -0.000157 0.324002 -0.390666
v -0.000110 0.301312 -0.400000
v 0.389455 0.380219 -0.368132
v 0.390900 0.370992 -0.390666
v 0.394390 0.348715 -0.400000
v -0.369476 0.164203 0.368132
v -0.647755 0.227659 0.368049
v -0.369476 0.164203 -0.368132
v -0.647755 0.227659 -0.368049
v 0.357003 0.164153 0.368132
v 0.000160 0.116757 0.368132
v 0.357003 0.164153 -0.368132
v 0.000160 0.116757 -0.368132
v 0.650050 0.228377 0.367840
v 0.650050 0.228377 -0.367840
v -0.609613 0.000000 0.322122
v -0.580137 0.000000 0.354237
v -0.713736 0.409149 0.400000
v -0.750000 0.416334 0.363736
v -0.580137 0.000000 -0.354237
v -0.609613 0.000000 -0.322122
v -0.750000 0.416334 -0.363736
v -0.713736 0.409149 -0.400000
v 0.609613 0.000000 -0.322122
v 0.580137 0.000000 -0.354237
v 0.713736 0.409332 -0.400000
v 0.750000 0.416216 -0.363736
v 0.580137 0.000000 0.354237
v 0.609613 0.000000 0.322122
v 0.750000 0.416216 0.363736
v 0.713736 0.409332 0.400000
vt 0.499971 1.000000
vt 0.564909 1.000000
vt 0.432710 0.000000
vt 0.380770 0.259985
vt 0.432710 0.259959
vt 0.564909 0.259959
vt 0.499971 0.490041
vt 0.499971 0.750000
vt 0.499982 0.225938
vt 0.564909 0.000000
vt 0.499971 0.259959
vt 0.432710 0.490041
vt 0.499982 0.524062
vt 0.499971 0.000000
vt 0.619738 0.260050
vt 0.619738 0.489950
vt 0.564909 0.490041
vt 0.380770 0.490015
vt 0.432710 0.250000
vt 0.375000 0.500015
vt 0.432710 0.500000
vt 0.499971 0.250000
vt 0.564909 0.250000
vt 0.499971 0.500000
vt 0.564909 0.500000
vt 0.380770 0.259985
vt 0.432710 0.259959
vt 0.432710 0.490041
vt 0.380770 0.490015
vt 0.499971 0.259959
vt 0.564909 0.259959
vt 0.564909 0.490041
vt 0.499971 0.490041
vt 0.619738 0.260050
vt 0.619738 0.489950
vt 0.432710 1.000000
vt 0.381044 1.000000
vt 0.375000 0.988667
vt 0.375000 0.249985
vt 0.125000 0.249985
vt 0.625000 0.500001
vt 0.618956 0.750000
vt 0.625000 0.761333
vt 0.625000 0.988667
vt 0.618956 1.000000
vt 0.875000 0.249999
vt 0.625000 0.250000
vt 0.431877 0.229287
vt 0.381044 0.750000
vt 0.431877 0.520713
vt 0.432710 0.750000
vt 0.136333 0.231297
vt 0.136333 -0.000000
vt 0.363667 0.000000
vt 0.564909 0.750000
vt 0.565732 0.520715
vt 0.618956 0.518968
vt 0.565732 0.229285
vt 0.618956 -0.000000
vt 0.863667 -0.000000
vt 0.381044 0.000000
vt 0.381044 0.231083
vt 0.375000 0.761332
vt 0.375000 0.518703
vt 0.875000 0.000000
vt 0.875000 0.227407
vt 0.636333 -0.000000
vt 0.636333 0.231231
vt 0.363667 0.231297
vt 0.381044 0.518917
vt 0.874400 0.231231
vt 0.863667 0.231231
vt 0.618956 0.231032
vn 0.000000 -1.000000 0.000000
vn 0.000000 -1.000000 0.000000
vn 0.000000 -1.000000 0.000000
vn 0.000000 -1.000000 0.000000
vn 0.000000 -1.000000 0.000000
vn 0.000000 -1.000000 0.000000
vn 0.000000 -1.000000 0.000000
vn 0.000000 -1.000000 0.000000
vn 0.000000 -1.000000 0.000000
vn 0.000000 -1.000000 0.000000
vn 0.180206 0.900360 0.396078
vn 0.180206 0.900360 0.396078
vn 0.139562 0.910622 0.388961
vn 0.139566 0.910621 0.388962
vn 0.074680 0.378135 0.922733
vn 0.000055 -0.047739 0.998860
vn -0.006608 -0.094517 0.995501
vn 0.057728 0.379289 0.923476
vn 0.260302 0.965527 0.000000
vn 0.260302 0.965527 0.000000
vn 0.260302 0.965527 0.000000
vn 0.260302 0.965527 0.000000
vn 0.915711 0.401838 0.000000
vn 0.965248 -0.261335 0.000000
vn 0.965248 -0.261335 0.000000
vn 0.915711 0.401838 0.000000
vn 0.000000 0.922938 0.384949
vn 0.000000 0.922938 0.384949
vn -0.139867 0.910749 0.388553
vn -0.139878 0.910747 0.388555
vn 0.000001 0.380430 0.924810
vn 0.000011 -0.106403 0.994323
vn 0.006492 -0.094249 0.995528
vn -0.057740 0.379138 0.923537
vn -0.013413 -0.123621 0.992239
vn -0.010755 -0.133906 0.990936
vn 0.222323 0.974973 0.000000
vn 0.168707 0.985666 0.000000
vn 0.168707 0.985666 0.000000
vn 0.222323 0.974973 0.000000
vn -0.013413 -0.123621 -0.992239
vn 0.000055 -0.047739 -0.998860
vn -0.006608 -0.094517 -0.995501
vn -0.010755 -0.133906 -0.990936
vn 0.947551 -0.319604 0.000000
vn 0.947551 -0.319604 0.000000
vn -0.966071 -0.258277 0.000000
vn -0.947579 -0.319523 0.000000
vn -0.947579 -0.319523 0.000000
vn -0.966071 -0.258277 0.000000
vn 0.000069 1.000000 0.000000
vn -0.169253 0.985573 0.000000
vn -0.169253 0.985573 0.000000
vn 0.000069 1.000000 0.000000
vn -0.000001 -0.140527 -0.990077
vn 0.000011 -0.106403 -0.994323
vn 0.006492 -0.094249 -0.995528
vn 0.010800 -0.133434 -0.990999
vn -0.000001 -0.140527 0.990077
vn 0.010800 -0.133434 0.990999
vn -0.214079 0.976816 0.000000
vn -0.214079 0.976816 0.000000
vn -0.000027 -0.047826 -0.998856
vn 0.012831 -0.123385 -0.992276
vn 0.012831 -0.123385 0.992276
vn -0.000027 -0.047826 0.998856
vn -0.216838 0.976208 0.000000
vn -0.216838 0.976208 0.000000
vn -0.216838 0.976208 0.000000
vn -0.216838 0.976208 0.000000
vn 0.180207 0.900360 -0.396078
vn 0.180207 0.900360 -0.396078
vn 0.139567 0.910621 -0.388961
vn 0.139562 0.910622 -0.388960
vn -0.173312 0.902291 -0.394757
vn -0.173312 0.902292 -0.394757
vn -0.139867 0.910749 -0.388552
vn -0.139878 0.910747 -0.388555
vn -0.071593 0.378133 -0.922979
vn -0.057739 0.379137 -0.923538
vn -0.173312 0.902291 0.394757
vn -0.173312 0.902291 0.394757
vn 0.057728 0.379287 -0.923476
vn 0.000001 0.380428 -0.924811
vn 0.000000 0.922938 -0.384948
vn 0.000000 0.922938 -0.384948
vn 0.000297 0.000070 -1.000000
vn 0.000155 0.000037 -1.000000
vn 0.000095 0.000022 -1.000000
vn 0.000297 0.000070 -1.000000
vn 0.000154 0.000036 1.000000
vn 0.000297 0.000070 1.000000
vn 0.000297 0.000070 1.000000
vn 0.000095 0.000022 1.000000
vn 0.954074 0.299572 0.000000
vn 0.954074 0.299572 0.000000
vn 0.954074 0.299572 0.000000
vn 0.954074 0.299572 0.000000
vn 0.000000 0.000000 -1.000000
vn -0.000532 0.000124 -1.000000
vn -0.000337 0.000079 -1.000000
vn 0.000000 0.000000 -1.000000
vn -0.000532 0.000124 1.000000
vn 0.000000 0.000000 1.000000
vn 0.000000 0.000000 1.000000
vn -0.000337 0.000079 1.000000
vn -0.000985 0.000230 -1.000000
vn -0.000985 0.000230 -1.000000
vn -0.953175 0.302418 0.000000
vn -0.953175 0.302418 0.000000
vn -0.953175 0.302418 0.000000
vn -0.953175 0.302418 0.000000
vn -0.000985 0.000230 1.000000
vn -0.000985 0.000230 1.000000
vn -0.897371 0.441276 0.000000
vn -0.897371 0.441276 0.000000
vn 0.000000 -1.000000 0.000000
vn 0.000000 -1.000000 0.000000
vn 0.000000 -1.000000 0.000000
vn 0.000000 -1.000000 0.000000
vn 0.074680 0.378133 -0.922734
vn -0.071593 0.378134 0.922979
vn -0.702967 -0.301505 0.644152
vn -0.702967 -0.301505 0.644152
vn -0.702765 -0.303113 0.643618
vn -0.702634 -0.304146 0.643274
vn -0.702967 -0.301505 -0.644152
vn -0.702967 -0.301505 -0.644152
vn -0.702634 -0.304146 -0.643274
vn -0.702765 -0.303113 -0.643618
vn 0.702345 -0.301354 -0.644901
vn 0.702345 -0.301354 -0.644901
vn 0.702091 -0.303243 -0.644292
vn 0.701919 -0.304511 -0.643881
vn 0.702345 -0.301354 0.644901
vn 0.702345 -0.301354 0.644901
vn 0.701919 -0.304511 0.643881
vn 0.702091 -0.303243 0.644292
vn -0.683448 -0.413662 0.601484
vn -0.683447 -0.413664 -0.601483
vn 0.677730 -0.430689 -0.595977
vn 0.677730 -0.430690 0.595976
s 1
g pCube7
usemtl lambert15SG
f 2/1/1 1/8/2 5/55/3 6/2/4
f 4/36/5 3/51/6 1/8/2 2/1/1
f 6/2/4 5/55/3 52/42/7 51/43/8 56/44/9 55/45/10
s 2
f 8/4/11 7/39/12 10/19/13 9/5/14
s 3
f 7/39/15 45/62/16 11/48/17 10/19/18
s off
f 18/15/19 17/47/20 20/41/21 19/16/22
s 4
f 17/47/23 57/68/24 54/72/25 20/46/26
s 2
f 23/11/27 22/22/28 25/23/29 24/6/30
s 3
f 22/22/31 21/9/32 26/58/33 25/23/34
f 45/62/16 44/61/35 4/3/36 11/48/17
s 5
f 34/26/37 33/27/38 35/28/39 36/29/40
s 6
f 47/49/41 50/70/42 16/50/43 3/51/44
s 4
f 57/68/24 56/67/45 51/60/46 54/72/25
s 7
f 49/52/47 48/53/48 43/54/49 46/69/50
s 5
f 38/30/51 37/31/52 39/32/53 40/33/54
s 6
f 1/8/55 29/13/56 32/56/57 5/55/58
s 3
f 21/9/32 2/14/59 6/10/60 26/58/33
s 5
f 33/27/38 38/30/51 40/33/54 35/28/39
s 6
f 3/51/44 16/50/43 29/13/56 1/8/55
s 3
f 11/48/17 4/3/36 2/14/59 21/9/32
s 5
f 37/31/52 41/34/61 42/35/62 39/32/53
s 6
f 5/55/58 32/56/57 53/57/63 52/42/64
s 3
f 26/58/33 6/10/60 55/59/65 58/73/66
s off
f 7/39/67 8/4/68 12/18/69 13/20/70
s 9
f 13/20/71 12/18/72 14/12/73 15/21/74
f 19/16/75 20/41/76 31/25/77 30/17/78
s 6
f 20/41/79 53/57/63 32/56/57 31/25/80
s 2
f 9/5/14 10/19/13 22/22/28 23/11/27
s 3
f 10/19/18 11/48/17 21/9/32 22/22/31
s 2
f 17/47/81 18/15/82 24/6/30 25/23/29
s 6
f 16/50/43 15/21/83 28/24/84 29/13/56
s 9
f 15/21/74 14/12/73 27/7/85 28/24/86
s 6
f 29/13/56 28/24/84 31/25/80 32/56/57
s 9
f 28/24/86 27/7/85 30/17/78 31/25/77
s 11
f 8/4/87 9/5/88 33/27/89 34/26/90
s 12
f 14/12/91 12/18/92 36/29/93 35/28/94
s off
f 12/18/95 8/4/96 34/26/97 36/29/98
s 11
f 23/11/99 24/6/100 37/31/101 38/30/102
s 12
f 30/17/103 27/7/104 40/33/105 39/32/106
s 11
f 9/5/88 23/11/99 38/30/102 33/27/89
s 12
f 27/7/104 14/12/91 35/28/94 40/33/105
s 11
f 24/6/100 18/15/107 41/34/108 37/31/101
s off
f 18/15/109 19/16/110 42/35/111 41/34/112
s 12
f 19/16/113 30/17/103 39/32/106 42/35/114
s 7
f 46/69/50 7/39/115 13/40/116 49/52/47
s 1
f 48/63/117 47/49/118 3/51/6 4/36/5 44/37/119 43/38/120
s 6
f 50/70/42 13/20/121 15/21/83 16/50/43
s 3
f 58/73/66 17/47/122 25/23/34 26/58/33
s 14
f 43/54/123 44/61/124 45/62/125 46/69/126
s 15
f 47/49/127 48/63/128 49/64/129 50/70/130
s 16
f 51/60/131 52/65/132 53/66/133 54/72/134
s 17
f 55/59/135 56/67/136 57/68/137 58/73/138
s 14
f 45/62/125 7/39/139 46/69/126
s 15
f 49/64/129 13/20/140 50/70/130
s 16
f 53/71/133 20/46/141 54/72/134
s 17
f 57/68/137 17/47/142 58/73/138
