# This file uses centimeters as units for non-parametric coordinates.

mtllib Escritorio.mtl
g default
v -0.600000 0.701086 0.250000
v 0.600000 0.701086 0.250000
v -0.600000 0.750304 -0.250000
v 0.600000 0.750304 -0.250000
v -0.600000 0.701086 -0.250000
v 0.600000 0.701086 -0.250000
v -0.600000 0.750304 0.225394
v -0.600000 0.725697 0.250000
v -0.600000 0.743096 0.242793
v 0.600000 0.750304 0.225394
v 0.600000 0.743096 0.242793
v 0.600000 0.725697 0.250000
v 0.126214 0.000000 0.208291
v 0.156209 0.000000 0.208291
v 0.126214 0.708363 0.208291
v 0.156209 0.708363 0.208291
v 0.126214 0.708363 -0.250000
v 0.156209 0.708363 -0.250000
v 0.126214 0.000000 -0.250000
v 0.156209 0.000000 -0.250000
v 0.156209 0.000000 0.116145
v 0.126214 0.000000 0.116145
v 0.126214 0.708363 0.116145
v 0.156209 0.708363 0.116145
v 0.526394 0.708363 0.116145
v 0.526394 0.000000 0.116145
v 0.526394 0.000000 -0.250000
v 0.526394 0.708363 -0.250000
v 0.518057 0.000000 0.208291
v 0.548052 0.000000 0.208291
v 0.518057 0.708363 0.208291
v 0.548052 0.708363 0.208291
v 0.518057 0.708363 -0.250000
v 0.548052 0.708363 -0.250000
v 0.518057 0.000000 -0.250000
v 0.548052 0.000000 -0.250000
v -0.568596 0.000000 0.208291
v -0.538601 0.000000 0.208291
v -0.568596 0.708363 0.208291
v -0.538601 0.708363 0.208291
v -0.568596 0.708363 -0.250000
v -0.538601 0.708363 -0.250000
v -0.568596 0.000000 -0.250000
v -0.538601 0.000000 -0.250000
vt 0.625000 0.500000
vt 0.375000 0.750000
vt 0.625000 0.750000
vt 0.375000 1.000000
vt 0.625000 1.000000
vt 0.625000 0.262303
vt 0.375000 0.500000
vt 0.375000 0.000000
vt 0.375000 0.262303
vt 0.625000 0.125012
vt 0.362697 0.250000
vt 0.125000 0.250000
vt 0.125000 0.000000
vt 0.375000 0.125012
vt 0.625000 0.000000
vt 0.875000 0.000000
vt 0.875000 0.250000
vt 0.637303 0.250000
vt 0.375000 0.250000
vt 0.625000 0.250000
vt 0.375000 0.000000
vt 0.625000 0.000000
vt 0.625000 0.250000
vt 0.375000 0.250000
vt 0.375000 0.300266
vt 0.625000 0.300266
vt 0.625000 0.500000
vt 0.375000 0.500000
vt 0.625000 0.750000
vt 0.375000 0.750000
vt 0.625000 0.949734
vt 0.375000 0.949734
vt 0.675266 0.250000
vt 0.675266 0.000000
vt 0.875000 0.000000
vt 0.875000 0.250000
vt 0.125000 0.000000
vt 0.324734 0.000000
vt 0.324734 0.250000
vt 0.125000 0.250000
vt 0.625000 1.000000
vt 0.375000 1.000000
vt 0.675266 0.000000
vt 0.675266 0.250000
vt 0.875000 0.000000
vt 0.875000 0.250000
vt 0.375000 0.000000
vt 0.625000 0.000000
vt 0.625000 0.250000
vt 0.375000 0.250000
vt 0.625000 0.500000
vt 0.375000 0.500000
vt 0.625000 0.750000
vt 0.375000 0.750000
vt 0.625000 1.000000
vt 0.375000 1.000000
vt 0.875000 0.000000
vt 0.875000 0.250000
vt 0.125000 0.000000
vt 0.125000 0.250000
vt 0.375000 0.000000
vt 0.625000 0.000000
vt 0.625000 0.250000
vt 0.375000 0.250000
vt 0.625000 0.500000
vt 0.375000 0.500000
vt 0.625000 0.750000
vt 0.375000 0.750000
vt 0.625000 1.000000
vt 0.375000 1.000000
vt 0.875000 0.000000
vt 0.875000 0.250000
vt 0.125000 0.000000
vt 0.125000 0.250000
vn 0.000000 0.000000 1.000000
vn 0.000000 0.000000 1.000000
vn 0.000000 0.169082 0.985602
vn 0.000000 0.169082 0.985602
vn 0.000000 0.999893 0.014623
vn 0.000000 0.999893 0.014623
vn 0.000000 1.000000 0.000000
vn 0.000000 1.000000 0.000000
vn 0.000000 0.000000 -1.000000
vn 0.000000 0.000000 -1.000000
vn 0.000000 0.000000 -1.000000
vn 0.000000 0.000000 -1.000000
vn 0.000000 -1.000000 0.000000
vn 0.000000 -1.000000 0.000000
vn 0.000000 -1.000000 0.000000
vn 0.000000 -1.000000 0.000000
vn 0.000000 0.923879 0.382684
vn 0.000000 0.923879 0.382684
vn 0.000000 0.382683 0.923880
vn 0.000000 0.382683 0.923880
vn -1.000000 0.000000 0.000000
vn -1.000000 0.000000 0.000000
vn -1.000000 0.000000 0.000000
vn -1.000000 0.000000 0.000000
vn -1.000000 0.000000 0.000000
vn -1.000000 0.000000 0.000000
vn 1.000000 0.000000 0.000000
vn 1.000000 0.000000 0.000000
vn 1.000000 0.000000 0.000000
vn 1.000000 0.000000 0.000000
vn 1.000000 0.000000 0.000000
vn 1.000000 0.000000 0.000000
vn 0.000000 0.000000 1.000000
vn 0.000000 0.000000 1.000000
vn 0.000000 0.000000 1.000000
vn 0.000000 0.000000 1.000000
vn 0.000000 1.000000 0.000000
vn 0.000000 1.000000 0.000000
vn 0.000000 1.000000 0.000000
vn 0.000000 1.000000 0.000000
vn 0.000000 0.000000 -1.000000
vn -0.000000 0.000000 -1.000000
vn -0.000000 0.000000 -1.000000
vn 0.000000 0.000000 -1.000000
vn 0.000000 -1.000000 0.000000
vn 0.000000 -1.000000 0.000000
vn 0.000000 -1.000000 0.000000
vn 0.000000 -1.000000 0.000000
vn 1.000000 0.000000 0.000000
vn 1.000000 0.000000 0.000000
vn 1.000000 0.000000 0.000000
vn 1.000000 0.000000 0.000000
vn -1.000000 0.000000 0.000000
vn -1.000000 0.000000 0.000000
vn -1.000000 0.000000 0.000000
vn -1.000000 0.000000 0.000000
vn 0.000000 -1.000000 0.000000
vn 0.000000 -1.000000 0.000000
vn -1.000000 0.000000 0.000000
vn -1.000000 0.000000 0.000000
vn 0.000000 1.000000 0.000000
vn 0.000000 1.000000 0.000000
vn 1.000000 0.000000 0.000000
vn 1.000000 0.000000 0.000000
vn 1.000000 0.000000 0.000000
vn 1.000000 0.000000 0.000000
vn 0.000000 0.000000 1.000000
vn 0.000000 0.000000 1.000000
vn 0.000000 0.000000 1.000000
vn 0.000000 0.000000 1.000000
vn 0.000000 -1.000000 0.000000
vn 0.000000 -1.000000 0.000000
vn -0.000000 0.000000 -1.000000
vn -0.000000 0.000000 -1.000000
vn 0.000000 1.000000 0.000000
vn 0.000000 1.000000 0.000000
vn 0.000000 0.000000 1.000000
vn 0.000000 0.000000 1.000000
vn 0.000000 0.000000 1.000000
vn 0.000000 0.000000 1.000000
vn 0.000000 1.000000 0.000000
vn 0.000000 1.000000 0.000000
vn 0.000000 1.000000 0.000000
vn 0.000000 1.000000 0.000000
vn 0.000000 0.000000 -1.000000
vn 0.000000 0.000000 -1.000000
vn 0.000000 0.000000 -1.000000
vn 0.000000 0.000000 -1.000000
vn 0.000000 -1.000000 0.000000
vn 0.000000 -1.000000 0.000000
vn 0.000000 -1.000000 0.000000
vn 0.000000 -1.000000 0.000000
vn 1.000000 0.000000 0.000000
vn 1.000000 0.000000 0.000000
vn 1.000000 0.000000 0.000000
vn 1.000000 0.000000 0.000000
vn -1.000000 0.000000 0.000000
vn -1.000000 0.000000 0.000000
vn -1.000000 0.000000 0.000000
vn -1.000000 0.000000 0.000000
vn 0.000000 0.000000 1.000000
vn 0.000000 0.000000 1.000000
vn 0.000000 0.000000 1.000000
vn 0.000000 0.000000 1.000000
vn 0.000000 1.000000 0.000000
vn 0.000000 1.000000 0.000000
vn 0.000000 1.000000 0.000000
vn 0.000000 1.000000 0.000000
vn 0.000000 0.000000 -1.000000
vn 0.000000 0.000000 -1.000000
vn 0.000000 0.000000 -1.000000
vn 0.000000 0.000000 -1.000000
vn 0.000000 -1.000000 0.000000
vn 0.000000 -1.000000 0.000000
vn 0.000000 -1.000000 0.000000
vn 0.000000 -1.000000 0.000000
vn 1.000000 0.000000 0.000000
vn 1.000000 0.000000 0.000000
vn 1.000000 0.000000 0.000000
vn 1.000000 0.000000 0.000000
vn -1.000000 0.000000 0.000000
vn -1.000000 0.000000 0.000000
vn -1.000000 0.000000 0.000000
vn -1.000000 0.000000 0.000000
s 1
g pCube9
usemtl lambert3SG
f 1/8/1 2/15/2 12/10/3 8/14/4
s 2
f 7/9/5 10/6/6 4/1/7 3/7/8
s off
f 3/7/9 4/1/10 6/3/11 5/2/12
f 5/2/13 6/3/14 2/5/15 1/4/16
s 2
f 7/9/5 9/19/17 11/20/18 10/6/6
s 1
f 9/19/19 8/14/4 12/10/3 11/20/20
s off
f 7/11/21 3/12/22 5/13/23 1/8/24 8/14/25 9/19/26
f 2/15/27 6/16/28 4/17/29 10/18/30 11/20/31 12/10/32
usemtl lambert12SG
f 13/21/33 14/22/34 16/23/35 15/24/36
s 3
f 23/25/37 24/26/38 18/27/39 17/28/40
s 4
f 17/28/41 18/27/42 20/29/43 19/30/44
s 5
f 19/30/45 20/29/46 21/31/47 22/32/48
s off
f 25/33/49 26/34/50 27/35/51 28/36/52
s 6
f 19/37/53 22/38/54 23/39/55 17/40/56
s 5
f 22/32/48 21/31/47 14/41/57 13/42/58
s 6
f 23/39/55 22/38/54 13/21/59 15/24/60
s 3
f 15/24/61 16/23/62 24/26/38 23/25/37
s off
f 14/22/63 21/43/64 24/44/65 16/23/66
f 24/44/67 21/43/68 26/34/69 25/33/70
s 5
f 21/43/47 20/45/46 27/35/71 26/34/72
s 4
f 20/45/43 18/46/42 28/36/73 27/35/74
s 3
f 18/46/39 24/44/38 25/33/75 28/36/76
s off
f 29/47/77 30/48/78 32/49/79 31/50/80
f 31/50/81 32/49/82 34/51/83 33/52/84
f 33/52/85 34/51/86 36/53/87 35/54/88
f 35/54/89 36/53/90 30/55/91 29/56/92
f 30/48/93 36/57/94 34/58/95 32/49/96
f 35/59/97 29/47/98 31/50/99 33/60/100
f 37/61/101 38/62/102 40/63/103 39/64/104
f 39/64/105 40/63/106 42/65/107 41/66/108
f 41/66/109 42/65/110 44/67/111 43/68/112
f 43/68/113 44/67/114 38/69/115 37/70/116
f 38/62/117 44/71/118 42/72/119 40/63/120
f 43/73/121 37/61/122 39/64/123 41/74/124
