# This file uses centimeters as units for non-parametric coordinates.

mtllib MesaDeCentro.mtl
g default
v -0.741433 0.319715 0.191433
v -0.741433 0.328282 0.200000
v -0.750000 0.328282 0.191433
v 0.750000 0.328282 0.191433
v 0.741433 0.328282 0.200000
v 0.741433 0.319715 0.191433
v -0.750000 0.345419 0.191433
v -0.741433 0.345419 0.200000
v -0.741433 0.353986 0.191433
v 0.741433 0.353986 0.191433
v 0.741433 0.345419 0.200000
v 0.750000 0.345419 0.191433
v -0.750000 0.345419 -0.191433
v -0.741433 0.353986 -0.191433
v -0.741433 0.345419 -0.200000
v 0.741433 0.345419 -0.200000
v 0.741433 0.353986 -0.191433
v 0.750000 0.345419 -0.191433
v -0.750000 0.328282 -0.191433
v -0.741433 0.328282 -0.200000
v -0.741433 0.319715 -0.191433
v 0.741433 0.319715 -0.191433
v 0.741433 0.328282 -0.200000
v 0.750000 0.328282 -0.191433
v -0.723309 0.000000 0.167201
v -0.678937 0.000000 0.167201
v -0.723309 0.700000 0.167201
v -0.678937 0.700000 0.167201
v -0.723309 0.700000 0.126369
v -0.678937 0.700000 0.126369
v -0.723309 0.000000 0.126369
v -0.678937 0.000000 0.126369
v -0.741433 0.663543 0.191433
v -0.741433 0.672109 0.200000
v -0.750000 0.672109 0.191433
v 0.750000 0.672109 0.191433
v 0.741433 0.672109 0.200000
v 0.741433 0.663543 0.191433
v -0.750000 0.689247 0.191433
v -0.741433 0.689247 0.200000
v -0.741433 0.697814 0.191433
v 0.741433 0.697814 0.191433
v 0.741433 0.689247 0.200000
v 0.750000 0.689247 0.191433
v -0.750000 0.689247 -0.191433
v -0.741433 0.697814 -0.191433
v -0.741433 0.689247 -0.200000
v 0.741433 0.689247 -0.200000
v 0.741433 0.697814 -0.191433
v 0.750000 0.689247 -0.191433
v -0.750000 0.672109 -0.191433
v -0.741433 0.672109 -0.200000
v -0.741433 0.663543 -0.191433
v 0.741433 0.663543 -0.191433
v 0.741433 0.672109 -0.200000
v 0.750000 0.672109 -0.191433
v 0.672633 0.000000 0.167201
v 0.717005 0.000000 0.167201
v 0.672633 0.700000 0.167201
v 0.717005 0.700000 0.167201
v 0.672633 0.700000 0.126369
v 0.717005 0.700000 0.126369
v 0.672633 0.000000 0.126369
v 0.717005 0.000000 0.126369
v -0.723309 0.000000 -0.133631
v -0.678937 0.000000 -0.133631
v -0.723309 0.700000 -0.133631
v -0.678937 0.700000 -0.133631
v -0.723309 0.700000 -0.174463
v -0.678937 0.700000 -0.174463
v -0.723309 0.000000 -0.174463
v -0.678937 0.000000 -0.174463
v -0.741433 0.489880 0.191433
v -0.741433 0.498447 0.200000
v -0.750000 0.498447 0.191433
v 0.750000 0.498447 0.191433
v 0.741433 0.498447 0.200000
v 0.741433 0.489880 0.191433
v -0.750000 0.515584 0.191433
v -0.741433 0.515584 0.200000
v -0.741433 0.524151 0.191433
v 0.741433 0.524151 0.191433
v 0.741433 0.515584 0.200000
v 0.750000 0.515584 0.191433
v -0.750000 0.515584 -0.191433
v -0.741433 0.524151 -0.191433
v -0.741433 0.515584 -0.200000
v 0.741433 0.515584 -0.200000
v 0.741433 0.524151 -0.191433
v 0.750000 0.515584 -0.191433
v -0.750000 0.498447 -0.191433
v -0.741433 0.498447 -0.200000
v -0.741433 0.489880 -0.191433
v 0.741433 0.489880 -0.191433
v 0.741433 0.498447 -0.200000
v 0.750000 0.498447 -0.191433
v 0.672633 0.000000 -0.133631
v 0.717005 0.000000 -0.133631
v 0.672633 0.700000 -0.133631
v 0.717005 0.700000 -0.133631
v 0.672633 0.700000 -0.174463
v 0.717005 0.700000 -0.174463
v 0.672633 0.000000 -0.174463
v 0.717005 0.000000 -0.174463
vt 0.376428 0.994646
vt 0.375000 0.994646
vt 0.375000 0.755354
vt 0.376428 0.000000
vt 0.376428 0.062494
vt 0.625000 0.994646
vt 0.623572 0.994646
vt 0.625000 0.755354
vt 0.630354 0.062494
vt 0.375000 0.255354
vt 0.375000 0.494646
vt 0.376428 0.187506
vt 0.623572 0.187506
vt 0.625000 0.255354
vt 0.375000 0.562494
vt 0.375000 0.687506
vt 0.376428 0.494646
vt 0.623572 0.494646
vt 0.625000 0.562494
vt 0.625000 0.687506
vt 0.376428 0.687506
vt 0.623572 0.687506
vt 0.623572 0.755354
vt 0.623572 0.062494
vt 0.376428 0.255354
vt 0.623572 0.255354
vt 0.376428 0.562494
vt 0.623572 0.562494
vt 0.376428 0.755354
vt 0.869646 0.062494
vt 0.869646 0.187506
vt 0.130354 0.062494
vt 0.369646 0.062494
vt 0.369646 0.187506
vt 0.130354 0.187506
vt 0.623572 0.000000
vt 0.630354 0.187506
vt 0.625000 0.494646
vt 0.375000 0.000000
vt 0.625000 0.000000
vt 0.625000 0.250000
vt 0.375000 0.250000
vt 0.625000 0.500000
vt 0.375000 0.500000
vt 0.625000 0.750000
vt 0.375000 0.750000
vt 0.625000 1.000000
vt 0.375000 1.000000
vt 0.875000 0.000000
vt 0.875000 0.250000
vt 0.125000 0.000000
vt 0.125000 0.250000
vt 0.376428 0.994646
vt 0.375000 0.994646
vt 0.375000 0.755354
vt 0.376428 0.755354
vt 0.376428 0.062494
vt 0.376428 0.000000
vt 0.623572 0.000000
vt 0.623572 0.062494
vt 0.369646 0.062494
vt 0.376428 0.187506
vt 0.369646 0.187506
vt 0.625000 0.994646
vt 0.623572 0.994646
vt 0.623572 0.755354
vt 0.625000 0.755354
vt 0.630354 0.062494
vt 0.630354 0.187506
vt 0.623572 0.187506
vt 0.375000 0.255354
vt 0.376428 0.255354
vt 0.376428 0.494646
vt 0.375000 0.494646
vt 0.623572 0.255354
vt 0.625000 0.255354
vt 0.625000 0.494646
vt 0.623572 0.494646
vt 0.375000 0.562494
vt 0.376428 0.562494
vt 0.376428 0.687506
vt 0.375000 0.687506
vt 0.623572 0.562494
vt 0.625000 0.562494
vt 0.625000 0.687506
vt 0.623572 0.687506
vt 0.869646 0.062494
vt 0.869646 0.187506
vt 0.130354 0.062494
vt 0.130354 0.187506
vt 0.375000 0.000000
vt 0.625000 0.000000
vt 0.625000 0.250000
vt 0.375000 0.250000
vt 0.625000 0.500000
vt 0.375000 0.500000
vt 0.625000 0.750000
vt 0.375000 0.750000
vt 0.625000 1.000000
vt 0.375000 1.000000
vt 0.875000 0.000000
vt 0.875000 0.250000
vt 0.125000 0.000000
vt 0.125000 0.250000
vt 0.375000 0.000000
vt 0.625000 0.000000
vt 0.625000 0.250000
vt 0.375000 0.250000
vt 0.625000 0.500000
vt 0.375000 0.500000
vt 0.625000 0.750000
vt 0.375000 0.750000
vt 0.625000 1.000000
vt 0.375000 1.000000
vt 0.875000 0.000000
vt 0.875000 0.250000
vt 0.125000 0.000000
vt 0.125000 0.250000
vt 0.376428 0.994646
vt 0.375000 0.994646
vt 0.375000 0.755354
vt 0.376428 0.755354
vt 0.376428 0.062494
vt 0.376428 0.000000
vt 0.623572 0.000000
vt 0.623572 0.062494
vt 0.369646 0.062494
vt 0.376428 0.187506
vt 0.369646 0.187506
vt 0.625000 0.994646
vt 0.623572 0.994646
vt 0.623572 0.755354
vt 0.625000 0.755354
vt 0.630354 0.062494
vt 0.630354 0.187506
vt 0.623572 0.187506
vt 0.375000 0.255354
vt 0.376428 0.255354
vt 0.376428 0.494646
vt 0.375000 0.494646
vt 0.623572 0.255354
vt 0.625000 0.255354
vt 0.625000 0.494646
vt 0.623572 0.494646
vt 0.375000 0.562494
vt 0.376428 0.562494
vt 0.376428 0.687506
vt 0.375000 0.687506
vt 0.623572 0.562494
vt 0.625000 0.562494
vt 0.625000 0.687506
vt 0.623572 0.687506
vt 0.869646 0.062494
vt 0.869646 0.187506
vt 0.130354 0.062494
vt 0.130354 0.187506
vt 0.375000 0.000000
vt 0.625000 0.000000
vt 0.625000 0.250000
vt 0.375000 0.250000
vt 0.625000 0.500000
vt 0.375000 0.500000
vt 0.625000 0.750000
vt 0.375000 0.750000
vt 0.625000 1.000000
vt 0.375000 1.000000
vt 0.875000 0.000000
vt 0.875000 0.250000
vt 0.125000 0.000000
vt 0.125000 0.250000
vn -0.707110 -0.707104 0.000000
vn -0.707110 -0.707104 0.000000
vn -0.707110 -0.707104 0.000000
vn -0.707110 -0.707104 0.000000
vn 0.000000 -0.707107 0.707106
vn 0.000000 -0.707107 0.707106
vn 0.000000 -0.707107 0.707106
vn 0.000000 -0.707107 0.707106
vn -0.707110 0.000000 0.707104
vn -0.707110 0.000000 0.707104
vn -0.707110 0.000000 0.707104
vn -0.707110 0.000000 0.707104
vn 0.707110 -0.707104 0.000000
vn 0.707110 -0.707104 0.000000
vn 0.707110 -0.707104 0.000000
vn 0.707110 -0.707104 0.000000
vn 0.707110 0.000000 0.707104
vn 0.707110 0.000000 0.707104
vn 0.707110 0.000000 0.707104
vn 0.707110 0.000000 0.707104
vn -0.707110 0.707104 0.000000
vn -0.707110 0.707104 0.000000
vn -0.707110 0.707104 0.000000
vn -0.707110 0.707104 0.000000
vn 0.000000 0.707107 0.707107
vn 0.000000 0.707107 0.707107
vn 0.000000 0.707107 0.707107
vn 0.000000 0.707107 0.707107
vn 0.707110 0.707104 0.000000
vn 0.707110 0.707104 0.000000
vn 0.707110 0.707104 0.000000
vn 0.707110 0.707104 0.000000
vn -0.707110 0.000000 -0.707104
vn -0.707110 0.000000 -0.707104
vn -0.707110 0.000000 -0.707104
vn -0.707110 0.000000 -0.707104
vn 0.000000 0.707107 -0.707107
vn 0.000000 0.707107 -0.707107
vn 0.000000 0.707107 -0.707107
vn 0.000000 0.707107 -0.707107
vn 0.707110 0.000000 -0.707104
vn 0.707110 0.000000 -0.707104
vn 0.707110 0.000000 -0.707104
vn 0.707110 0.000000 -0.707104
vn 0.000000 -0.707107 -0.707106
vn 0.000000 -0.707107 -0.707106
vn 0.000000 -0.707107 -0.707106
vn 0.000000 -0.707107 -0.707106
vn 0.000000 0.000000 1.000000
vn 0.000000 0.000000 1.000000
vn 0.000000 0.000000 1.000000
vn 0.000000 0.000000 1.000000
vn 0.000000 1.000000 0.000000
vn 0.000000 1.000000 0.000000
vn 0.000000 1.000000 0.000000
vn 0.000000 1.000000 0.000000
vn 0.000000 0.000000 -1.000000
vn 0.000000 0.000000 -1.000000
vn 0.000000 0.000000 -1.000000
vn 0.000000 0.000000 -1.000000
vn 0.000000 -1.000000 0.000000
vn 0.000000 -1.000000 0.000000
vn 0.000000 -1.000000 0.000000
vn 0.000000 -1.000000 0.000000
vn 1.000000 0.000000 0.000000
vn 1.000000 0.000000 0.000000
vn 1.000000 0.000000 0.000000
vn 1.000000 0.000000 0.000000
vn -1.000000 0.000000 0.000000
vn -1.000000 0.000000 0.000000
vn -1.000000 0.000000 0.000000
vn -1.000000 0.000000 0.000000
vn -0.577353 -0.577345 0.577353
vn -0.577353 -0.577345 0.577353
vn -0.577353 -0.577345 0.577353
vn 0.577353 -0.577345 0.577353
vn 0.577353 -0.577345 0.577353
vn 0.577353 -0.577345 0.577353
vn -0.577354 0.577347 0.577350
vn -0.577354 0.577347 0.577350
vn -0.577354 0.577347 0.577350
vn 0.577354 0.577347 0.577350
vn 0.577354 0.577347 0.577350
vn 0.577354 0.577347 0.577350
vn -0.577354 0.577347 -0.577350
vn -0.577354 0.577347 -0.577350
vn -0.577354 0.577347 -0.577350
vn 0.577354 0.577347 -0.577350
vn 0.577354 0.577347 -0.577350
vn 0.577354 0.577347 -0.577350
vn -0.577353 -0.577345 -0.577353
vn -0.577353 -0.577345 -0.577353
vn -0.577353 -0.577345 -0.577353
vn 0.577353 -0.577345 -0.577353
vn 0.577353 -0.577345 -0.577353
vn 0.577353 -0.577345 -0.577353
vn 0.000000 0.000000 1.000000
vn 0.000000 0.000000 1.000000
vn 0.000000 0.000000 1.000000
vn 0.000000 0.000000 1.000000
vn 0.000000 1.000000 0.000000
vn 0.000000 1.000000 0.000000
vn 0.000000 1.000000 0.000000
vn 0.000000 1.000000 0.000000
vn 0.000000 0.000000 -1.000000
vn 0.000000 0.000000 -1.000000
vn 0.000000 0.000000 -1.000000
vn 0.000000 0.000000 -1.000000
vn 0.000000 -1.000000 0.000000
vn 0.000000 -1.000000 0.000000
vn 0.000000 -1.000000 0.000000
vn 0.000000 -1.000000 0.000000
vn 1.000000 0.000000 0.000000
vn 1.000000 0.000000 0.000000
vn 1.000000 0.000000 0.000000
vn 1.000000 0.000000 0.000000
vn -1.000000 0.000000 0.000000
vn -1.000000 0.000000 0.000000
vn -1.000000 0.000000 0.000000
vn -1.000000 0.000000 0.000000
vn -0.707110 -0.707104 0.000000
vn -0.707110 -0.707104 0.000000
vn -0.707110 -0.707104 0.000000
vn -0.707110 -0.707104 0.000000
vn 0.000000 -0.707107 0.707107
vn 0.000000 -0.707107 0.707107
vn 0.000000 -0.707107 0.707107
vn 0.000000 -0.707107 0.707107
vn -0.707109 0.000000 0.707105
vn -0.707109 0.000000 0.707105
vn -0.707109 0.000000 0.707105
vn -0.707109 0.000000 0.707105
vn 0.707110 -0.707104 0.000000
vn 0.707110 -0.707104 0.000000
vn 0.707110 -0.707104 0.000000
vn 0.707110 -0.707104 0.000000
vn 0.707109 0.000000 0.707105
vn 0.707109 0.000000 0.707105
vn 0.707109 0.000000 0.707105
vn 0.707109 0.000000 0.707105
vn -0.707110 0.707104 0.000000
vn -0.707110 0.707104 0.000000
vn -0.707110 0.707104 0.000000
vn -0.707110 0.707104 0.000000
vn 0.000000 0.707108 0.707105
vn 0.000000 0.707108 0.707105
vn 0.000000 0.707108 0.707105
vn 0.000000 0.707108 0.707105
vn 0.707110 0.707104 0.000000
vn 0.707110 0.707104 0.000000
vn 0.707110 0.707104 0.000000
vn 0.707110 0.707104 0.000000
vn -0.707109 0.000000 -0.707105
vn -0.707109 0.000000 -0.707105
vn -0.707109 0.000000 -0.707105
vn -0.707109 0.000000 -0.707105
vn 0.000000 0.707108 -0.707105
vn 0.000000 0.707108 -0.707105
vn 0.000000 0.707108 -0.707105
vn 0.000000 0.707108 -0.707105
vn 0.707109 0.000000 -0.707105
vn 0.707109 0.000000 -0.707105
vn 0.707109 0.000000 -0.707105
vn 0.707109 0.000000 -0.707105
vn 0.000000 -0.707107 -0.707107
vn 0.000000 -0.707107 -0.707107
vn 0.000000 -0.707107 -0.707107
vn 0.000000 -0.707107 -0.707107
vn 0.000000 0.000000 1.000000
vn 0.000000 0.000000 1.000000
vn 0.000000 0.000000 1.000000
vn 0.000000 0.000000 1.000000
vn 0.000000 1.000000 0.000000
vn 0.000000 1.000000 0.000000
vn 0.000000 1.000000 0.000000
vn 0.000000 1.000000 0.000000
vn 0.000000 0.000000 -1.000000
vn 0.000000 0.000000 -1.000000
vn 0.000000 0.000000 -1.000000
vn 0.000000 0.000000 -1.000000
vn 0.000000 -1.000000 0.000000
vn 0.000000 -1.000000 0.000000
vn 0.000000 -1.000000 0.000000
vn 0.000000 -1.000000 0.000000
vn 1.000000 0.000000 0.000000
vn 1.000000 0.000000 0.000000
vn 1.000000 0.000000 0.000000
vn 1.000000 0.000000 0.000000
vn -1.000000 0.000000 0.000000
vn -1.000000 0.000000 0.000000
vn -1.000000 0.000000 0.000000
vn -1.000000 0.000000 0.000000
vn -0.577353 -0.577345 0.577353
vn -0.577353 -0.577345 0.577353
vn -0.577353 -0.577345 0.577353
vn 0.577353 -0.577345 0.577353
vn 0.577353 -0.577345 0.577353
vn 0.577353 -0.577345 0.577353
vn -0.577353 0.577345 0.577353
vn -0.577353 0.577345 0.577353
vn -0.577353 0.577345 0.577353
vn 0.577353 0.577345 0.577353
vn 0.577353 0.577345 0.577353
vn 0.577353 0.577345 0.577353
vn -0.577353 0.577345 -0.577353
vn -0.577353 0.577345 -0.577353
vn -0.577353 0.577345 -0.577353
vn 0.577353 0.577345 -0.577353
vn 0.577353 0.577345 -0.577353
vn 0.577353 0.577345 -0.577353
vn -0.577353 -0.577345 -0.577353
vn -0.577353 -0.577345 -0.577353
vn -0.577353 -0.577345 -0.577353
vn 0.577353 -0.577345 -0.577353
vn 0.577353 -0.577345 -0.577353
vn 0.577353 -0.577345 -0.577353
vn 0.000000 0.000000 1.000000
vn 0.000000 0.000000 1.000000
vn 0.000000 0.000000 1.000000
vn 0.000000 0.000000 1.000000
vn 0.000000 1.000000 0.000000
vn 0.000000 1.000000 0.000000
vn 0.000000 1.000000 0.000000
vn 0.000000 1.000000 0.000000
vn 0.000000 0.000000 -1.000000
vn 0.000000 0.000000 -1.000000
vn 0.000000 0.000000 -1.000000
vn 0.000000 0.000000 -1.000000
vn 0.000000 -1.000000 0.000000
vn 0.000000 -1.000000 0.000000
vn 0.000000 -1.000000 0.000000
vn 0.000000 -1.000000 0.000000
vn 1.000000 0.000000 0.000000
vn 1.000000 0.000000 0.000000
vn 1.000000 0.000000 0.000000
vn 1.000000 0.000000 0.000000
vn -1.000000 0.000000 0.000000
vn -1.000000 0.000000 0.000000
vn -1.000000 0.000000 0.000000
vn -1.000000 0.000000 0.000000
vn 0.000000 0.000000 1.000000
vn 0.000000 0.000000 1.000000
vn 0.000000 0.000000 1.000000
vn 0.000000 0.000000 1.000000
vn 0.000000 1.000000 0.000000
vn 0.000000 1.000000 0.000000
vn 0.000000 1.000000 0.000000
vn 0.000000 1.000000 0.000000
vn 0.000000 0.000000 -1.000000
vn 0.000000 0.000000 -1.000000
vn 0.000000 0.000000 -1.000000
vn 0.000000 0.000000 -1.000000
vn 0.000000 -1.000000 0.000000
vn 0.000000 -1.000000 0.000000
vn 0.000000 -1.000000 0.000000
vn 0.000000 -1.000000 0.000000
vn 1.000000 0.000000 0.000000
vn 1.000000 0.000000 0.000000
vn 1.000000 0.000000 0.000000
vn 1.000000 0.000000 0.000000
vn -1.000000 0.000000 0.000000
vn -1.000000 0.000000 0.000000
vn -1.000000 0.000000 0.000000
vn -1.000000 0.000000 0.000000
vn -0.707110 -0.707104 0.000000
vn -0.707110 -0.707104 0.000000
vn -0.707110 -0.707104 0.000000
vn -0.707110 -0.707104 0.000000
vn 0.000000 -0.707107 0.707107
vn 0.000000 -0.707107 0.707107
vn 0.000000 -0.707107 0.707107
vn 0.000000 -0.707107 0.707107
vn -0.707109 0.000000 0.707105
vn -0.707109 0.000000 0.707105
vn -0.707109 0.000000 0.707105
vn -0.707109 0.000000 0.707105
vn 0.707110 -0.707104 0.000000
vn 0.707110 -0.707104 0.000000
vn 0.707110 -0.707104 0.000000
vn 0.707110 -0.707104 0.000000
vn 0.707109 0.000000 0.707105
vn 0.707109 0.000000 0.707105
vn 0.707109 0.000000 0.707105
vn 0.707109 0.000000 0.707105
vn -0.707110 0.707104 0.000000
vn -0.707110 0.707104 0.000000
vn -0.707110 0.707104 0.000000
vn -0.707110 0.707104 0.000000
vn 0.000000 0.707107 0.707107
vn 0.000000 0.707107 0.707107
vn 0.000000 0.707107 0.707107
vn 0.000000 0.707107 0.707107
vn 0.707110 0.707104 0.000000
vn 0.707110 0.707104 0.000000
vn 0.707110 0.707104 0.000000
vn 0.707110 0.707104 0.000000
vn -0.707109 0.000000 -0.707105
vn -0.707109 0.000000 -0.707105
vn -0.707109 0.000000 -0.707105
vn -0.707109 0.000000 -0.707105
vn 0.000000 0.707107 -0.707107
vn 0.000000 0.707107 -0.707107
vn 0.000000 0.707107 -0.707107
vn 0.000000 0.707107 -0.707107
vn 0.707109 0.000000 -0.707105
vn 0.707109 0.000000 -0.707105
vn 0.707109 0.000000 -0.707105
vn 0.707109 0.000000 -0.707105
vn 0.000000 -0.707107 -0.707107
vn 0.000000 -0.707107 -0.707107
vn 0.000000 -0.707107 -0.707107
vn 0.000000 -0.707107 -0.707107
vn 0.000000 0.000000 1.000000
vn 0.000000 0.000000 1.000000
vn 0.000000 0.000000 1.000000
vn 0.000000 0.000000 1.000000
vn 0.000000 1.000000 0.000000
vn 0.000000 1.000000 0.000000
vn 0.000000 1.000000 0.000000
vn 0.000000 1.000000 0.000000
vn 0.000000 0.000000 -1.000000
vn 0.000000 0.000000 -1.000000
vn 0.000000 0.000000 -1.000000
vn 0.000000 0.000000 -1.000000
vn 0.000000 -1.000000 0.000000
vn 0.000000 -1.000000 0.000000
vn 0.000000 -1.000000 0.000000
vn 0.000000 -1.000000 0.000000
vn 1.000000 0.000000 0.000000
vn 1.000000 0.000000 0.000000
vn 1.000000 0.000000 0.000000
vn 1.000000 0.000000 0.000000
vn -1.000000 0.000000 0.000000
vn -1.000000 0.000000 0.000000
vn -1.000000 0.000000 0.000000
vn -1.000000 0.000000 0.000000
vn -0.577355 -0.577348 0.577348
vn -0.577355 -0.577348 0.577348
vn -0.577355 -0.577348 0.577348
vn 0.577355 -0.577348 0.577348
vn 0.577355 -0.577348 0.577348
vn 0.577355 -0.577348 0.577348
vn -0.577353 0.577345 0.577353
vn -0.577353 0.577345 0.577353
vn -0.577353 0.577345 0.577353
vn 0.577353 0.577345 0.577353
vn 0.577353 0.577345 0.577353
vn 0.577353 0.577345 0.577353
vn -0.577353 0.577345 -0.577353
vn -0.577353 0.577345 -0.577353
vn -0.577353 0.577345 -0.577353
vn 0.577353 0.577345 -0.577353
vn 0.577353 0.577345 -0.577353
vn 0.577353 0.577345 -0.577353
vn -0.577355 -0.577348 -0.577348
vn -0.577355 -0.577348 -0.577348
vn -0.577355 -0.577348 -0.577348
vn 0.577355 -0.577348 -0.577348
vn 0.577355 -0.577348 -0.577348
vn 0.577355 -0.577348 -0.577348
vn 0.000000 0.000000 1.000000
vn 0.000000 0.000000 1.000000
vn 0.000000 0.000000 1.000000
vn 0.000000 0.000000 1.000000
vn 0.000000 1.000000 0.000000
vn 0.000000 1.000000 0.000000
vn 0.000000 1.000000 0.000000
vn 0.000000 1.000000 0.000000
vn 0.000000 0.000000 -1.000000
vn 0.000000 0.000000 -1.000000
vn 0.000000 0.000000 -1.000000
vn 0.000000 0.000000 -1.000000
vn 0.000000 -1.000000 0.000000
vn 0.000000 -1.000000 0.000000
vn 0.000000 -1.000000 0.000000
vn 0.000000 -1.000000 0.000000
vn 1.000000 0.000000 0.000000
vn 1.000000 0.000000 0.000000
vn 1.000000 0.000000 0.000000
vn 1.000000 0.000000 0.000000
vn -1.000000 0.000000 0.000000
vn -1.000000 0.000000 0.000000
vn -1.000000 0.000000 0.000000
vn -1.000000 0.000000 0.000000
s off
g pasted__pasted__pasted__pCube1
usemtl lambert11SG
f 1/1/1 3/2/2 19/3/3 21/29/4
f 2/5/5 1/4/6 6/36/7 5/24/8
f 3/33/9 2/5/10 8/12/11 7/34/12
f 4/6/13 6/7/14 22/23/15 24/8/16
f 5/24/17 4/9/18 12/37/19 11/13/20
f 7/10/21 9/25/22 14/17/23 13/11/24
f 9/25/25 8/12/26 11/13/27 10/26/28
f 10/26/29 12/14/30 18/38/31 17/18/32
f 13/15/33 15/27/34 20/21/35 19/16/36
f 15/27/37 14/17/38 17/18/39 16/28/40
f 16/28/41 18/19/42 24/20/43 23/22/44
f 21/29/45 20/21/46 23/22/47 22/23/48
f 2/5/49 5/24/50 11/13/51 8/12/52
f 9/25/53 10/26/54 17/18/55 14/17/56
f 15/27/57 16/28/58 23/22/59 20/21/60
f 21/29/61 22/23/62 6/7/63 1/1/64
f 4/9/65 24/30/66 18/31/67 12/37/68
f 19/32/69 3/33/70 7/34/71 13/35/72
f 1/4/73 2/5/74 3/33/75
f 4/9/76 5/24/77 6/36/78
f 7/34/79 8/12/80 9/25/81
f 10/26/82 11/13/83 12/37/84
f 13/11/85 14/17/86 15/27/87
f 16/28/88 17/18/89 18/38/90
f 19/16/91 20/21/92 21/29/93
f 22/23/94 23/22/95 24/20/96
f 25/39/97 26/40/98 28/41/99 27/42/100
f 27/42/101 28/41/102 30/43/103 29/44/104
f 29/44/105 30/43/106 32/45/107 31/46/108
f 31/46/109 32/45/110 26/47/111 25/48/112
f 26/40/113 32/49/114 30/50/115 28/41/116
f 31/51/117 25/39/118 27/42/119 29/52/120
f 33/53/121 35/54/122 51/55/123 53/56/124
f 34/57/125 33/58/126 38/59/127 37/60/128
f 35/61/129 34/57/130 40/62/131 39/63/132
f 36/64/133 38/65/134 54/66/135 56/67/136
f 37/60/137 36/68/138 44/69/139 43/70/140
f 39/71/141 41/72/142 46/73/143 45/74/144
f 41/72/145 40/62/146 43/70/147 42/75/148
f 42/75/149 44/76/150 50/77/151 49/78/152
f 45/79/153 47/80/154 52/81/155 51/82/156
f 47/80/157 46/73/158 49/78/159 48/83/160
f 48/83/161 50/84/162 56/85/163 55/86/164
f 53/56/165 52/81/166 55/86/167 54/66/168
f 34/57/169 37/60/170 43/70/171 40/62/172
f 41/72/173 42/75/174 49/78/175 46/73/176
f 47/80/177 48/83/178 55/86/179 52/81/180
f 53/56/181 54/66/182 38/65/183 33/53/184
f 36/68/185 56/87/186 50/88/187 44/69/188
f 51/89/189 35/61/190 39/63/191 45/90/192
f 33/58/193 34/57/194 35/61/195
f 36/68/196 37/60/197 38/59/198
f 39/63/199 40/62/200 41/72/201
f 42/75/202 43/70/203 44/69/204
f 45/74/205 46/73/206 47/80/207
f 48/83/208 49/78/209 50/77/210
f 51/82/211 52/81/212 53/56/213
f 54/66/214 55/86/215 56/85/216
f 57/91/217 58/92/218 60/93/219 59/94/220
f 59/94/221 60/93/222 62/95/223 61/96/224
f 61/96/225 62/95/226 64/97/227 63/98/228
f 63/98/229 64/97/230 58/99/231 57/100/232
f 58/92/233 64/101/234 62/102/235 60/93/236
f 63/103/237 57/91/238 59/94/239 61/104/240
f 65/105/241 66/106/242 68/107/243 67/108/244
f 67/108/245 68/107/246 70/109/247 69/110/248
f 69/110/249 70/109/250 72/111/251 71/112/252
f 71/112/253 72/111/254 66/113/255 65/114/256
f 66/106/257 72/115/258 70/116/259 68/107/260
f 71/117/261 65/105/262 67/108/263 69/118/264
f 73/119/265 75/120/266 91/121/267 93/122/268
f 74/123/269 73/124/270 78/125/271 77/126/272
f 75/127/273 74/123/274 80/128/275 79/129/276
f 76/130/277 78/131/278 94/132/279 96/133/280
f 77/126/281 76/134/282 84/135/283 83/136/284
f 79/137/285 81/138/286 86/139/287 85/140/288
f 81/138/289 80/128/290 83/136/291 82/141/292
f 82/141/293 84/142/294 90/143/295 89/144/296
f 85/145/297 87/146/298 92/147/299 91/148/300
f 87/146/301 86/139/302 89/144/303 88/149/304
f 88/149/305 90/150/306 96/151/307 95/152/308
f 93/122/309 92/147/310 95/152/311 94/132/312
f 74/123/313 77/126/314 83/136/315 80/128/316
f 81/138/317 82/141/318 89/144/319 86/139/320
f 87/146/321 88/149/322 95/152/323 92/147/324
f 93/122/325 94/132/326 78/131/327 73/119/328
f 76/134/329 96/153/330 90/154/331 84/135/332
f 91/155/333 75/127/334 79/129/335 85/156/336
f 73/124/337 74/123/338 75/127/339
f 76/134/340 77/126/341 78/125/342
f 79/129/343 80/128/344 81/138/345
f 82/141/346 83/136/347 84/135/348
f 85/140/349 86/139/350 87/146/351
f 88/149/352 89/144/353 90/143/354
f 91/148/355 92/147/356 93/122/357
f 94/132/358 95/152/359 96/151/360
f 97/157/361 98/158/362 100/159/363 99/160/364
f 99/160/365 100/159/366 102/161/367 101/162/368
f 101/162/369 102/161/370 104/163/371 103/164/372
f 103/164/373 104/163/374 98/165/375 97/166/376
f 98/158/377 104/167/378 102/168/379 100/159/380
f 103/169/381 97/157/382 99/160/383 101/170/384
