# This file uses centimeters as units for non-parametric coordinates.

mtllib REFRIGERADOR.mtl
g default
v -0.450000 0.000000 0.380350
v 0.450000 0.000000 0.380350
v -0.450000 1.800000 0.380350
v 0.450000 1.800000 0.380350
v -0.450000 1.800000 -0.452745
v 0.450000 1.800000 -0.452745
v -0.450000 0.000000 -0.452745
v 0.450000 0.000000 -0.452745
v -0.450000 1.302301 0.380350
v -0.450000 1.302301 -0.452745
v 0.450000 1.302301 -0.452745
v 0.450000 1.302301 0.380350
v -0.350000 0.100000 0.380350
v 0.350000 0.100000 0.380350
v 0.350000 1.202301 0.380350
v -0.350000 1.202301 0.380350
v 0.350000 1.402301 0.380350
v -0.350000 1.402301 0.380350
v 0.350000 1.700000 0.380350
v -0.350000 1.700000 0.380350
v -0.350000 0.100000 0.407303
v 0.350000 0.100000 0.407303
v 0.350000 1.202301 0.407303
v -0.350000 1.202301 0.407303
v 0.350000 1.402301 0.407303
v -0.350000 1.402301 0.407303
v 0.350000 1.700000 0.407303
v -0.350000 1.700000 0.407303
v -0.350000 0.100000 0.437275
v 0.350000 0.100000 0.437275
v 0.350000 1.202301 0.437275
v -0.350000 1.202301 0.437275
v 0.350000 1.402301 0.437275
v -0.350000 1.402301 0.437275
v 0.350000 1.700000 0.437275
v -0.350000 1.700000 0.437275
v -0.450000 0.000000 0.407303
v 0.450000 0.000000 0.407303
v 0.450000 0.000000 0.437275
v -0.450000 0.000000 0.437275
v 0.450000 1.271583 0.407303
v 0.450000 1.271290 0.437275
v -0.450000 1.271583 0.407303
v -0.450000 1.271290 0.437275
v 0.450000 1.302301 0.407303
v -0.450000 1.302301 0.407303
v 0.450000 1.302301 0.437275
v -0.450000 1.302301 0.437275
v 0.450000 1.800000 0.407303
v 0.450000 1.800000 0.437275
v -0.450000 1.800000 0.407303
v -0.450000 1.800000 0.437275
vt 0.375000 0.000000
vt 0.625000 0.000000
vt 0.375000 0.250000
vt 0.625000 0.250000
vt 0.375000 0.500000
vt 0.625000 0.500000
vt 0.375000 0.750000
vt 0.625000 0.750000
vt 0.375000 1.000000
vt 0.625000 1.000000
vt 0.875000 0.000000
vt 0.875000 0.250000
vt 0.125000 0.000000
vt 0.125000 0.250000
vt 0.375000 0.180875
vt 0.125000 0.180875
vt 0.375000 0.569125
vt 0.625000 0.569125
vt 0.875000 0.180875
vt 0.625000 0.180875
vt 0.375000 0.000000
vt 0.625000 0.000000
vt 0.625000 0.180875
vt 0.375000 0.180875
vt 0.375000 0.180875
vt 0.625000 0.180875
vt 0.625000 0.250000
vt 0.375000 0.250000
vt 0.375000 0.000000
vt 0.625000 0.000000
vt 0.625000 0.180875
vt 0.375000 0.180875
vt 0.625000 0.250000
vt 0.375000 0.250000
vt 0.375000 0.000000
vt 0.625000 0.000000
vt 0.625000 0.180875
vt 0.375000 0.180875
vt 0.625000 0.250000
vt 0.375000 0.250000
vt 0.375000 0.000000
vt 0.625000 0.000000
vt 0.625000 0.000000
vt 0.375000 0.000000
vt 0.625000 0.180875
vt 0.625000 0.180875
vt 0.375000 0.180875
vt 0.375000 0.180875
vt 0.625000 0.250000
vt 0.625000 0.250000
vt 0.375000 0.250000
vt 0.375000 0.250000
vn 0.000000 0.000000 1.000000
vn -0.000000 0.000000 1.000000
vn -0.000000 0.000000 1.000000
vn 0.000000 0.000000 1.000000
vn 0.000000 1.000000 0.000000
vn 0.000000 1.000000 0.000000
vn 0.000000 1.000000 0.000000
vn 0.000000 1.000000 0.000000
vn 0.000000 0.000000 -1.000000
vn 0.000000 0.000000 -1.000000
vn 0.000000 0.000000 -1.000000
vn 0.000000 0.000000 -1.000000
vn 0.000000 -1.000000 0.000000
vn 0.000000 -1.000000 0.000000
vn 0.000000 -1.000000 0.000000
vn 0.000000 -1.000000 0.000000
vn 1.000000 0.000000 0.000000
vn 1.000000 0.000000 0.000000
vn 1.000000 0.000000 0.000000
vn 1.000000 0.000000 0.000000
vn -1.000000 0.000000 0.000000
vn -1.000000 0.000000 0.000000
vn -1.000000 0.000000 0.000000
vn -1.000000 0.000000 0.000000
vn -1.000000 0.000000 0.000000
vn -1.000000 0.000000 0.000000
vn 0.000000 0.000000 -1.000000
vn 0.000000 0.000000 -1.000000
vn 1.000000 0.000000 0.000000
vn 1.000000 0.000000 0.000000
vn -0.000000 0.000000 1.000000
vn 0.000000 0.000000 1.000000
vn 0.000000 0.000000 1.000000
vn -0.000000 0.000000 1.000000
vn 0.000000 0.000000 1.000000
vn -0.000000 0.000000 1.000000
vn -0.000000 0.000000 1.000000
vn 0.000000 0.000000 1.000000
vn -0.000000 0.000000 1.000000
vn -0.000000 0.000000 1.000000
vn 0.000000 0.000000 1.000000
vn 0.000000 0.000000 1.000000
vn -0.000000 0.000000 1.000000
vn -0.000000 0.000000 1.000000
vn -0.000000 0.000000 1.000000
vn -0.000000 0.000000 1.000000
vn -0.000000 0.000000 1.000000
vn -0.000000 0.000000 1.000000
vn 0.000000 -1.000000 0.000000
vn 0.000000 -1.000000 0.000000
vn 0.000000 -1.000000 0.000000
vn 0.000000 -1.000000 0.000000
vn 1.000000 0.000000 0.000000
vn 1.000000 0.000000 0.000000
vn 1.000000 0.000000 0.000000
vn 1.000000 0.000000 0.000000
vn 0.000000 1.000000 0.000000
vn 0.000000 1.000000 0.000000
vn 0.000000 1.000000 0.000000
vn 0.000000 1.000000 0.000000
vn -1.000000 0.000000 0.000000
vn -1.000000 0.000000 0.000000
vn -1.000000 0.000000 0.000000
vn -1.000000 0.000000 0.000000
vn 0.000000 -1.000000 0.000000
vn 0.000000 -1.000000 0.000000
vn 0.000000 -1.000000 0.000000
vn 0.000000 -1.000000 0.000000
vn 1.000000 0.000000 0.000000
vn 1.000000 0.000000 0.000000
vn 1.000000 0.000000 0.000000
vn 1.000000 0.000000 0.000000
vn 0.000000 1.000000 0.000000
vn 0.000000 1.000000 0.000000
vn 0.000000 1.000000 0.000000
vn 0.000000 1.000000 0.000000
vn -1.000000 0.000000 0.000000
vn -1.000000 0.000000 0.000000
vn -1.000000 0.000000 0.000000
vn -1.000000 0.000000 0.000000
vn 0.000000 -1.000000 0.000000
vn 0.000000 -1.000000 0.000000
vn 0.000000 -1.000000 0.000000
vn 0.000000 -1.000000 0.000000
vn 1.000000 0.000000 0.000000
vn 1.000000 0.000000 0.000000
vn 1.000000 0.000000 0.000000
vn 1.000000 0.000000 0.000000
vn 0.000000 0.999952 0.009788
vn 0.000000 0.999952 0.009788
vn 0.000000 0.999952 0.009788
vn 0.000000 0.999952 0.009788
vn -1.000000 0.000000 0.000000
vn -1.000000 0.000000 0.000000
vn -1.000000 0.000000 0.000000
vn -1.000000 0.000000 0.000000
vn 0.000000 -1.000000 0.000000
vn 0.000000 -1.000000 0.000000
vn 0.000000 -1.000000 0.000000
vn 0.000000 -1.000000 0.000000
vn 1.000000 0.000000 0.000000
vn 1.000000 0.000000 0.000000
vn 1.000000 0.000000 0.000000
vn 1.000000 0.000000 0.000000
vn 0.000000 1.000000 0.000000
vn 0.000000 1.000000 0.000000
vn 0.000000 1.000000 0.000000
vn 0.000000 1.000000 0.000000
vn -1.000000 0.000000 0.000000
vn -1.000000 0.000000 0.000000
vn -1.000000 0.000000 0.000000
vn -1.000000 0.000000 0.000000
vn 0.000000 0.000000 -1.000000
vn -0.000000 0.000000 -1.000000
vn -0.000000 0.000000 -1.000000
vn 0.000000 0.000000 -1.000000
vn 0.000000 0.000000 1.000000
vn -0.000000 0.000000 1.000000
vn -0.000000 0.000000 -1.000000
vn -0.000000 0.000000 -1.000000
vn -0.000000 0.000000 1.000000
vn 0.000000 0.000000 -1.000000
vn 0.000000 0.000000 -1.000000
vn 0.000000 0.000000 1.000000
vn 0.000000 0.000000 -1.000000
vn -0.000000 0.000000 -1.000000
vn -0.000000 0.000000 -1.000000
vn 0.000000 0.000000 -1.000000
vn -0.000000 0.000000 1.000000
vn 0.000000 0.000000 1.000000
vn -0.000000 0.000000 -1.000000
vn -0.000000 0.000000 -1.000000
vn 0.000000 0.000000 1.000000
vn 0.000000 0.000000 -1.000000
vn 0.000000 0.000000 -1.000000
vn -0.000000 0.000000 1.000000
s 1
g pasted__pCube16 group114
usemtl lambert16SG
f 29/35/1 30/36/2 31/37/3 32/38/4
s off
f 3/3/5 4/4/6 6/6/7 5/5/8
s 2
f 10/17/9 11/18/10 8/8/11 7/7/12
s off
f 7/7/13 8/8/14 2/10/15 1/9/16
s 3
f 2/2/17 8/11/18 11/19/19 12/20/20
s 4
f 7/13/21 1/1/22 9/15/23 10/16/24
f 10/16/24 9/15/23 3/3/25 5/14/26
s 2
f 5/5/27 6/6/28 11/18/10 10/17/9
s 3
f 12/20/20 11/19/19 6/12/29 4/4/30
s 5
f 34/38/31 33/37/32 35/39/33 36/40/34
s 6
f 1/1/35 2/2/36 14/22/37 13/21/38
f 2/2/36 12/20/39 15/23/40 14/22/37
f 12/20/39 9/15/41 16/24/42 15/23/40
f 9/15/41 1/1/35 13/21/38 16/24/42
f 9/15/41 12/20/39 17/26/43 18/25/44
f 12/20/39 4/4/45 19/27/46 17/26/43
f 4/4/45 3/3/47 20/28/48 19/27/46
f 3/3/47 9/15/41 18/25/44 20/28/48
s off
f 13/1/49 14/2/50 22/30/51 21/29/52
f 14/2/53 15/26/54 23/31/55 22/30/56
f 15/26/57 16/25/58 24/32/59 23/31/60
f 16/25/61 13/1/62 21/29/63 24/32/64
f 18/25/65 17/26/66 25/31/67 26/32/68
f 17/26/69 19/27/70 27/33/71 25/31/72
f 19/27/73 20/28/74 28/34/75 27/33/76
f 20/28/77 18/25/78 26/32/79 28/34/80
f 37/41/81 38/42/82 39/43/83 40/44/84
f 38/42/85 41/45/86 42/46/87 39/43/88
f 41/45/89 43/47/90 44/48/91 42/46/92
f 43/47/93 37/41/94 40/44/95 44/48/96
f 46/47/97 45/45/98 47/46/99 48/48/100
f 45/45/101 49/49/102 50/50/103 47/46/104
f 49/49/105 51/51/106 52/52/107 50/50/108
f 51/51/109 46/47/110 48/48/111 52/52/112
s 7
f 21/29/113 22/30/114 38/42/115 37/41/116
s 1
f 30/36/2 29/35/1 40/44/117 39/43/118
s 7
f 22/30/114 23/31/119 41/45/120 38/42/115
s 1
f 31/37/3 30/36/2 39/43/118 42/46/121
s 7
f 23/31/119 24/32/122 43/47/123 41/45/120
s 1
f 32/38/4 31/37/3 42/46/121 44/48/124
s 7
f 24/32/122 21/29/113 37/41/116 43/47/123
s 1
f 29/35/1 32/38/4 44/48/124 40/44/117
s 8
f 26/32/125 25/31/126 45/45/127 46/47/128
s 5
f 33/37/32 34/38/31 48/48/129 47/46/130
s 8
f 25/31/126 27/33/131 49/49/132 45/45/127
s 5
f 35/39/33 33/37/32 47/46/130 50/50/133
s 8
f 27/33/131 28/34/134 51/51/135 49/49/132
s 5
f 36/40/34 35/39/33 50/50/133 52/52/136
s 8
f 28/34/134 26/32/125 46/47/128 51/51/135
s 5
f 34/38/31 36/40/34 52/52/136 48/48/129
